{
.appVersion = "1357";
DisplayStrings = (
b
);
classes = (
{
code = "upArrow\012leftArrow\012space\012boxHeavyHorizontal\012spadeBlackSuit\012boxHeavyVertical\012uniE000\012uniE001\012uniE002\012uniE003\012uniE004\012uniE005\012boxLightArcDownAndLeft\012boxLightArcUpAndRight\012boxLightArcUpAndLeft\012uniE006\012boxLightDiagonalUpperLeftToLowerRight\012boxLightDiagonalUpperRightToLowerLeft\012uniE007\012uniE008\012blackCircle\012uniE009\012heartBlackSuit\012uniE00A\012boxLightArcDownAndRight\012boxLightDiagonalCross\012whiteCircle\012clubBlackSuit\012uniE00B\012diamondBlackSuit\012boxHeavyVerticalAndHorizontal\012uniE00C\012uniE00D\012pi\012upperRightBlackTriangle\012nbspace\012leftBlock\012lowerHalfBlock\012upperOneEighthBlock\012lowerOneEighthBlock\012leftOneEighthBlock\012shadedark\012rightOneEighthBlock\012uniE00E\012upperLeftBlackTriangle\012uniE00F\012boxHeavyVerticalAndRight\012lowerRightBlock\012boxHeavyUpAndRight\012boxHeavyDownAndLeft\012lowerOneQuarterBlock\012boxHeavyDownAndRight\012boxHeavyUpAndHorizontal\012boxHeavyDownAndHorizontal\012boxHeavyVerticalAndLeft\012leftOneQuarterBlock\012leftThreeEighthsBlock\012uniE010\012uniE011\012uniE012\012lowerThreeEighthsBlock\012uniE013\012lowerLeftBlock\012upperRightBlock\012boxHeavyUpAndLeft\012upperLeftBlock\012upperLeftAndLowerRightBlock\012upperlefttolowerrightFillSquare\012upperrighttolowerleftFillSquare\012checkmark\012rightArrow\012downArrow\012";
name = rev_gfx_source;
},
{

glyphs = (
{
color = 4;
glyphname = A;
layers = (
{
background = {
paths = (
{
closed = 1;
nodes = (
"387 381 LINE {name = hr00;}",
"637 381 LINE",
"637 -3 LINE",
"899 -3 LINE",
"899 643 LINE",
"771 643 LINE",
"771 771 LINE",
"643 771 LINE",
"643 899 LINE",
"381 899 LINE",
"381 771 LINE",
"253 771 LINE",
"253 643 LINE",
"125 643 LINE",
"125 -3 LINE",
"387 -3 LINE"
);
},
{
closed = 1;
nodes = (
"387 637 LINE",
"637 637 LINE",
"637 515 LINE",
"387 515 LINE"
);
}
);
};
components = (
{
name = pixel.2;
transform = "{1, 0, 0, 1, 128, 0}";
},
{
name = pixel.2;
transform = "{1, 0, 0, 1, 640, 0}";
},
{
name = pixel.2;
transform = "{1, 0, 0, 1, 128, 128}";
},
{
name = pixel.2;
transform = "{1, 0, 0, 1, 640, 128}";
},
{
name = pixel.2;
transform = "{1, 0, 0, 1, 128, 256}";
},
{
name = pixel.2;
transform = "{1, 0, 0, 1, 640, 256}";
},
{
name = pixel.6;
transform = "{1, 0, 0, 1, 128, 384}";
},
{
name = pixel.2;
transform = "{1, 0, 0, 1, 128, 512}";
},
{
name = pixel.2;
transform = "{1, 0, 0, 1, 640, 512}";
},
{
name = pixel.4;
transform = "{1, 0, 0, 1, 256, 640}";
},
{
name = pixel.2;
transform = "{1, 0, 0, 1, 384, 768}";
}
);
layerId = "511DE76B-C93C-4D1E-A4F3-1BF977EE06C9";
width = 1024;
},
{
background = {
paths = (
{
closed = 1;
nodes = (
"387 381 LINE {name = hr00;}",
"637 381 LINE",
"637 -3 LINE",
"899 -3 LINE",
"899 643 LINE",
"771 643 LINE",
"771 771 LINE",
"643 771 LINE",
"643 899 LINE",
"381 899 LINE",
"381 771 LINE",
"253 771 LINE",
"253 643 LINE",
"125 643 LINE",
"125 -3 LINE",
"387 -3 LINE"
);
},
{
closed = 1;
nodes = (
"387 637 LINE",
"637 637 LINE",
"637 515 LINE",
"387 515 LINE"
);
}
);
};
components = (
{
name = pixel.2;
transform = "{1, 0, 0, 1, 128, 0}";
},
{
name = pixel.2;
transform = "{1, 0, 0, 1, 640, 0}";
},
{
name = pixel.2;
transform = "{1, 0, 0, 1, 128, 128}";
},
{
name = pixel.2;
transform = "{1, 0, 0, 1, 640, 128}";
},
{
name = pixel.2;
transform = "{1, 0, 0, 1, 128, 256}";
},
{
name = pixel.2;
transform = "{1, 0, 0, 1, 640, 256}";
},
{
name = pixel.6;
transform = "{1, 0, 0, 1, 128, 384}";
},
{
name = pixel.2;
transform = "{1, 0, 0, 1, 128, 512}";
},
{
name = pixel.2;
transform = "{1, 0, 0, 1, 640, 512}";
},
{
name = pixel.4;
transform = "{1, 0, 0, 1, 256, 640}";
},
{
name = pixel.2;
transform = "{1, 0, 0, 1, 384, 768}";
}
);
layerId = "A1CF3A9E-1F49-4701-AF3E-F0E694793914";
width = 1024;
},
{
background = {
paths = (
{
closed = 1;
nodes = (
"387 381 LINE {name = hr00;}",
"637 381 LINE",
"637 -3 LINE",
"899 -3 LINE",
"899 643 LINE",
"771 643 LINE",
"771 771 LINE",
"643 771 LINE",
"643 899 LINE",
"381 899 LINE",
"381 771 LINE",
"253 771 LINE",
"253 643 LINE",
"125 643 LINE",
"125 -3 LINE",
"387 -3 LINE"
);
},
{
closed = 1;
nodes = (
"387 637 LINE",
"637 637 LINE",
"637 515 LINE",
"387 515 LINE"
);
}
);
};
components = (
{
name = pixel.2;
transform = "{1, 0, 0, 1, 128, 0}";
},
{
name = pixel.2;
transform = "{1, 0, 0, 1, 640, 0}";
},
{
name = pixel.2;
transform = "{1, 0, 0, 1, 128, 128}";
},
{
name = pixel.2;
transform = "{1, 0, 0, 1, 640, 128}";
},
{
name = pixel.2;
transform = "{1, 0, 0, 1, 128, 256}";
},
{
name = pixel.2;
transform = "{1, 0, 0, 1, 640, 256}";
},
{
name = pixel.6;
transform = "{1, 0, 0, 1, 128, 384}";
},
{
name = pixel.2;
transform = "{1, 0, 0, 1, 128, 512}";
},
{
name = pixel.2;
transform = "{1, 0, 0, 1, 640, 512}";
},
{
name = pixel.4;
transform = "{1, 0, 0, 1, 256, 640}";
},
{
name = pixel.2;
transform = "{1, 0, 0, 1, 384, 768}";
}
);
layerId = "93054D9F-9072-4363-B5A9-8BAB03B66C21";
width = 1024;
},
{
background = {
paths = (
{
closed = 1;
nodes = (
"387 381 LINE {name = hr00;}",
"637 381 LINE",
"637 -3 LINE",
"899 -3 LINE",
"899 643 LINE",
"771 643 LINE",
"771 771 LINE",
"643 771 LINE",
"643 899 LINE",
"381 899 LINE",
"381 771 LINE",
"253 771 LINE",
"253 643 LINE",
"125 643 LINE",
"125 -3 LINE",
"387 -3 LINE"
);
},
{
closed = 1;
nodes = (
"387 637 LINE",
"637 637 LINE",
"637 515 LINE",
"387 515 LINE"
);
}
);
};
components = (
{
name = pixel.2;
transform = "{1, 0, 0, 1, 128, 0}";
},
{
name = pixel.2;
transform = "{1, 0, 0, 1, 640, 0}";
},
{
name = pixel.2;
transform = "{1, 0, 0, 1, 128, 128}";
},
{
name = pixel.2;
transform = "{1, 0, 0, 1, 640, 128}";
},
{
name = pixel.2;
transform = "{1, 0, 0, 1, 128, 256}";
},
{
name = pixel.2;
transform = "{1, 0, 0, 1, 640, 256}";
},
{
name = pixel.6;
transform = "{1, 0, 0, 1, 128, 384}";
},
{
name = pixel.2;
transform = "{1, 0, 0, 1, 128, 512}";
},
{
name = pixel.2;
transform = "{1, 0, 0, 1, 640, 512}";
},
{
name = pixel.4;
transform = "{1, 0, 0, 1, 256, 640}";
},
{
name = pixel.2;
transform = "{1, 0, 0, 1, 384, 768}";
}
);
layerId = "B2CED426-8D3E-4D4E-926E-917DB7E3651C";
width = 1024;
}
);
unicode = 0041;
userData = {
com.typemytype.robofont.mark = (
1,
0.6,
0.6,
1
);
};
},
{
color = 6;
glyphname = Aacute;
layers = (
{
background = {
paths = (
{
closed = 1;
nodes = (
"771 899 LINE {name = hr00;}",
"509 899 LINE",
"509 771 LINE",
"381 771 LINE",
"381 643 LINE",
"253 643 LINE",
"253 515 LINE",
"125 515 LINE",
"125 -3 LINE",
"387 -3 LINE",
"387 253 LINE",
"637 253 LINE",
"637 -3 LINE",
"899 -3 LINE",
"899 515 LINE",
"771 515 LINE",
"771 643 LINE",
"643 643 LINE",
"643 765 LINE",
"771 765 LINE"
);
},
{
closed = 1;
nodes = (
"387 509 LINE",
"637 509 LINE",
"637 387 LINE",
"387 387 LINE"
);
}
);
};
components = (
{
name = A.case;
},
{
name = acute;
}
);
layerId = "511DE76B-C93C-4D1E-A4F3-1BF977EE06C9";
width = 1024;
},
{
background = {
paths = (
{
closed = 1;
nodes = (
"771 899 LINE {name = hr00;}",
"509 899 LINE",
"509 771 LINE",
"381 771 LINE",
"381 643 LINE",
"253 643 LINE",
"253 515 LINE",
"125 515 LINE",
"125 -3 LINE",
"387 -3 LINE",
"387 253 LINE",
"637 253 LINE",
"637 -3 LINE",
"899 -3 LINE",
"899 515 LINE",
"771 515 LINE",
"771 643 LINE",
"643 643 LINE",
"643 765 LINE",
"771 765 LINE"
);
},
{
closed = 1;
nodes = (
"387 509 LINE",
"637 509 LINE",
"637 387 LINE",
"387 387 LINE"
);
}
);
};
components = (
{
name = A.case;
},
{
name = acute;
}
);
layerId = "A1CF3A9E-1F49-4701-AF3E-F0E694793914";
width = 1024;
},
{
background = {
paths = (
{
closed = 1;
nodes = (
"771 899 LINE {name = hr00;}",
"509 899 LINE",
"509 771 LINE",
"381 771 LINE",
"381 643 LINE",
"253 643 LINE",
"253 515 LINE",
"125 515 LINE",
"125 -3 LINE",
"387 -3 LINE",
"387 253 LINE",
"637 253 LINE",
"637 -3 LINE",
"899 -3 LINE",
"899 515 LINE",
"771 515 LINE",
"771 643 LINE",
"643 643 LINE",
"643 765 LINE",
"771 765 LINE"
);
},
{
closed = 1;
nodes = (
"387 509 LINE",
"637 509 LINE",
"637 387 LINE",
"387 387 LINE"
);
}
);
};
components = (
{
name = A.case;
},
{
name = acute;
}
);
layerId = "93054D9F-9072-4363-B5A9-8BAB03B66C21";
width = 1024;
},
{
background = {
paths = (
{
closed = 1;
nodes = (
"771 899 LINE {name = hr00;}",
"509 899 LINE",
"509 771 LINE",
"381 771 LINE",
"381 643 LINE",
"253 643 LINE",
"253 515 LINE",
"125 515 LINE",
"125 -3 LINE",
"387 -3 LINE",
"387 253 LINE",
"637 253 LINE",
"637 -3 LINE",
"899 -3 LINE",
"899 515 LINE",
"771 515 LINE",
"771 643 LINE",
"643 643 LINE",
"643 765 LINE",
"771 765 LINE"
);
},
{
closed = 1;
nodes = (
"387 509 LINE",
"637 509 LINE",
"637 387 LINE",
"387 387 LINE"
);
}
);
};
components = (
{
name = A.case;
},
{
name = acute;
}
);
layerId = "B2CED426-8D3E-4D4E-926E-917DB7E3651C";
width = 1024;
}
);
unicode = 00C1;
userData = {
com.typemytype.robofont.mark = (
0.967,
0.6,
1,
1
);
};
},
{
color = 6;
glyphname = Acircumflex;
layers = (
{
background = {
paths = (
{
closed = 1;
nodes = (
"387 125 LINE {name = hr00;}",
"637 125 LINE",
"637 -3 LINE",
"899 -3 LINE",
"899 387 LINE",
"771 387 LINE",
"771 515 LINE",
"643 515 LINE",
"643 637 LINE",
"899 637 LINE",
"899 771 LINE",
"771 771 LINE",
"771 899 LINE",
"253 899 LINE",
"253 771 LINE",
"125 771 LINE",
"125 637 LINE",
"381 637 LINE",
"381 515 LINE",
"253 515 LINE",
"253 387 LINE",
"125 387 LINE",
"125 -3 LINE",
"387 -3 LINE"
);
},
{
closed = 1;
nodes = (
"387 765 LINE",
"637 765 LINE",
"637 643 LINE",
"387 643 LINE"
);
},
{
closed = 1;
nodes = (
"387 381 LINE",
"637 381 LINE",
"637 259 LINE",
"387 259 LINE"
);
}
);
};
components = (
{
name = A.case;
},
{
name = circumflex;
}
);
layerId = "511DE76B-C93C-4D1E-A4F3-1BF977EE06C9";
width = 1024;
},
{
background = {
paths = (
{
closed = 1;
nodes = (
"387 125 LINE {name = hr00;}",
"637 125 LINE",
"637 -3 LINE",
"899 -3 LINE",
"899 387 LINE",
"771 387 LINE",
"771 515 LINE",
"643 515 LINE",
"643 637 LINE",
"899 637 LINE",
"899 771 LINE",
"771 771 LINE",
"771 899 LINE",
"253 899 LINE",
"253 771 LINE",
"125 771 LINE",
"125 637 LINE",
"381 637 LINE",
"381 515 LINE",
"253 515 LINE",
"253 387 LINE",
"125 387 LINE",
"125 -3 LINE",
"387 -3 LINE"
);
},
{
closed = 1;
nodes = (
"387 765 LINE",
"637 765 LINE",
"637 643 LINE",
"387 643 LINE"
);
},
{
closed = 1;
nodes = (
"387 381 LINE",
"637 381 LINE",
"637 259 LINE",
"387 259 LINE"
);
}
);
};
components = (
{
name = A.case;
},
{
name = circumflex;
}
);
layerId = "A1CF3A9E-1F49-4701-AF3E-F0E694793914";
width = 1024;
},
{
background = {
paths = (
{
closed = 1;
nodes = (
"387 125 LINE {name = hr00;}",
"637 125 LINE",
"637 -3 LINE",
"899 -3 LINE",
"899 387 LINE",
"771 387 LINE",
"771 515 LINE",
"643 515 LINE",
"643 637 LINE",
"899 637 LINE",
"899 771 LINE",
"771 771 LINE",
"771 899 LINE",
"253 899 LINE",
"253 771 LINE",
"125 771 LINE",
"125 637 LINE",
"381 637 LINE",
"381 515 LINE",
"253 515 LINE",
"253 387 LINE",
"125 387 LINE",
"125 -3 LINE",
"387 -3 LINE"
);
},
{
closed = 1;
nodes = (
"387 765 LINE",
"637 765 LINE",
"637 643 LINE",
"387 643 LINE"
);
},
{
closed = 1;
nodes = (
"387 381 LINE",
"637 381 LINE",
"637 259 LINE",
"387 259 LINE"
);
}
);
};
components = (
{
name = A.case;
},
{
name = circumflex;
}
);
layerId = "93054D9F-9072-4363-B5A9-8BAB03B66C21";
width = 1024;
},
{
background = {
paths = (
{
closed = 1;
nodes = (
"387 125 LINE {name = hr00;}",
"637 125 LINE",
"637 -3 LINE",
"899 -3 LINE",
"899 387 LINE",
"771 387 LINE",
"771 515 LINE",
"643 515 LINE",
"643 637 LINE",
"899 637 LINE",
"899 771 LINE",
"771 771 LINE",
"771 899 LINE",
"253 899 LINE",
"253 771 LINE",
"125 771 LINE",
"125 637 LINE",
"381 637 LINE",
"381 515 LINE",
"253 515 LINE",
"253 387 LINE",
"125 387 LINE",
"125 -3 LINE",
"387 -3 LINE"
);
},
{
closed = 1;
nodes = (
"387 765 LINE",
"637 765 LINE",
"637 643 LINE",
"387 643 LINE"
);
},
{
closed = 1;
nodes = (
"387 381 LINE",
"637 381 LINE",
"637 259 LINE",
"387 259 LINE"
);
}
);
};
components = (
{
name = A.case;
},
{
name = circumflex;
}
);
layerId = "B2CED426-8D3E-4D4E-926E-917DB7E3651C";
width = 1024;
}
);
unicode = 00C2;
userData = {
com.typemytype.robofont.mark = (
0.967,
0.6,
1,
1
);
};
},
{
color = 6;
glyphname = Adieresis;
layers = (
{
background = {
paths = (
{
closed = 1;
nodes = (
"125 765 LINE {name = hr00;}",
"381 765 LINE",
"381 643 LINE",
"253 643 LINE",
"253 515 LINE",
"125 515 LINE",
"125 -3 LINE",
"387 -3 LINE",
"387 253 LINE",
"637 253 LINE",
"637 -3 LINE",
"899 -3 LINE",
"899 515 LINE",
"771 515 LINE",
"771 643 LINE",
"643 643 LINE",
"643 765 LINE",
"899 765 LINE",
"899 899 LINE",
"637 899 LINE",
"637 771 LINE",
"387 771 LINE",
"387 899 LINE",
"125 899 LINE"
);
},
{
closed = 1;
nodes = (
"387 509 LINE",
"637 509 LINE",
"637 387 LINE",
"387 387 LINE"
);
}
);
};
components = (
{
name = A.case.2;
},
{
name = dieresis;
}
);
layerId = "511DE76B-C93C-4D1E-A4F3-1BF977EE06C9";
width = 1024;
},
{
background = {
paths = (
{
closed = 1;
nodes = (
"125 765 LINE {name = hr00;}",
"381 765 LINE",
"381 643 LINE",
"253 643 LINE",
"253 515 LINE",
"125 515 LINE",
"125 -3 LINE",
"387 -3 LINE",
"387 253 LINE",
"637 253 LINE",
"637 -3 LINE",
"899 -3 LINE",
"899 515 LINE",
"771 515 LINE",
"771 643 LINE",
"643 643 LINE",
"643 765 LINE",
"899 765 LINE",
"899 899 LINE",
"637 899 LINE",
"637 771 LINE",
"387 771 LINE",
"387 899 LINE",
"125 899 LINE"
);
},
{
closed = 1;
nodes = (
"387 509 LINE",
"637 509 LINE",
"637 387 LINE",
"387 387 LINE"
);
}
);
};
components = (
{
name = A.case.2;
},
{
name = dieresis;
}
);
layerId = "A1CF3A9E-1F49-4701-AF3E-F0E694793914";
width = 1024;
},
{
background = {
paths = (
{
closed = 1;
nodes = (
"125 765 LINE {name = hr00;}",
"381 765 LINE",
"381 643 LINE",
"253 643 LINE",
"253 515 LINE",
"125 515 LINE",
"125 -3 LINE",
"387 -3 LINE",
"387 253 LINE",
"637 253 LINE",
"637 -3 LINE",
"899 -3 LINE",
"899 515 LINE",
"771 515 LINE",
"771 643 LINE",
"643 643 LINE",
"643 765 LINE",
"899 765 LINE",
"899 899 LINE",
"637 899 LINE",
"637 771 LINE",
"387 771 LINE",
"387 899 LINE",
"125 899 LINE"
);
},
{
closed = 1;
nodes = (
"387 509 LINE",
"637 509 LINE",
"637 387 LINE",
"387 387 LINE"
);
}
);
};
components = (
{
name = A.case.2;
},
{
name = dieresis;
}
);
layerId = "93054D9F-9072-4363-B5A9-8BAB03B66C21";
width = 1024;
},
{
background = {
paths = (
{
closed = 1;
nodes = (
"125 765 LINE {name = hr00;}",
"381 765 LINE",
"381 643 LINE",
"253 643 LINE",
"253 515 LINE",
"125 515 LINE",
"125 -3 LINE",
"387 -3 LINE",
"387 253 LINE",
"637 253 LINE",
"637 -3 LINE",
"899 -3 LINE",
"899 515 LINE",
"771 515 LINE",
"771 643 LINE",
"643 643 LINE",
"643 765 LINE",
"899 765 LINE",
"899 899 LINE",
"637 899 LINE",
"637 771 LINE",
"387 771 LINE",
"387 899 LINE",
"125 899 LINE"
);
},
{
closed = 1;
nodes = (
"387 509 LINE",
"637 509 LINE",
"637 387 LINE",
"387 387 LINE"
);
}
);
};
components = (
{
name = A.case.2;
},
{
name = dieresis;
}
);
layerId = "B2CED426-8D3E-4D4E-926E-917DB7E3651C";
width = 1024;
}
);
unicode = 00C4;
userData = {
com.typemytype.robofont.mark = (
0.967,
0.6,
1,
1
);
};
},
{
color = 6;
glyphname = Agrave;
layers = (
{
background = {
paths = (
{
closed = 1;
nodes = (
"253 765 LINE {name = hr00;}",
"381 765 LINE",
"381 643 LINE",
"253 643 LINE",
"253 515 LINE",
"125 515 LINE",
"125 -3 LINE",
"387 -3 LINE",
"387 253 LINE",
"637 253 LINE",
"637 -3 LINE",
"899 -3 LINE",
"899 515 LINE",
"771 515 LINE",
"771 643 LINE",
"643 643 LINE",
"643 771 LINE",
"515 771 LINE",
"515 899 LINE",
"253 899 LINE"
);
},
{
closed = 1;
nodes = (
"387 509 LINE",
"637 509 LINE",
"637 387 LINE",
"387 387 LINE"
);
}
);
};
components = (
{
name = A.case;
},
{
name = grave;
}
);
layerId = "511DE76B-C93C-4D1E-A4F3-1BF977EE06C9";
width = 1024;
},
{
background = {
paths = (
{
closed = 1;
nodes = (
"253 765 LINE {name = hr00;}",
"381 765 LINE",
"381 643 LINE",
"253 643 LINE",
"253 515 LINE",
"125 515 LINE",
"125 -3 LINE",
"387 -3 LINE",
"387 253 LINE",
"637 253 LINE",
"637 -3 LINE",
"899 -3 LINE",
"899 515 LINE",
"771 515 LINE",
"771 643 LINE",
"643 643 LINE",
"643 771 LINE",
"515 771 LINE",
"515 899 LINE",
"253 899 LINE"
);
},
{
closed = 1;
nodes = (
"387 509 LINE",
"637 509 LINE",
"637 387 LINE",
"387 387 LINE"
);
}
);
};
components = (
{
name = A.case;
},
{
name = grave;
}
);
layerId = "A1CF3A9E-1F49-4701-AF3E-F0E694793914";
width = 1024;
},
{
background = {
paths = (
{
closed = 1;
nodes = (
"253 765 LINE {name = hr00;}",
"381 765 LINE",
"381 643 LINE",
"253 643 LINE",
"253 515 LINE",
"125 515 LINE",
"125 -3 LINE",
"387 -3 LINE",
"387 253 LINE",
"637 253 LINE",
"637 -3 LINE",
"899 -3 LINE",
"899 515 LINE",
"771 515 LINE",
"771 643 LINE",
"643 643 LINE",
"643 771 LINE",
"515 771 LINE",
"515 899 LINE",
"253 899 LINE"
);
},
{
closed = 1;
nodes = (
"387 509 LINE",
"637 509 LINE",
"637 387 LINE",
"387 387 LINE"
);
}
);
};
components = (
{
name = A.case;
},
{
name = grave;
}
);
layerId = "93054D9F-9072-4363-B5A9-8BAB03B66C21";
width = 1024;
},
{
background = {
paths = (
{
closed = 1;
nodes = (
"253 765 LINE {name = hr00;}",
"381 765 LINE",
"381 643 LINE",
"253 643 LINE",
"253 515 LINE",
"125 515 LINE",
"125 -3 LINE",
"387 -3 LINE",
"387 253 LINE",
"637 253 LINE",
"637 -3 LINE",
"899 -3 LINE",
"899 515 LINE",
"771 515 LINE",
"771 643 LINE",
"643 643 LINE",
"643 771 LINE",
"515 771 LINE",
"515 899 LINE",
"253 899 LINE"
);
},
{
closed = 1;
nodes = (
"387 509 LINE",
"637 509 LINE",
"637 387 LINE",
"387 387 LINE"
);
}
);
};
components = (
{
name = A.case;
},
{
name = grave;
}
);
layerId = "B2CED426-8D3E-4D4E-926E-917DB7E3651C";
width = 1024;
}
);
unicode = 00C0;
userData = {
com.typemytype.robofont.mark = (
0.967,
0.6,
1,
1
);
};
},
{
color = 6;
glyphname = Aring;
layers = (
{
background = {
paths = (
{
closed = 1;
nodes = (
"125 637 LINE {name = hr00;}",
"253 637 LINE",
"253 387 LINE",
"125 387 LINE",
"125 -3 LINE",
"387 -3 LINE",
"387 125 LINE",
"637 125 LINE",
"637 -3 LINE",
"899 -3 LINE",
"899 387 LINE",
"771 387 LINE",
"771 637 LINE",
"899 637 LINE",
"899 771 LINE",
"771 771 LINE",
"771 899 LINE",
"253 899 LINE",
"253 771 LINE",
"125 771 LINE"
);
},
{
closed = 1;
nodes = (
"637 643 LINE",
"387 643 LINE",
"387 765 LINE",
"637 765 LINE"
);
},
{
closed = 1;
nodes = (
"387 381 LINE",
"637 381 LINE",
"637 259 LINE",
"387 259 LINE"
);
}
);
};
components = (
{
name = A.case;
},
{
name = ring;
}
);
layerId = "511DE76B-C93C-4D1E-A4F3-1BF977EE06C9";
width = 1024;
},
{
background = {
paths = (
{
closed = 1;
nodes = (
"125 637 LINE {name = hr00;}",
"253 637 LINE",
"253 387 LINE",
"125 387 LINE",
"125 -3 LINE",
"387 -3 LINE",
"387 125 LINE",
"637 125 LINE",
"637 -3 LINE",
"899 -3 LINE",
"899 387 LINE",
"771 387 LINE",
"771 637 LINE",
"899 637 LINE",
"899 771 LINE",
"771 771 LINE",
"771 899 LINE",
"253 899 LINE",
"253 771 LINE",
"125 771 LINE"
);
},
{
closed = 1;
nodes = (
"637 643 LINE",
"387 643 LINE",
"387 765 LINE",
"637 765 LINE"
);
},
{
closed = 1;
nodes = (
"387 381 LINE",
"637 381 LINE",
"637 259 LINE",
"387 259 LINE"
);
}
);
};
components = (
{
name = A.case;
},
{
name = ring;
}
);
layerId = "A1CF3A9E-1F49-4701-AF3E-F0E694793914";
width = 1024;
},
{
background = {
paths = (
{
closed = 1;
nodes = (
"125 637 LINE {name = hr00;}",
"253 637 LINE",
"253 387 LINE",
"125 387 LINE",
"125 -3 LINE",
"387 -3 LINE",
"387 125 LINE",
"637 125 LINE",
"637 -3 LINE",
"899 -3 LINE",
"899 387 LINE",
"771 387 LINE",
"771 637 LINE",
"899 637 LINE",
"899 771 LINE",
"771 771 LINE",
"771 899 LINE",
"253 899 LINE",
"253 771 LINE",
"125 771 LINE"
);
},
{
closed = 1;
nodes = (
"637 643 LINE",
"387 643 LINE",
"387 765 LINE",
"637 765 LINE"
);
},
{
closed = 1;
nodes = (
"387 381 LINE",
"637 381 LINE",
"637 259 LINE",
"387 259 LINE"
);
}
);
};
components = (
{
name = A.case;
},
{
name = ring;
}
);
layerId = "93054D9F-9072-4363-B5A9-8BAB03B66C21";
width = 1024;
},
{
background = {
paths = (
{
closed = 1;
nodes = (
"125 637 LINE {name = hr00;}",
"253 637 LINE",
"253 387 LINE",
"125 387 LINE",
"125 -3 LINE",
"387 -3 LINE",
"387 125 LINE",
"637 125 LINE",
"637 -3 LINE",
"899 -3 LINE",
"899 387 LINE",
"771 387 LINE",
"771 637 LINE",
"899 637 LINE",
"899 771 LINE",
"771 771 LINE",
"771 899 LINE",
"253 899 LINE",
"253 771 LINE",
"125 771 LINE"
);
},
{
closed = 1;
nodes = (
"637 643 LINE",
"387 643 LINE",
"387 765 LINE",
"637 765 LINE"
);
},
{
closed = 1;
nodes = (
"387 381 LINE",
"637 381 LINE",
"637 259 LINE",
"387 259 LINE"
);
}
);
};
components = (
{
name = A.case;
},
{
name = ring;
}
);
layerId = "B2CED426-8D3E-4D4E-926E-917DB7E3651C";
width = 1024;
}
);
unicode = 00C5;
userData = {
com.typemytype.robofont.mark = (
0.967,
0.6,
1,
1
);
};
},
{
color = 6;
glyphname = Atilde;
layers = (
{
background = {
paths = (
{
closed = 1;
nodes = (
"765 771 LINE {name = hr00;}",
"643 771 LINE",
"643 899 LINE",
"253 899 LINE",
"253 771 LINE",
"125 771 LINE",
"125 637 LINE",
"381 637 LINE",
"381 515 LINE",
"253 515 LINE",
"253 387 LINE",
"125 387 LINE",
"125 -3 LINE",
"387 -3 LINE",
"387 125 LINE",
"637 125 LINE",
"637 -3 LINE",
"899 -3 LINE",
"899 387 LINE",
"771 387 LINE",
"771 515 LINE",
"643 515 LINE",
"643 637 LINE",
"899 637 LINE",
"899 765 LINE",
"1027 765 LINE",
"1027 899 LINE",
"765 899 LINE"
);
},
{
closed = 1;
nodes = (
"387 381 LINE",
"637 381 LINE",
"637 259 LINE",
"387 259 LINE"
);
},
{
closed = 1;
nodes = (
"387 643 LINE",
"387 765 LINE",
"509 765 LINE",
"509 643 LINE"
);
}
);
};
components = (
{
name = A.case;
},
{
name = tilde;
}
);
layerId = "511DE76B-C93C-4D1E-A4F3-1BF977EE06C9";
width = 1024;
},
{
background = {
paths = (
{
closed = 1;
nodes = (
"765 771 LINE {name = hr00;}",
"643 771 LINE",
"643 899 LINE",
"253 899 LINE",
"253 771 LINE",
"125 771 LINE",
"125 637 LINE",
"381 637 LINE",
"381 515 LINE",
"253 515 LINE",
"253 387 LINE",
"125 387 LINE",
"125 -3 LINE",
"387 -3 LINE",
"387 125 LINE",
"637 125 LINE",
"637 -3 LINE",
"899 -3 LINE",
"899 387 LINE",
"771 387 LINE",
"771 515 LINE",
"643 515 LINE",
"643 637 LINE",
"899 637 LINE",
"899 765 LINE",
"1027 765 LINE",
"1027 899 LINE",
"765 899 LINE"
);
},
{
closed = 1;
nodes = (
"387 381 LINE",
"637 381 LINE",
"637 259 LINE",
"387 259 LINE"
);
},
{
closed = 1;
nodes = (
"387 643 LINE",
"387 765 LINE",
"509 765 LINE",
"509 643 LINE"
);
}
);
};
components = (
{
name = A.case;
},
{
name = tilde;
}
);
layerId = "A1CF3A9E-1F49-4701-AF3E-F0E694793914";
width = 1024;
},
{
background = {
paths = (
{
closed = 1;
nodes = (
"765 771 LINE {name = hr00;}",
"643 771 LINE",
"643 899 LINE",
"253 899 LINE",
"253 771 LINE",
"125 771 LINE",
"125 637 LINE",
"381 637 LINE",
"381 515 LINE",
"253 515 LINE",
"253 387 LINE",
"125 387 LINE",
"125 -3 LINE",
"387 -3 LINE",
"387 125 LINE",
"637 125 LINE",
"637 -3 LINE",
"899 -3 LINE",
"899 387 LINE",
"771 387 LINE",
"771 515 LINE",
"643 515 LINE",
"643 637 LINE",
"899 637 LINE",
"899 765 LINE",
"1027 765 LINE",
"1027 899 LINE",
"765 899 LINE"
);
},
{
closed = 1;
nodes = (
"387 381 LINE",
"637 381 LINE",
"637 259 LINE",
"387 259 LINE"
);
},
{
closed = 1;
nodes = (
"387 643 LINE",
"387 765 LINE",
"509 765 LINE",
"509 643 LINE"
);
}
);
};
components = (
{
name = A.case;
},
{
name = tilde;
}
);
layerId = "93054D9F-9072-4363-B5A9-8BAB03B66C21";
width = 1024;
},
{
background = {
paths = (
{
closed = 1;
nodes = (
"765 771 LINE {name = hr00;}",
"643 771 LINE",
"643 899 LINE",
"253 899 LINE",
"253 771 LINE",
"125 771 LINE",
"125 637 LINE",
"381 637 LINE",
"381 515 LINE",
"253 515 LINE",
"253 387 LINE",
"125 387 LINE",
"125 -3 LINE",
"387 -3 LINE",
"387 125 LINE",
"637 125 LINE",
"637 -3 LINE",
"899 -3 LINE",
"899 387 LINE",
"771 387 LINE",
"771 515 LINE",
"643 515 LINE",
"643 637 LINE",
"899 637 LINE",
"899 765 LINE",
"1027 765 LINE",
"1027 899 LINE",
"765 899 LINE"
);
},
{
closed = 1;
nodes = (
"387 381 LINE",
"637 381 LINE",
"637 259 LINE",
"387 259 LINE"
);
},
{
closed = 1;
nodes = (
"387 643 LINE",
"387 765 LINE",
"509 765 LINE",
"509 643 LINE"
);
}
);
};
components = (
{
name = A.case;
},
{
name = tilde;
}
);
layerId = "B2CED426-8D3E-4D4E-926E-917DB7E3651C";
width = 1024;
}
);
unicode = 00C3;
userData = {
com.typemytype.robofont.mark = (
0.967,
0.6,
1,
1
);
};
},
{
color = 4;
glyphname = AE;
layers = (
{
background = {
paths = (
{
closed = 1;
nodes = (
"387 381 LINE {name = hr00;}",
"509 381 LINE",
"509 -3 LINE",
"1027 -3 LINE",
"1027 131 LINE",
"771 131 LINE",
"771 381 LINE",
"899 381 LINE",
"899 515 LINE",
"771 515 LINE",
"771 765 LINE",
"1027 765 LINE",
"1027 899 LINE",
"381 899 LINE",
"381 771 LINE",
"253 771 LINE",
"253 643 LINE",
"125 643 LINE",
"125 -3 LINE",
"387 -3 LINE"
);
},
{
closed = 1;
nodes = (
"387 637 LINE",
"509 637 LINE",
"509 515 LINE",
"387 515 LINE"
);
}
);
};
components = (
{
name = pixel.2;
transform = "{1, 0, 0, 1, 128, 0}";
},
{
name = pixel.4;
transform = "{1, 0, 0, 1, 512, 0}";
},
{
name = pixel.2;
transform = "{1, 0, 0, 1, 128, 128}";
},
{
name = pixel.2;
transform = "{1, 0, 0, 1, 512, 128}";
},
{
name = pixel.2;
transform = "{1, 0, 0, 1, 128, 256}";
},
{
name = pixel.2;
transform = "{1, 0, 0, 1, 512, 256}";
},
{
name = pixel.6;
transform = "{1, 0, 0, 1, 128, 384}";
},
{
name = pixel.2;
transform = "{1, 0, 0, 1, 128, 512}";
},
{
name = pixel.2;
transform = "{1, 0, 0, 1, 512, 512}";
},
{
name = pixel.4;
transform = "{1, 0, 0, 1, 256, 640}";
},
{
name = pixel.5;
transform = "{1, 0, 0, 1, 384, 768}";
}
);
layerId = "511DE76B-C93C-4D1E-A4F3-1BF977EE06C9";
width = 1024;
},
{
background = {
paths = (
{
closed = 1;
nodes = (
"387 381 LINE {name = hr00;}",
"509 381 LINE",
"509 -3 LINE",
"1027 -3 LINE",
"1027 131 LINE",
"771 131 LINE",
"771 381 LINE",
"899 381 LINE",
"899 515 LINE",
"771 515 LINE",
"771 765 LINE",
"1027 765 LINE",
"1027 899 LINE",
"381 899 LINE",
"381 771 LINE",
"253 771 LINE",
"253 643 LINE",
"125 643 LINE",
"125 -3 LINE",
"387 -3 LINE"
);
},
{
closed = 1;
nodes = (
"387 637 LINE",
"509 637 LINE",
"509 515 LINE",
"387 515 LINE"
);
}
);
};
components = (
{
name = pixel.2;
transform = "{1, 0, 0, 1, 128, 0}";
},
{
name = pixel.4;
transform = "{1, 0, 0, 1, 512, 0}";
},
{
name = pixel.2;
transform = "{1, 0, 0, 1, 128, 128}";
},
{
name = pixel.2;
transform = "{1, 0, 0, 1, 512, 128}";
},
{
name = pixel.2;
transform = "{1, 0, 0, 1, 128, 256}";
},
{
name = pixel.2;
transform = "{1, 0, 0, 1, 512, 256}";
},
{
name = pixel.6;
transform = "{1, 0, 0, 1, 128, 384}";
},
{
name = pixel.2;
transform = "{1, 0, 0, 1, 128, 512}";
},
{
name = pixel.2;
transform = "{1, 0, 0, 1, 512, 512}";
},
{
name = pixel.4;
transform = "{1, 0, 0, 1, 256, 640}";
},
{
name = pixel.5;
transform = "{1, 0, 0, 1, 384, 768}";
}
);
layerId = "A1CF3A9E-1F49-4701-AF3E-F0E694793914";
width = 1024;
},
{
background = {
paths = (
{
closed = 1;
nodes = (
"387 381 LINE {name = hr00;}",
"509 381 LINE",
"509 -3 LINE",
"1027 -3 LINE",
"1027 131 LINE",
"771 131 LINE",
"771 381 LINE",
"899 381 LINE",
"899 515 LINE",
"771 515 LINE",
"771 765 LINE",
"1027 765 LINE",
"1027 899 LINE",
"381 899 LINE",
"381 771 LINE",
"253 771 LINE",
"253 643 LINE",
"125 643 LINE",
"125 -3 LINE",
"387 -3 LINE"
);
},
{
closed = 1;
nodes = (
"387 637 LINE",
"509 637 LINE",
"509 515 LINE",
"387 515 LINE"
);
}
);
};
components = (
{
name = pixel.2;
transform = "{1, 0, 0, 1, 128, 0}";
},
{
name = pixel.4;
transform = "{1, 0, 0, 1, 512, 0}";
},
{
name = pixel.2;
transform = "{1, 0, 0, 1, 128, 128}";
},
{
name = pixel.2;
transform = "{1, 0, 0, 1, 512, 128}";
},
{
name = pixel.2;
transform = "{1, 0, 0, 1, 128, 256}";
},
{
name = pixel.2;
transform = "{1, 0, 0, 1, 512, 256}";
},
{
name = pixel.6;
transform = "{1, 0, 0, 1, 128, 384}";
},
{
name = pixel.2;
transform = "{1, 0, 0, 1, 128, 512}";
},
{
name = pixel.2;
transform = "{1, 0, 0, 1, 512, 512}";
},
{
name = pixel.4;
transform = "{1, 0, 0, 1, 256, 640}";
},
{
name = pixel.5;
transform = "{1, 0, 0, 1, 384, 768}";
}
);
layerId = "93054D9F-9072-4363-B5A9-8BAB03B66C21";
width = 1024;
},
{
background = {
paths = (
{
closed = 1;
nodes = (
"387 381 LINE {name = hr00;}",
"509 381 LINE",
"509 -3 LINE",
"1027 -3 LINE",
"1027 131 LINE",
"771 131 LINE",
"771 381 LINE",
"899 381 LINE",
"899 515 LINE",
"771 515 LINE",
"771 765 LINE",
"1027 765 LINE",
"1027 899 LINE",
"381 899 LINE",
"381 771 LINE",
"253 771 LINE",
"253 643 LINE",
"125 643 LINE",
"125 -3 LINE",
"387 -3 LINE"
);
},
{
closed = 1;
nodes = (
"387 637 LINE",
"509 637 LINE",
"509 515 LINE",
"387 515 LINE"
);
}
);
};
components = (
{
name = pixel.2;
transform = "{1, 0, 0, 1, 128, 0}";
},
{
name = pixel.4;
transform = "{1, 0, 0, 1, 512, 0}";
},
{
name = pixel.2;
transform = "{1, 0, 0, 1, 128, 128}";
},
{
name = pixel.2;
transform = "{1, 0, 0, 1, 512, 128}";
},
{
name = pixel.2;
transform = "{1, 0, 0, 1, 128, 256}";
},
{
name = pixel.2;
transform = "{1, 0, 0, 1, 512, 256}";
},
{
name = pixel.6;
transform = "{1, 0, 0, 1, 128, 384}";
},
{
name = pixel.2;
transform = "{1, 0, 0, 1, 128, 512}";
},
{
name = pixel.2;
transform = "{1, 0, 0, 1, 512, 512}";
},
{
name = pixel.4;
transform = "{1, 0, 0, 1, 256, 640}";
},
{
name = pixel.5;
transform = "{1, 0, 0, 1, 384, 768}";
}
);
layerId = "B2CED426-8D3E-4D4E-926E-917DB7E3651C";
width = 1024;
}
);
unicode = 00C6;
userData = {
com.typemytype.robofont.mark = (
0.967,
0.6,
1,
1
);
};
},
{
color = 4;
glyphname = B;
layers = (
{
background = {
paths = (
{
closed = 1;
nodes = (
"125 -3 LINE {name = hr00;}",
"771 -3 LINE",
"771 125 LINE",
"899 125 LINE",
"899 387 LINE",
"771 387 LINE",
"771 509 LINE",
"899 509 LINE",
"899 771 LINE",
"771 771 LINE",
"771 899 LINE",
"125 899 LINE"
);
},
{
closed = 1;
nodes = (
"637 131 LINE",
"387 131 LINE",
"387 381 LINE",
"637 381 LINE"
);
},
{
closed = 1;
nodes = (
"387 765 LINE",
"637 765 LINE",
"637 515 LINE",
"387 515 LINE"
);
}
);
};
components = (
{
name = pixel.5;
transform = "{1, 0, 0, 1, 128, 0}";
},
{
name = pixel.2;
transform = "{1, 0, 0, 1, 128, 128}";
},
{
name = pixel.2;
transform = "{1, 0, 0, 1, 640, 128}";
},
{
name = pixel.2;
transform = "{1, 0, 0, 1, 128, 256}";
},
{
name = pixel.2;
transform = "{1, 0, 0, 1, 640, 256}";
},
{
name = pixel.5;
transform = "{1, 0, 0, 1, 128, 384}";
},
{
name = pixel.2;
transform = "{1, 0, 0, 1, 128, 512}";
},
{
name = pixel.2;
transform = "{1, 0, 0, 1, 640, 512}";
},
{
name = pixel.2;
transform = "{1, 0, 0, 1, 128, 640}";
},
{
name = pixel.2;
transform = "{1, 0, 0, 1, 640, 640}";
},
{
name = pixel.5;
transform = "{1, 0, 0, 1, 128, 768}";
}
);
layerId = "511DE76B-C93C-4D1E-A4F3-1BF977EE06C9";
width = 1024;
},
{
background = {
paths = (
{
closed = 1;
nodes = (
"125 -3 LINE {name = hr00;}",
"771 -3 LINE",
"771 125 LINE",
"899 125 LINE",
"899 387 LINE",
"771 387 LINE",
"771 509 LINE",
"899 509 LINE",
"899 771 LINE",
"771 771 LINE",
"771 899 LINE",
"125 899 LINE"
);
},
{
closed = 1;
nodes = (
"637 131 LINE",
"387 131 LINE",
"387 381 LINE",
"637 381 LINE"
);
},
{
closed = 1;
nodes = (
"387 765 LINE",
"637 765 LINE",
"637 515 LINE",
"387 515 LINE"
);
}
);
};
components = (
{
name = pixel.5;
transform = "{1, 0, 0, 1, 128, 0}";
},
{
name = pixel.2;
transform = "{1, 0, 0, 1, 128, 128}";
},
{
name = pixel.2;
transform = "{1, 0, 0, 1, 640, 128}";
},
{
name = pixel.2;
transform = "{1, 0, 0, 1, 128, 256}";
},
{
name = pixel.2;
transform = "{1, 0, 0, 1, 640, 256}";
},
{
name = pixel.5;
transform = "{1, 0, 0, 1, 128, 384}";
},
{
name = pixel.2;
transform = "{1, 0, 0, 1, 128, 512}";
},
{
name = pixel.2;
transform = "{1, 0, 0, 1, 640, 512}";
},
{
name = pixel.2;
transform = "{1, 0, 0, 1, 128, 640}";
},
{
name = pixel.2;
transform = "{1, 0, 0, 1, 640, 640}";
},
{
name = pixel.5;
transform = "{1, 0, 0, 1, 128, 768}";
}
);
layerId = "A1CF3A9E-1F49-4701-AF3E-F0E694793914";
width = 1024;
},
{
background = {
paths = (
{
closed = 1;
nodes = (
"125 -3 LINE {name = hr00;}",
"771 -3 LINE",
"771 125 LINE",
"899 125 LINE",
"899 387 LINE",
"771 387 LINE",
"771 509 LINE",
"899 509 LINE",
"899 771 LINE",
"771 771 LINE",
"771 899 LINE",
"125 899 LINE"
);
},
{
closed = 1;
nodes = (
"637 131 LINE",
"387 131 LINE",
"387 381 LINE",
"637 381 LINE"
);
},
{
closed = 1;
nodes = (
"387 765 LINE",
"637 765 LINE",
"637 515 LINE",
"387 515 LINE"
);
}
);
};
components = (
{
name = pixel.5;
transform = "{1, 0, 0, 1, 128, 0}";
},
{
name = pixel.2;
transform = "{1, 0, 0, 1, 128, 128}";
},
{
name = pixel.2;
transform = "{1, 0, 0, 1, 640, 128}";
},
{
name = pixel.2;
transform = "{1, 0, 0, 1, 128, 256}";
},
{
name = pixel.2;
transform = "{1, 0, 0, 1, 640, 256}";
},
{
name = pixel.5;
transform = "{1, 0, 0, 1, 128, 384}";
},
{
name = pixel.2;
transform = "{1, 0, 0, 1, 128, 512}";
},
{
name = pixel.2;
transform = "{1, 0, 0, 1, 640, 512}";
},
{
name = pixel.2;
transform = "{1, 0, 0, 1, 128, 640}";
},
{
name = pixel.2;
transform = "{1, 0, 0, 1, 640, 640}";
},
{
name = pixel.5;
transform = "{1, 0, 0, 1, 128, 768}";
}
);
layerId = "93054D9F-9072-4363-B5A9-8BAB03B66C21";
width = 1024;
},
{
background = {
paths = (
{
closed = 1;
nodes = (
"125 -3 LINE {name = hr00;}",
"771 -3 LINE",
"771 125 LINE",
"899 125 LINE",
"899 387 LINE",
"771 387 LINE",
"771 509 LINE",
"899 509 LINE",
"899 771 LINE",
"771 771 LINE",
"771 899 LINE",
"125 899 LINE"
);
},
{
closed = 1;
nodes = (
"637 131 LINE",
"387 131 LINE",
"387 381 LINE",
"637 381 LINE"
);
},
{
closed = 1;
nodes = (
"387 765 LINE",
"637 765 LINE",
"637 515 LINE",
"387 515 LINE"
);
}
);
};
components = (
{
name = pixel.5;
transform = "{1, 0, 0, 1, 128, 0}";
},
{
name = pixel.2;
transform = "{1, 0, 0, 1, 128, 128}";
},
{
name = pixel.2;
transform = "{1, 0, 0, 1, 640, 128}";
},
{
name = pixel.2;
transform = "{1, 0, 0, 1, 128, 256}";
},
{
name = pixel.2;
transform = "{1, 0, 0, 1, 640, 256}";
},
{
name = pixel.5;
transform = "{1, 0, 0, 1, 128, 384}";
},
{
name = pixel.2;
transform = "{1, 0, 0, 1, 128, 512}";
},
{
name = pixel.2;
transform = "{1, 0, 0, 1, 640, 512}";
},
{
name = pixel.2;
transform = "{1, 0, 0, 1, 128, 640}";
},
{
name = pixel.2;
transform = "{1, 0, 0, 1, 640, 640}";
},
{
name = pixel.5;
transform = "{1, 0, 0, 1, 128, 768}";
}
);
layerId = "B2CED426-8D3E-4D4E-926E-917DB7E3651C";
width = 1024;
}
);
unicode = 0042;
userData = {
com.typemytype.robofont.mark = (
1,
0.6,
0.6,
1
);
};
},
{
color = 4;
glyphname = C;
layers = (
{
background = {
paths = (
{
closed = 1;
nodes = (
"637 637 LINE {name = hr00;}",
"899 637 LINE",
"899 771 LINE",
"771 771 LINE",
"771 899 LINE",
"253 899 LINE",
"253 771 LINE",
"125 771 LINE",
"125 125 LINE",
"253 125 LINE",
"253 -3 LINE",
"771 -3 LINE",
"771 125 LINE",
"899 125 LINE",
"899 259 LINE",
"637 259 LINE",
"637 131 LINE",
"387 131 LINE",
"387 765 LINE",
"637 765 LINE"
);
}
);
};
components = (
{
name = pixel.4;
transform = "{1, 0, 0, 1, 256, 0}";
},
{
name = pixel.2;
transform = "{1, 0, 0, 1, 128, 128}";
},
{
name = pixel.2;
transform = "{1, 0, 0, 1, 640, 128}";
},
{
name = pixel.2;
transform = "{1, 0, 0, 1, 128, 256}";
},
{
name = pixel.2;
transform = "{1, 0, 0, 1, 128, 384}";
},
{
name = pixel.2;
transform = "{1, 0, 0, 1, 128, 512}";
},
{
name = pixel.2;
transform = "{1, 0, 0, 1, 128, 640}";
},
{
name = pixel.2;
transform = "{1, 0, 0, 1, 640, 640}";
},
{
name = pixel.4;
transform = "{1, 0, 0, 1, 256, 768}";
}
);
layerId = "511DE76B-C93C-4D1E-A4F3-1BF977EE06C9";
width = 1024;
},
{
background = {
paths = (
{
closed = 1;
nodes = (
"637 637 LINE {name = hr00;}",
"899 637 LINE",
"899 771 LINE",
"771 771 LINE",
"771 899 LINE",
"253 899 LINE",
"253 771 LINE",
"125 771 LINE",
"125 125 LINE",
"253 125 LINE",
"253 -3 LINE",
"771 -3 LINE",
"771 125 LINE",
"899 125 LINE",
"899 259 LINE",
"637 259 LINE",
"637 131 LINE",
"387 131 LINE",
"387 765 LINE",
"637 765 LINE"
);
}
);
};
components = (
{
name = pixel.4;
transform = "{1, 0, 0, 1, 256, 0}";
},
{
name = pixel.2;
transform = "{1, 0, 0, 1, 128, 128}";
},
{
name = pixel.2;
transform = "{1, 0, 0, 1, 640, 128}";
},
{
name = pixel.2;
transform = "{1, 0, 0, 1, 128, 256}";
},
{
name = pixel.2;
transform = "{1, 0, 0, 1, 128, 384}";
},
{
name = pixel.2;
transform = "{1, 0, 0, 1, 128, 512}";
},
{
name = pixel.2;
transform = "{1, 0, 0, 1, 128, 640}";
},
{
name = pixel.2;
transform = "{1, 0, 0, 1, 640, 640}";
},
{
name = pixel.4;
transform = "{1, 0, 0, 1, 256, 768}";
}
);
layerId = "A1CF3A9E-1F49-4701-AF3E-F0E694793914";
width = 1024;
},
{
background = {
paths = (
{
closed = 1;
nodes = (
"637 637 LINE {name = hr00;}",
"899 637 LINE",
"899 771 LINE",
"771 771 LINE",
"771 899 LINE",
"253 899 LINE",
"253 771 LINE",
"125 771 LINE",
"125 125 LINE",
"253 125 LINE",
"253 -3 LINE",
"771 -3 LINE",
"771 125 LINE",
"899 125 LINE",
"899 259 LINE",
"637 259 LINE",
"637 131 LINE",
"387 131 LINE",
"387 765 LINE",
"637 765 LINE"
);
}
);
};
components = (
{
name = pixel.4;
transform = "{1, 0, 0, 1, 256, 0}";
},
{
name = pixel.2;
transform = "{1, 0, 0, 1, 128, 128}";
},
{
name = pixel.2;
transform = "{1, 0, 0, 1, 640, 128}";
},
{
name = pixel.2;
transform = "{1, 0, 0, 1, 128, 256}";
},
{
name = pixel.2;
transform = "{1, 0, 0, 1, 128, 384}";
},
{
name = pixel.2;
transform = "{1, 0, 0, 1, 128, 512}";
},
{
name = pixel.2;
transform = "{1, 0, 0, 1, 128, 640}";
},
{
name = pixel.2;
transform = "{1, 0, 0, 1, 640, 640}";
},
{
name = pixel.4;
transform = "{1, 0, 0, 1, 256, 768}";
}
);
layerId = "93054D9F-9072-4363-B5A9-8BAB03B66C21";
width = 1024;
},
{
background = {
paths = (
{
closed = 1;
nodes = (
"637 637 LINE {name = hr00;}",
"899 637 LINE",
"899 771 LINE",
"771 771 LINE",
"771 899 LINE",
"253 899 LINE",
"253 771 LINE",
"125 771 LINE",
"125 125 LINE",
"253 125 LINE",
"253 -3 LINE",
"771 -3 LINE",
"771 125 LINE",
"899 125 LINE",
"899 259 LINE",
"637 259 LINE",
"637 131 LINE",
"387 131 LINE",
"387 765 LINE",
"637 765 LINE"
);
}
);
};
components = (
{
name = pixel.4;
transform = "{1, 0, 0, 1, 256, 0}";
},
{
name = pixel.2;
transform = "{1, 0, 0, 1, 128, 128}";
},
{
name = pixel.2;
transform = "{1, 0, 0, 1, 640, 128}";
},
{
name = pixel.2;
transform = "{1, 0, 0, 1, 128, 256}";
},
{
name = pixel.2;
transform = "{1, 0, 0, 1, 128, 384}";
},
{
name = pixel.2;
transform = "{1, 0, 0, 1, 128, 512}";
},
{
name = pixel.2;
transform = "{1, 0, 0, 1, 128, 640}";
},
{
name = pixel.2;
transform = "{1, 0, 0, 1, 640, 640}";
},
{
name = pixel.4;
transform = "{1, 0, 0, 1, 256, 768}";
}
);
layerId = "B2CED426-8D3E-4D4E-926E-917DB7E3651C";
width = 1024;
}
);
unicode = 0043;
userData = {
com.typemytype.robofont.mark = (
1,
0.6,
0.6,
1
);
};
},
{
color = 4;
glyphname = Ccedilla;
layers = (
{
background = {
paths = (
{
closed = 1;
nodes = (
"637 637 LINE {name = hr00;}",
"899 637 LINE",
"899 771 LINE",
"771 771 LINE",
"771 899 LINE",
"253 899 LINE",
"253 771 LINE",
"125 771 LINE",
"125 253 LINE",
"253 253 LINE",
"253 125 LINE",
"381 125 LINE",
"381 3 LINE",
"253 3 LINE",
"253 -131 LINE",
"515 -131 LINE",
"515 -3 LINE",
"643 -3 LINE",
"643 125 LINE",
"771 125 LINE",
"771 253 LINE",
"899 253 LINE",
"899 387 LINE",
"637 387 LINE",
"637 259 LINE",
"387 259 LINE",
"387 765 LINE",
"637 765 LINE"
);
}
);
};
components = (
{
name = pixel.2;
transform = "{1, 0, 0, 1, 256, -128}";
},
{
name = pixel.2;
transform = "{1, 0, 0, 1, 384, 0}";
},
{
name = pixel.4;
transform = "{1, 0, 0, 1, 256, 128}";
},
{
name = pixel.2;
transform = "{1, 0, 0, 1, 128, 256}";
},
{
name = pixel.2;
transform = "{1, 0, 0, 1, 640, 256}";
},
{
name = pixel.2;
transform = "{1, 0, 0, 1, 128, 384}";
},
{
name = pixel.2;
transform = "{1, 0, 0, 1, 128, 512}";
},
{
name = pixel.2;
transform = "{1, 0, 0, 1, 128, 640}";
},
{
name = pixel.2;
transform = "{1, 0, 0, 1, 640, 640}";
},
{
name = pixel.4;
transform = "{1, 0, 0, 1, 256, 768}";
}
);
layerId = "511DE76B-C93C-4D1E-A4F3-1BF977EE06C9";
width = 1024;
},
{
background = {
paths = (
{
closed = 1;
nodes = (
"637 637 LINE {name = hr00;}",
"899 637 LINE",
"899 771 LINE",
"771 771 LINE",
"771 899 LINE",
"253 899 LINE",
"253 771 LINE",
"125 771 LINE",
"125 253 LINE",
"253 253 LINE",
"253 125 LINE",
"381 125 LINE",
"381 3 LINE",
"253 3 LINE",
"253 -131 LINE",
"515 -131 LINE",
"515 -3 LINE",
"643 -3 LINE",
"643 125 LINE",
"771 125 LINE",
"771 253 LINE",
"899 253 LINE",
"899 387 LINE",
"637 387 LINE",
"637 259 LINE",
"387 259 LINE",
"387 765 LINE",
"637 765 LINE"
);
}
);
};
components = (
{
name = pixel.2;
transform = "{1, 0, 0, 1, 256, -128}";
},
{
name = pixel.2;
transform = "{1, 0, 0, 1, 384, 0}";
},
{
name = pixel.4;
transform = "{1, 0, 0, 1, 256, 128}";
},
{
name = pixel.2;
transform = "{1, 0, 0, 1, 128, 256}";
},
{
name = pixel.2;
transform = "{1, 0, 0, 1, 640, 256}";
},
{
name = pixel.2;
transform = "{1, 0, 0, 1, 128, 384}";
},
{
name = pixel.2;
transform = "{1, 0, 0, 1, 128, 512}";
},
{
name = pixel.2;
transform = "{1, 0, 0, 1, 128, 640}";
},
{
name = pixel.2;
transform = "{1, 0, 0, 1, 640, 640}";
},
{
name = pixel.4;
transform = "{1, 0, 0, 1, 256, 768}";
}
);
layerId = "A1CF3A9E-1F49-4701-AF3E-F0E694793914";
width = 1024;
},
{
background = {
paths = (
{
closed = 1;
nodes = (
"637 637 LINE {name = hr00;}",
"899 637 LINE",
"899 771 LINE",
"771 771 LINE",
"771 899 LINE",
"253 899 LINE",
"253 771 LINE",
"125 771 LINE",
"125 253 LINE",
"253 253 LINE",
"253 125 LINE",
"381 125 LINE",
"381 3 LINE",
"253 3 LINE",
"253 -131 LINE",
"515 -131 LINE",
"515 -3 LINE",
"643 -3 LINE",
"643 125 LINE",
"771 125 LINE",
"771 253 LINE",
"899 253 LINE",
"899 387 LINE",
"637 387 LINE",
"637 259 LINE",
"387 259 LINE",
"387 765 LINE",
"637 765 LINE"
);
}
);
};
components = (
{
name = pixel.2;
transform = "{1, 0, 0, 1, 256, -128}";
},
{
name = pixel.2;
transform = "{1, 0, 0, 1, 384, 0}";
},
{
name = pixel.4;
transform = "{1, 0, 0, 1, 256, 128}";
},
{
name = pixel.2;
transform = "{1, 0, 0, 1, 128, 256}";
},
{
name = pixel.2;
transform = "{1, 0, 0, 1, 640, 256}";
},
{
name = pixel.2;
transform = "{1, 0, 0, 1, 128, 384}";
},
{
name = pixel.2;
transform = "{1, 0, 0, 1, 128, 512}";
},
{
name = pixel.2;
transform = "{1, 0, 0, 1, 128, 640}";
},
{
name = pixel.2;
transform = "{1, 0, 0, 1, 640, 640}";
},
{
name = pixel.4;
transform = "{1, 0, 0, 1, 256, 768}";
}
);
layerId = "93054D9F-9072-4363-B5A9-8BAB03B66C21";
width = 1024;
},
{
background = {
paths = (
{
closed = 1;
nodes = (
"637 637 LINE {name = hr00;}",
"899 637 LINE",
"899 771 LINE",
"771 771 LINE",
"771 899 LINE",
"253 899 LINE",
"253 771 LINE",
"125 771 LINE",
"125 253 LINE",
"253 253 LINE",
"253 125 LINE",
"381 125 LINE",
"381 3 LINE",
"253 3 LINE",
"253 -131 LINE",
"515 -131 LINE",
"515 -3 LINE",
"643 -3 LINE",
"643 125 LINE",
"771 125 LINE",
"771 253 LINE",
"899 253 LINE",
"899 387 LINE",
"637 387 LINE",
"637 259 LINE",
"387 259 LINE",
"387 765 LINE",
"637 765 LINE"
);
}
);
};
components = (
{
name = pixel.2;
transform = "{1, 0, 0, 1, 256, -128}";
},
{
name = pixel.2;
transform = "{1, 0, 0, 1, 384, 0}";
},
{
name = pixel.4;
transform = "{1, 0, 0, 1, 256, 128}";
},
{
name = pixel.2;
transform = "{1, 0, 0, 1, 128, 256}";
},
{
name = pixel.2;
transform = "{1, 0, 0, 1, 640, 256}";
},
{
name = pixel.2;
transform = "{1, 0, 0, 1, 128, 384}";
},
{
name = pixel.2;
transform = "{1, 0, 0, 1, 128, 512}";
},
{
name = pixel.2;
transform = "{1, 0, 0, 1, 128, 640}";
},
{
name = pixel.2;
transform = "{1, 0, 0, 1, 640, 640}";
},
{
name = pixel.4;
transform = "{1, 0, 0, 1, 256, 768}";
}
);
layerId = "B2CED426-8D3E-4D4E-926E-917DB7E3651C";
width = 1024;
}
);
unicode = 00C7;
userData = {
com.typemytype.robofont.mark = (
0.967,
0.6,
1,
1
);
};
},
{
color = 4;
glyphname = D;
layers = (
{
background = {
paths = (
{
closed = 1;
nodes = (
"125 -3 LINE {name = hr00;}",
"643 -3 LINE",
"643 125 LINE",
"771 125 LINE",
"771 253 LINE",
"899 253 LINE",
"899 643 LINE",
"771 643 LINE",
"771 771 LINE",
"643 771 LINE",
"643 899 LINE",
"125 899 LINE"
);
},
{
closed = 1;
nodes = (
"509 131 LINE",
"387 131 LINE",
"387 765 LINE",
"509 765 LINE",
"509 637 LINE",
"637 637 LINE",
"637 259 LINE",
"509 259 LINE"
);
}
);
};
components = (
{
name = pixel.4;
transform = "{1, 0, 0, 1, 128, 0}";
},
{
name = pixel.2;
transform = "{1, 0, 0, 1, 128, 128}";
},
{
name = pixel.2;
transform = "{1, 0, 0, 1, 512, 128}";
},
{
name = pixel.2;
transform = "{1, 0, 0, 1, 128, 256}";
},
{
name = pixel.2;
transform = "{1, 0, 0, 1, 640, 256}";
},
{
name = pixel.2;
transform = "{1, 0, 0, 1, 128, 384}";
},
{
name = pixel.2;
transform = "{1, 0, 0, 1, 640, 384}";
},
{
name = pixel.2;
transform = "{1, 0, 0, 1, 128, 512}";
},
{
name = pixel.2;
transform = "{1, 0, 0, 1, 640, 512}";
},
{
name = pixel.2;
transform = "{1, 0, 0, 1, 128, 640}";
},
{
name = pixel.2;
transform = "{1, 0, 0, 1, 512, 640}";
},
{
name = pixel.4;
transform = "{1, 0, 0, 1, 128, 768}";
}
);
layerId = "511DE76B-C93C-4D1E-A4F3-1BF977EE06C9";
width = 1024;
},
{
background = {
paths = (
{
closed = 1;
nodes = (
"125 -3 LINE {name = hr00;}",
"643 -3 LINE",
"643 125 LINE",
"771 125 LINE",
"771 253 LINE",
"899 253 LINE",
"899 643 LINE",
"771 643 LINE",
"771 771 LINE",
"643 771 LINE",
"643 899 LINE",
"125 899 LINE"
);
},
{
closed = 1;
nodes = (
"509 131 LINE",
"387 131 LINE",
"387 765 LINE",
"509 765 LINE",
"509 637 LINE",
"637 637 LINE",
"637 259 LINE",
"509 259 LINE"
);
}
);
};
components = (
{
name = pixel.4;
transform = "{1, 0, 0, 1, 128, 0}";
},
{
name = pixel.2;
transform = "{1, 0, 0, 1, 128, 128}";
},
{
name = pixel.2;
transform = "{1, 0, 0, 1, 512, 128}";
},
{
name = pixel.2;
transform = "{1, 0, 0, 1, 128, 256}";
},
{
name = pixel.2;
transform = "{1, 0, 0, 1, 640, 256}";
},
{
name = pixel.2;
transform = "{1, 0, 0, 1, 128, 384}";
},
{
name = pixel.2;
transform = "{1, 0, 0, 1, 640, 384}";
},
{
name = pixel.2;
transform = "{1, 0, 0, 1, 128, 512}";
},
{
name = pixel.2;
transform = "{1, 0, 0, 1, 640, 512}";
},
{
name = pixel.2;
transform = "{1, 0, 0, 1, 128, 640}";
},
{
name = pixel.2;
transform = "{1, 0, 0, 1, 512, 640}";
},
{
name = pixel.4;
transform = "{1, 0, 0, 1, 128, 768}";
}
);
layerId = "A1CF3A9E-1F49-4701-AF3E-F0E694793914";
width = 1024;
},
{
background = {
paths = (
{
closed = 1;
nodes = (
"125 -3 LINE {name = hr00;}",
"643 -3 LINE",
"643 125 LINE",
"771 125 LINE",
"771 253 LINE",
"899 253 LINE",
"899 643 LINE",
"771 643 LINE",
"771 771 LINE",
"643 771 LINE",
"643 899 LINE",
"125 899 LINE"
);
},
{
closed = 1;
nodes = (
"509 131 LINE",
"387 131 LINE",
"387 765 LINE",
"509 765 LINE",
"509 637 LINE",
"637 637 LINE",
"637 259 LINE",
"509 259 LINE"
);
}
);
};
components = (
{
name = pixel.4;
transform = "{1, 0, 0, 1, 128, 0}";
},
{
name = pixel.2;
transform = "{1, 0, 0, 1, 128, 128}";
},
{
name = pixel.2;
transform = "{1, 0, 0, 1, 512, 128}";
},
{
name = pixel.2;
transform = "{1, 0, 0, 1, 128, 256}";
},
{
name = pixel.2;
transform = "{1, 0, 0, 1, 640, 256}";
},
{
name = pixel.2;
transform = "{1, 0, 0, 1, 128, 384}";
},
{
name = pixel.2;
transform = "{1, 0, 0, 1, 640, 384}";
},
{
name = pixel.2;
transform = "{1, 0, 0, 1, 128, 512}";
},
{
name = pixel.2;
transform = "{1, 0, 0, 1, 640, 512}";
},
{
name = pixel.2;
transform = "{1, 0, 0, 1, 128, 640}";
},
{
name = pixel.2;
transform = "{1, 0, 0, 1, 512, 640}";
},
{
name = pixel.4;
transform = "{1, 0, 0, 1, 128, 768}";
}
);
layerId = "93054D9F-9072-4363-B5A9-8BAB03B66C21";
width = 1024;
},
{
background = {
paths = (
{
closed = 1;
nodes = (
"125 -3 LINE {name = hr00;}",
"643 -3 LINE",
"643 125 LINE",
"771 125 LINE",
"771 253 LINE",
"899 253 LINE",
"899 643 LINE",
"771 643 LINE",
"771 771 LINE",
"643 771 LINE",
"643 899 LINE",
"125 899 LINE"
);
},
{
closed = 1;
nodes = (
"509 131 LINE",
"387 131 LINE",
"387 765 LINE",
"509 765 LINE",
"509 637 LINE",
"637 637 LINE",
"637 259 LINE",
"509 259 LINE"
);
}
);
};
components = (
{
name = pixel.4;
transform = "{1, 0, 0, 1, 128, 0}";
},
{
name = pixel.2;
transform = "{1, 0, 0, 1, 128, 128}";
},
{
name = pixel.2;
transform = "{1, 0, 0, 1, 512, 128}";
},
{
name = pixel.2;
transform = "{1, 0, 0, 1, 128, 256}";
},
{
name = pixel.2;
transform = "{1, 0, 0, 1, 640, 256}";
},
{
name = pixel.2;
transform = "{1, 0, 0, 1, 128, 384}";
},
{
name = pixel.2;
transform = "{1, 0, 0, 1, 640, 384}";
},
{
name = pixel.2;
transform = "{1, 0, 0, 1, 128, 512}";
},
{
name = pixel.2;
transform = "{1, 0, 0, 1, 640, 512}";
},
{
name = pixel.2;
transform = "{1, 0, 0, 1, 128, 640}";
},
{
name = pixel.2;
transform = "{1, 0, 0, 1, 512, 640}";
},
{
name = pixel.4;
transform = "{1, 0, 0, 1, 128, 768}";
}
);
layerId = "B2CED426-8D3E-4D4E-926E-917DB7E3651C";
width = 1024;
}
);
unicode = 0044;
userData = {
com.typemytype.robofont.mark = (
1,
0.6,
0.6,
1
);
};
},
{
color = 4;
glyphname = Eth;
layers = (
{
background = {
paths = (
{
closed = 1;
nodes = (
"-3 381 LINE {name = hr00;}",
"125 381 LINE",
"125 -3 LINE",
"643 -3 LINE",
"643 125 LINE",
"771 125 LINE",
"771 253 LINE",
"899 253 LINE",
"899 643 LINE",
"771 643 LINE",
"771 771 LINE",
"643 771 LINE",
"643 899 LINE",
"125 899 LINE",
"125 515 LINE",
"-3 515 LINE"
);
},
{
closed = 1;
nodes = (
"387 131 LINE",
"387 381 LINE",
"515 381 LINE",
"515 515 LINE",
"387 515 LINE",
"387 765 LINE",
"509 765 LINE",
"509 637 LINE",
"637 637 LINE",
"637 259 LINE",
"509 259 LINE",
"509 131 LINE"
);
}
);
};
components = (
{
name = pixel.4;
transform = "{1, 0, 0, 1, 128, 0}";
},
{
name = pixel.2;
transform = "{1, 0, 0, 1, 128, 128}";
},
{
name = pixel.2;
transform = "{1, 0, 0, 1, 512, 128}";
},
{
name = pixel.2;
transform = "{1, 0, 0, 1, 128, 256}";
},
{
name = pixel.2;
transform = "{1, 0, 0, 1, 640, 256}";
},
{
name = pixel.4;
transform = "{1, 0, 0, 1, 0, 384}";
},
{
name = pixel.2;
transform = "{1, 0, 0, 1, 640, 384}";
},
{
name = pixel.2;
transform = "{1, 0, 0, 1, 128, 512}";
},
{
name = pixel.2;
transform = "{1, 0, 0, 1, 640, 512}";
},
{
name = pixel.2;
transform = "{1, 0, 0, 1, 128, 640}";
},
{
name = pixel.2;
transform = "{1, 0, 0, 1, 512, 640}";
},
{
name = pixel.4;
transform = "{1, 0, 0, 1, 128, 768}";
}
);
layerId = "511DE76B-C93C-4D1E-A4F3-1BF977EE06C9";
width = 1024;
},
{
background = {
paths = (
{
closed = 1;
nodes = (
"-3 381 LINE {name = hr00;}",
"125 381 LINE",
"125 -3 LINE",
"643 -3 LINE",
"643 125 LINE",
"771 125 LINE",
"771 253 LINE",
"899 253 LINE",
"899 643 LINE",
"771 643 LINE",
"771 771 LINE",
"643 771 LINE",
"643 899 LINE",
"125 899 LINE",
"125 515 LINE",
"-3 515 LINE"
);
},
{
closed = 1;
nodes = (
"387 131 LINE",
"387 381 LINE",
"515 381 LINE",
"515 515 LINE",
"387 515 LINE",
"387 765 LINE",
"509 765 LINE",
"509 637 LINE",
"637 637 LINE",
"637 259 LINE",
"509 259 LINE",
"509 131 LINE"
);
}
);
};
components = (
{
name = pixel.4;
transform = "{1, 0, 0, 1, 128, 0}";
},
{
name = pixel.2;
transform = "{1, 0, 0, 1, 128, 128}";
},
{
name = pixel.2;
transform = "{1, 0, 0, 1, 512, 128}";
},
{
name = pixel.2;
transform = "{1, 0, 0, 1, 128, 256}";
},
{
name = pixel.2;
transform = "{1, 0, 0, 1, 640, 256}";
},
{
name = pixel.4;
transform = "{1, 0, 0, 1, 0, 384}";
},
{
name = pixel.2;
transform = "{1, 0, 0, 1, 640, 384}";
},
{
name = pixel.2;
transform = "{1, 0, 0, 1, 128, 512}";
},
{
name = pixel.2;
transform = "{1, 0, 0, 1, 640, 512}";
},
{
name = pixel.2;
transform = "{1, 0, 0, 1, 128, 640}";
},
{
name = pixel.2;
transform = "{1, 0, 0, 1, 512, 640}";
},
{
name = pixel.4;
transform = "{1, 0, 0, 1, 128, 768}";
}
);
layerId = "A1CF3A9E-1F49-4701-AF3E-F0E694793914";
width = 1024;
},
{
background = {
paths = (
{
closed = 1;
nodes = (
"-3 381 LINE {name = hr00;}",
"125 381 LINE",
"125 -3 LINE",
"643 -3 LINE",
"643 125 LINE",
"771 125 LINE",
"771 253 LINE",
"899 253 LINE",
"899 643 LINE",
"771 643 LINE",
"771 771 LINE",
"643 771 LINE",
"643 899 LINE",
"125 899 LINE",
"125 515 LINE",
"-3 515 LINE"
);
},
{
closed = 1;
nodes = (
"387 131 LINE",
"387 381 LINE",
"515 381 LINE",
"515 515 LINE",
"387 515 LINE",
"387 765 LINE",
"509 765 LINE",
"509 637 LINE",
"637 637 LINE",
"637 259 LINE",
"509 259 LINE",
"509 131 LINE"
);
}
);
};
components = (
{
name = pixel.4;
transform = "{1, 0, 0, 1, 128, 0}";
},
{
name = pixel.2;
transform = "{1, 0, 0, 1, 128, 128}";
},
{
name = pixel.2;
transform = "{1, 0, 0, 1, 512, 128}";
},
{
name = pixel.2;
transform = "{1, 0, 0, 1, 128, 256}";
},
{
name = pixel.2;
transform = "{1, 0, 0, 1, 640, 256}";
},
{
name = pixel.4;
transform = "{1, 0, 0, 1, 0, 384}";
},
{
name = pixel.2;
transform = "{1, 0, 0, 1, 640, 384}";
},
{
name = pixel.2;
transform = "{1, 0, 0, 1, 128, 512}";
},
{
name = pixel.2;
transform = "{1, 0, 0, 1, 640, 512}";
},
{
name = pixel.2;
transform = "{1, 0, 0, 1, 128, 640}";
},
{
name = pixel.2;
transform = "{1, 0, 0, 1, 512, 640}";
},
{
name = pixel.4;
transform = "{1, 0, 0, 1, 128, 768}";
}
);
layerId = "93054D9F-9072-4363-B5A9-8BAB03B66C21";
width = 1024;
},
{
background = {
paths = (
{
closed = 1;
nodes = (
"-3 381 LINE {name = hr00;}",
"125 381 LINE",
"125 -3 LINE",
"643 -3 LINE",
"643 125 LINE",
"771 125 LINE",
"771 253 LINE",
"899 253 LINE",
"899 643 LINE",
"771 643 LINE",
"771 771 LINE",
"643 771 LINE",
"643 899 LINE",
"125 899 LINE",
"125 515 LINE",
"-3 515 LINE"
);
},
{
closed = 1;
nodes = (
"387 131 LINE",
"387 381 LINE",
"515 381 LINE",
"515 515 LINE",
"387 515 LINE",
"387 765 LINE",
"509 765 LINE",
"509 637 LINE",
"637 637 LINE",
"637 259 LINE",
"509 259 LINE",
"509 131 LINE"
);
}
);
};
components = (
{
name = pixel.4;
transform = "{1, 0, 0, 1, 128, 0}";
},
{
name = pixel.2;
transform = "{1, 0, 0, 1, 128, 128}";
},
{
name = pixel.2;
transform = "{1, 0, 0, 1, 512, 128}";
},
{
name = pixel.2;
transform = "{1, 0, 0, 1, 128, 256}";
},
{
name = pixel.2;
transform = "{1, 0, 0, 1, 640, 256}";
},
{
name = pixel.4;
transform = "{1, 0, 0, 1, 0, 384}";
},
{
name = pixel.2;
transform = "{1, 0, 0, 1, 640, 384}";
},
{
name = pixel.2;
transform = "{1, 0, 0, 1, 128, 512}";
},
{
name = pixel.2;
transform = "{1, 0, 0, 1, 640, 512}";
},
{
name = pixel.2;
transform = "{1, 0, 0, 1, 128, 640}";
},
{
name = pixel.2;
transform = "{1, 0, 0, 1, 512, 640}";
},
{
name = pixel.4;
transform = "{1, 0, 0, 1, 128, 768}";
}
);
layerId = "B2CED426-8D3E-4D4E-926E-917DB7E3651C";
width = 1024;
}
);
unicode = 00D0;
userData = {
com.typemytype.robofont.mark = (
0.967,
0.6,
1,
1
);
};
},
{
color = 4;
glyphname = E;
layers = (
{
background = {
paths = (
{
closed = 1;
nodes = (
"125 -3 LINE {name = hr00;}",
"899 -3 LINE",
"899 131 LINE",
"387 131 LINE",
"387 381 LINE",
"643 381 LINE",
"643 515 LINE",
"387 515 LINE",
"387 765 LINE",
"899 765 LINE",
"899 899 LINE",
"125 899 LINE"
);
}
);
};
components = (
{
name = pixel.6;
transform = "{1, 0, 0, 1, 128, 0}";
},
{
name = pixel.2;
transform = "{1, 0, 0, 1, 128, 128}";
},
{
name = pixel.2;
transform = "{1, 0, 0, 1, 128, 256}";
},
{
name = pixel.4;
transform = "{1, 0, 0, 1, 128, 384}";
},
{
name = pixel.2;
transform = "{1, 0, 0, 1, 128, 512}";
},
{
name = pixel.2;
transform = "{1, 0, 0, 1, 128, 640}";
},
{
name = pixel.6;
transform = "{1, 0, 0, 1, 128, 768}";
}
);
layerId = "511DE76B-C93C-4D1E-A4F3-1BF977EE06C9";
width = 1024;
},
{
background = {
paths = (
{
closed = 1;
nodes = (
"125 -3 LINE {name = hr00;}",
"899 -3 LINE",
"899 131 LINE",
"387 131 LINE",
"387 381 LINE",
"643 381 LINE",
"643 515 LINE",
"387 515 LINE",
"387 765 LINE",
"899 765 LINE",
"899 899 LINE",
"125 899 LINE"
);
}
);
};
components = (
{
name = pixel.6;
transform = "{1, 0, 0, 1, 128, 0}";
},
{
name = pixel.2;
transform = "{1, 0, 0, 1, 128, 128}";
},
{
name = pixel.2;
transform = "{1, 0, 0, 1, 128, 256}";
},
{
name = pixel.4;
transform = "{1, 0, 0, 1, 128, 384}";
},
{
name = pixel.2;
transform = "{1, 0, 0, 1, 128, 512}";
},
{
name = pixel.2;
transform = "{1, 0, 0, 1, 128, 640}";
},
{
name = pixel.6;
transform = "{1, 0, 0, 1, 128, 768}";
}
);
layerId = "A1CF3A9E-1F49-4701-AF3E-F0E694793914";
width = 1024;
},
{
background = {
paths = (
{
closed = 1;
nodes = (
"125 -3 LINE {name = hr00;}",
"899 -3 LINE",
"899 131 LINE",
"387 131 LINE",
"387 381 LINE",
"643 381 LINE",
"643 515 LINE",
"387 515 LINE",
"387 765 LINE",
"899 765 LINE",
"899 899 LINE",
"125 899 LINE"
);
}
);
};
components = (
{
name = pixel.6;
transform = "{1, 0, 0, 1, 128, 0}";
},
{
name = pixel.2;
transform = "{1, 0, 0, 1, 128, 128}";
},
{
name = pixel.2;
transform = "{1, 0, 0, 1, 128, 256}";
},
{
name = pixel.4;
transform = "{1, 0, 0, 1, 128, 384}";
},
{
name = pixel.2;
transform = "{1, 0, 0, 1, 128, 512}";
},
{
name = pixel.2;
transform = "{1, 0, 0, 1, 128, 640}";
},
{
name = pixel.6;
transform = "{1, 0, 0, 1, 128, 768}";
}
);
layerId = "93054D9F-9072-4363-B5A9-8BAB03B66C21";
width = 1024;
},
{
background = {
paths = (
{
closed = 1;
nodes = (
"125 -3 LINE {name = hr00;}",
"899 -3 LINE",
"899 131 LINE",
"387 131 LINE",
"387 381 LINE",
"643 381 LINE",
"643 515 LINE",
"387 515 LINE",
"387 765 LINE",
"899 765 LINE",
"899 899 LINE",
"125 899 LINE"
);
}
);
};
components = (
{
name = pixel.6;
transform = "{1, 0, 0, 1, 128, 0}";
},
{
name = pixel.2;
transform = "{1, 0, 0, 1, 128, 128}";
},
{
name = pixel.2;
transform = "{1, 0, 0, 1, 128, 256}";
},
{
name = pixel.4;
transform = "{1, 0, 0, 1, 128, 384}";
},
{
name = pixel.2;
transform = "{1, 0, 0, 1, 128, 512}";
},
{
name = pixel.2;
transform = "{1, 0, 0, 1, 128, 640}";
},
{
name = pixel.6;
transform = "{1, 0, 0, 1, 128, 768}";
}
);
layerId = "B2CED426-8D3E-4D4E-926E-917DB7E3651C";
width = 1024;
}
);
unicode = 0045;
userData = {
com.typemytype.robofont.mark = (
1,
0.6,
0.6,
1
);
};
},
{
color = 6;
glyphname = Eacute;
layers = (
{
background = {
paths = (
{
closed = 1;
nodes = (
"381 643 LINE {name = hr00;}",
"125 643 LINE",
"125 -3 LINE",
"899 -3 LINE",
"899 131 LINE",
"387 131 LINE",
"387 253 LINE",
"643 253 LINE",
"643 387 LINE",
"387 387 LINE",
"387 509 LINE",
"899 509 LINE",
"899 643 LINE",
"643 643 LINE",
"643 765 LINE",
"771 765 LINE",
"771 899 LINE",
"509 899 LINE",
"509 771 LINE",
"381 771 LINE"
);
}
);
};
components = (
{
name = E.case;
},
{
name = acute;
}
);
layerId = "511DE76B-C93C-4D1E-A4F3-1BF977EE06C9";
width = 1024;
},
{
background = {
paths = (
{
closed = 1;
nodes = (
"381 643 LINE {name = hr00;}",
"125 643 LINE",
"125 -3 LINE",
"899 -3 LINE",
"899 131 LINE",
"387 131 LINE",
"387 253 LINE",
"643 253 LINE",
"643 387 LINE",
"387 387 LINE",
"387 509 LINE",
"899 509 LINE",
"899 643 LINE",
"643 643 LINE",
"643 765 LINE",
"771 765 LINE",
"771 899 LINE",
"509 899 LINE",
"509 771 LINE",
"381 771 LINE"
);
}
);
};
components = (
{
name = E.case;
},
{
name = acute;
}
);
layerId = "A1CF3A9E-1F49-4701-AF3E-F0E694793914";
width = 1024;
},
{
background = {
paths = (
{
closed = 1;
nodes = (
"381 643 LINE {name = hr00;}",
"125 643 LINE",
"125 -3 LINE",
"899 -3 LINE",
"899 131 LINE",
"387 131 LINE",
"387 253 LINE",
"643 253 LINE",
"643 387 LINE",
"387 387 LINE",
"387 509 LINE",
"899 509 LINE",
"899 643 LINE",
"643 643 LINE",
"643 765 LINE",
"771 765 LINE",
"771 899 LINE",
"509 899 LINE",
"509 771 LINE",
"381 771 LINE"
);
}
);
};
components = (
{
name = E.case;
},
{
name = acute;
}
);
layerId = "93054D9F-9072-4363-B5A9-8BAB03B66C21";
width = 1024;
},
{
background = {
paths = (
{
closed = 1;
nodes = (
"381 643 LINE {name = hr00;}",
"125 643 LINE",
"125 -3 LINE",
"899 -3 LINE",
"899 131 LINE",
"387 131 LINE",
"387 253 LINE",
"643 253 LINE",
"643 387 LINE",
"387 387 LINE",
"387 509 LINE",
"899 509 LINE",
"899 643 LINE",
"643 643 LINE",
"643 765 LINE",
"771 765 LINE",
"771 899 LINE",
"509 899 LINE",
"509 771 LINE",
"381 771 LINE"
);
}
);
};
components = (
{
name = E.case;
},
{
name = acute;
}
);
layerId = "B2CED426-8D3E-4D4E-926E-917DB7E3651C";
width = 1024;
}
);
unicode = 00C9;
userData = {
com.typemytype.robofont.mark = (
0.967,
0.6,
1,
1
);
};
},
{
color = 6;
glyphname = Ecircumflex;
layers = (
{
background = {
paths = (
{
closed = 1;
nodes = (
"387 253 LINE {name = hr00;}",
"643 253 LINE",
"643 387 LINE",
"387 387 LINE",
"387 509 LINE",
"899 509 LINE",
"899 770 LINE",
"771 770 LINE",
"771 898 LINE",
"253 898 LINE",
"253 770 LINE",
"125 770 LINE",
"125 -3 LINE",
"899 -3 LINE",
"899 131 LINE",
"387 131 LINE"
);
},
{
closed = 1;
nodes = (
"387 764 LINE",
"637 764 LINE",
"637 643 LINE",
"387 643 LINE"
);
}
);
};
components = (
{
name = E.case;
},
{
name = circumflex;
}
);
layerId = "511DE76B-C93C-4D1E-A4F3-1BF977EE06C9";
width = 1024;
},
{
background = {
paths = (
{
closed = 1;
nodes = (
"387 253 LINE {name = hr00;}",
"643 253 LINE",
"643 387 LINE",
"387 387 LINE",
"387 509 LINE",
"899 509 LINE",
"899 770 LINE",
"771 770 LINE",
"771 898 LINE",
"253 898 LINE",
"253 770 LINE",
"125 770 LINE",
"125 -3 LINE",
"899 -3 LINE",
"899 131 LINE",
"387 131 LINE"
);
},
{
closed = 1;
nodes = (
"387 764 LINE",
"637 764 LINE",
"637 643 LINE",
"387 643 LINE"
);
}
);
};
components = (
{
name = E.case;
},
{
name = circumflex;
}
);
layerId = "A1CF3A9E-1F49-4701-AF3E-F0E694793914";
width = 1024;
},
{
background = {
paths = (
{
closed = 1;
nodes = (
"387 253 LINE {name = hr00;}",
"643 253 LINE",
"643 387 LINE",
"387 387 LINE",
"387 509 LINE",
"899 509 LINE",
"899 770 LINE",
"771 770 LINE",
"771 898 LINE",
"253 898 LINE",
"253 770 LINE",
"125 770 LINE",
"125 -3 LINE",
"899 -3 LINE",
"899 131 LINE",
"387 131 LINE"
);
},
{
closed = 1;
nodes = (
"387 764 LINE",
"637 764 LINE",
"637 643 LINE",
"387 643 LINE"
);
}
);
};
components = (
{
name = E.case;
},
{
name = circumflex;
}
);
layerId = "93054D9F-9072-4363-B5A9-8BAB03B66C21";
width = 1024;
},
{
background = {
paths = (
{
closed = 1;
nodes = (
"387 253 LINE {name = hr00;}",
"643 253 LINE",
"643 387 LINE",
"387 387 LINE",
"387 509 LINE",
"899 509 LINE",
"899 770 LINE",
"771 770 LINE",
"771 898 LINE",
"253 898 LINE",
"253 770 LINE",
"125 770 LINE",
"125 -3 LINE",
"899 -3 LINE",
"899 131 LINE",
"387 131 LINE"
);
},
{
closed = 1;
nodes = (
"387 764 LINE",
"637 764 LINE",
"637 643 LINE",
"387 643 LINE"
);
}
);
};
components = (
{
name = E.case;
},
{
name = circumflex;
}
);
layerId = "B2CED426-8D3E-4D4E-926E-917DB7E3651C";
width = 1024;
}
);
unicode = 00CA;
userData = {
com.typemytype.robofont.mark = (
0.967,
0.6,
1,
1
);
};
},
{
color = 6;
glyphname = Edieresis;
layers = (
{
background = {
paths = (
{
closed = 1;
nodes = (
"387 253 LINE {name = hr00;}",
"643 253 LINE",
"643 387 LINE",
"387 387 LINE",
"387 509 LINE",
"899 509 LINE",
"899 643 LINE",
"125 643 LINE",
"125 -3 LINE",
"899 -3 LINE",
"899 131 LINE",
"387 131 LINE"
);
},
{
closed = 1;
nodes = (
"125 765 LINE",
"387 765 LINE",
"387 899 LINE",
"125 899 LINE"
);
},
{
closed = 1;
nodes = (
"637 765 LINE",
"899 765 LINE",
"899 899 LINE",
"637 899 LINE"
);
}
);
};
components = (
{
name = E.case;
},
{
name = dieresis;
}
);
layerId = "511DE76B-C93C-4D1E-A4F3-1BF977EE06C9";
width = 1024;
},
{
background = {
paths = (
{
closed = 1;
nodes = (
"387 253 LINE {name = hr00;}",
"643 253 LINE",
"643 387 LINE",
"387 387 LINE",
"387 509 LINE",
"899 509 LINE",
"899 643 LINE",
"125 643 LINE",
"125 -3 LINE",
"899 -3 LINE",
"899 131 LINE",
"387 131 LINE"
);
},
{
closed = 1;
nodes = (
"125 765 LINE",
"387 765 LINE",
"387 899 LINE",
"125 899 LINE"
);
},
{
closed = 1;
nodes = (
"637 765 LINE",
"899 765 LINE",
"899 899 LINE",
"637 899 LINE"
);
}
);
};
components = (
{
name = E.case;
},
{
name = dieresis;
}
);
layerId = "A1CF3A9E-1F49-4701-AF3E-F0E694793914";
width = 1024;
},
{
background = {
paths = (
{
closed = 1;
nodes = (
"387 253 LINE {name = hr00;}",
"643 253 LINE",
"643 387 LINE",
"387 387 LINE",
"387 509 LINE",
"899 509 LINE",
"899 643 LINE",
"125 643 LINE",
"125 -3 LINE",
"899 -3 LINE",
"899 131 LINE",
"387 131 LINE"
);
},
{
closed = 1;
nodes = (
"125 765 LINE",
"387 765 LINE",
"387 899 LINE",
"125 899 LINE"
);
},
{
closed = 1;
nodes = (
"637 765 LINE",
"899 765 LINE",
"899 899 LINE",
"637 899 LINE"
);
}
);
};
components = (
{
name = E.case;
},
{
name = dieresis;
}
);
layerId = "93054D9F-9072-4363-B5A9-8BAB03B66C21";
width = 1024;
},
{
background = {
paths = (
{
closed = 1;
nodes = (
"387 253 LINE {name = hr00;}",
"643 253 LINE",
"643 387 LINE",
"387 387 LINE",
"387 509 LINE",
"899 509 LINE",
"899 643 LINE",
"125 643 LINE",
"125 -3 LINE",
"899 -3 LINE",
"899 131 LINE",
"387 131 LINE"
);
},
{
closed = 1;
nodes = (
"125 765 LINE",
"387 765 LINE",
"387 899 LINE",
"125 899 LINE"
);
},
{
closed = 1;
nodes = (
"637 765 LINE",
"899 765 LINE",
"899 899 LINE",
"637 899 LINE"
);
}
);
};
components = (
{
name = E.case;
},
{
name = dieresis;
}
);
layerId = "B2CED426-8D3E-4D4E-926E-917DB7E3651C";
width = 1024;
}
);
unicode = 00CB;
userData = {
com.typemytype.robofont.mark = (
0.967,
0.6,
1,
1
);
};
},
{
color = 6;
glyphname = Egrave;
layers = (
{
background = {
paths = (
{
closed = 1;
nodes = (
"125 643 LINE {name = hr00;}",
"125 -3 LINE",
"899 -3 LINE",
"899 131 LINE",
"387 131 LINE",
"387 253 LINE",
"643 253 LINE",
"643 387 LINE",
"387 387 LINE",
"387 509 LINE",
"899 509 LINE",
"899 643 LINE",
"643 643 LINE",
"643 765 LINE",
"771 765 LINE",
"771 899 LINE",
"509 899 LINE",
"509 771 LINE",
"381 771 LINE",
"381 643 LINE"
);
}
);
};
components = (
{
name = E.case;
},
{
name = grave;
}
);
layerId = "511DE76B-C93C-4D1E-A4F3-1BF977EE06C9";
width = 1024;
},
{
background = {
paths = (
{
closed = 1;
nodes = (
"125 643 LINE {name = hr00;}",
"125 -3 LINE",
"899 -3 LINE",
"899 131 LINE",
"387 131 LINE",
"387 253 LINE",
"643 253 LINE",
"643 387 LINE",
"387 387 LINE",
"387 509 LINE",
"899 509 LINE",
"899 643 LINE",
"643 643 LINE",
"643 765 LINE",
"771 765 LINE",
"771 899 LINE",
"509 899 LINE",
"509 771 LINE",
"381 771 LINE",
"381 643 LINE"
);
}
);
};
components = (
{
name = E.case;
},
{
name = grave;
}
);
layerId = "A1CF3A9E-1F49-4701-AF3E-F0E694793914";
width = 1024;
},
{
background = {
paths = (
{
closed = 1;
nodes = (
"125 643 LINE {name = hr00;}",
"125 -3 LINE",
"899 -3 LINE",
"899 131 LINE",
"387 131 LINE",
"387 253 LINE",
"643 253 LINE",
"643 387 LINE",
"387 387 LINE",
"387 509 LINE",
"899 509 LINE",
"899 643 LINE",
"643 643 LINE",
"643 765 LINE",
"771 765 LINE",
"771 899 LINE",
"509 899 LINE",
"509 771 LINE",
"381 771 LINE",
"381 643 LINE"
);
}
);
};
components = (
{
name = E.case;
},
{
name = grave;
}
);
layerId = "93054D9F-9072-4363-B5A9-8BAB03B66C21";
width = 1024;
},
{
background = {
paths = (
{
closed = 1;
nodes = (
"125 643 LINE {name = hr00;}",
"125 -3 LINE",
"899 -3 LINE",
"899 131 LINE",
"387 131 LINE",
"387 253 LINE",
"643 253 LINE",
"643 387 LINE",
"387 387 LINE",
"387 509 LINE",
"899 509 LINE",
"899 643 LINE",
"643 643 LINE",
"643 765 LINE",
"771 765 LINE",
"771 899 LINE",
"509 899 LINE",
"509 771 LINE",
"381 771 LINE",
"381 643 LINE"
);
}
);
};
components = (
{
name = E.case;
},
{
name = grave;
}
);
layerId = "B2CED426-8D3E-4D4E-926E-917DB7E3651C";
width = 1024;
}
);
unicode = 00C8;
userData = {
com.typemytype.robofont.mark = (
0.967,
0.6,
1,
1
);
};
},
{
color = 4;
glyphname = F;
layers = (
{
background = {
paths = (
{
closed = 1;
nodes = (
"387 381 LINE {name = hr00;}",
"643 381 LINE",
"643 515 LINE",
"387 515 LINE",
"387 765 LINE",
"899 765 LINE",
"899 899 LINE",
"125 899 LINE",
"125 -3 LINE",
"387 -3 LINE"
);
}
);
};
components = (
{
name = pixel.2;
transform = "{1, 0, 0, 1, 128, 0}";
},
{
name = pixel.2;
transform = "{1, 0, 0, 1, 128, 128}";
},
{
name = pixel.2;
transform = "{1, 0, 0, 1, 128, 256}";
},
{
name = pixel.4;
transform = "{1, 0, 0, 1, 128, 384}";
},
{
name = pixel.2;
transform = "{1, 0, 0, 1, 128, 512}";
},
{
name = pixel.2;
transform = "{1, 0, 0, 1, 128, 640}";
},
{
name = pixel.6;
transform = "{1, 0, 0, 1, 128, 768}";
}
);
layerId = "511DE76B-C93C-4D1E-A4F3-1BF977EE06C9";
width = 1024;
},
{
background = {
paths = (
{
closed = 1;
nodes = (
"387 381 LINE {name = hr00;}",
"643 381 LINE",
"643 515 LINE",
"387 515 LINE",
"387 765 LINE",
"899 765 LINE",
"899 899 LINE",
"125 899 LINE",
"125 -3 LINE",
"387 -3 LINE"
);
}
);
};
components = (
{
name = pixel.2;
transform = "{1, 0, 0, 1, 128, 0}";
},
{
name = pixel.2;
transform = "{1, 0, 0, 1, 128, 128}";
},
{
name = pixel.2;
transform = "{1, 0, 0, 1, 128, 256}";
},
{
name = pixel.4;
transform = "{1, 0, 0, 1, 128, 384}";
},
{
name = pixel.2;
transform = "{1, 0, 0, 1, 128, 512}";
},
{
name = pixel.2;
transform = "{1, 0, 0, 1, 128, 640}";
},
{
name = pixel.6;
transform = "{1, 0, 0, 1, 128, 768}";
}
);
layerId = "A1CF3A9E-1F49-4701-AF3E-F0E694793914";
width = 1024;
},
{
background = {
paths = (
{
closed = 1;
nodes = (
"387 381 LINE {name = hr00;}",
"643 381 LINE",
"643 515 LINE",
"387 515 LINE",
"387 765 LINE",
"899 765 LINE",
"899 899 LINE",
"125 899 LINE",
"125 -3 LINE",
"387 -3 LINE"
);
}
);
};
components = (
{
name = pixel.2;
transform = "{1, 0, 0, 1, 128, 0}";
},
{
name = pixel.2;
transform = "{1, 0, 0, 1, 128, 128}";
},
{
name = pixel.2;
transform = "{1, 0, 0, 1, 128, 256}";
},
{
name = pixel.4;
transform = "{1, 0, 0, 1, 128, 384}";
},
{
name = pixel.2;
transform = "{1, 0, 0, 1, 128, 512}";
},
{
name = pixel.2;
transform = "{1, 0, 0, 1, 128, 640}";
},
{
name = pixel.6;
transform = "{1, 0, 0, 1, 128, 768}";
}
);
layerId = "93054D9F-9072-4363-B5A9-8BAB03B66C21";
width = 1024;
},
{
background = {
paths = (
{
closed = 1;
nodes = (
"387 381 LINE {name = hr00;}",
"643 381 LINE",
"643 515 LINE",
"387 515 LINE",
"387 765 LINE",
"899 765 LINE",
"899 899 LINE",
"125 899 LINE",
"125 -3 LINE",
"387 -3 LINE"
);
}
);
};
components = (
{
name = pixel.2;
transform = "{1, 0, 0, 1, 128, 0}";
},
{
name = pixel.2;
transform = "{1, 0, 0, 1, 128, 128}";
},
{
name = pixel.2;
transform = "{1, 0, 0, 1, 128, 256}";
},
{
name = pixel.4;
transform = "{1, 0, 0, 1, 128, 384}";
},
{
name = pixel.2;
transform = "{1, 0, 0, 1, 128, 512}";
},
{
name = pixel.2;
transform = "{1, 0, 0, 1, 128, 640}";
},
{
name = pixel.6;
transform = "{1, 0, 0, 1, 128, 768}";
}
);
layerId = "B2CED426-8D3E-4D4E-926E-917DB7E3651C";
width = 1024;
}
);
unicode = 0046;
userData = {
com.typemytype.robofont.mark = (
1,
0.6,
0.6,
1
);
};
},
{
color = 4;
glyphname = G;
layers = (
{
background = {
paths = (
{
closed = 1;
nodes = (
"509 381 LINE {name = hr00;}",
"637 381 LINE",
"637 131 LINE",
"387 131 LINE",
"387 765 LINE",
"637 765 LINE",
"637 637 LINE",
"899 637 LINE",
"899 771 LINE",
"771 771 LINE",
"771 899 LINE",
"253 899 LINE",
"253 771 LINE",
"125 771 LINE",
"125 125 LINE",
"253 125 LINE",
"253 -3 LINE",
"771 -3 LINE",
"771 125 LINE",
"899 125 LINE",
"899 515 LINE",
"509 515 LINE"
);
}
);
};
components = (
{
name = pixel.4;
transform = "{1, 0, 0, 1, 256, 0}";
},
{
name = pixel.2;
transform = "{1, 0, 0, 1, 128, 128}";
},
{
name = pixel.2;
transform = "{1, 0, 0, 1, 640, 128}";
},
{
name = pixel.2;
transform = "{1, 0, 0, 1, 128, 256}";
},
{
name = pixel.2;
transform = "{1, 0, 0, 1, 640, 256}";
},
{
name = pixel.2;
transform = "{1, 0, 0, 1, 128, 384}";
},
{
name = pixel.3;
transform = "{1, 0, 0, 1, 512, 384}";
},
{
name = pixel.2;
transform = "{1, 0, 0, 1, 128, 512}";
},
{
name = pixel.2;
transform = "{1, 0, 0, 1, 128, 640}";
},
{
name = pixel.2;
transform = "{1, 0, 0, 1, 640, 640}";
},
{
name = pixel.4;
transform = "{1, 0, 0, 1, 256, 768}";
}
);
layerId = "511DE76B-C93C-4D1E-A4F3-1BF977EE06C9";
width = 1024;
},
{
background = {
paths = (
{
closed = 1;
nodes = (
"509 381 LINE {name = hr00;}",
"637 381 LINE",
"637 131 LINE",
"387 131 LINE",
"387 765 LINE",
"637 765 LINE",
"637 637 LINE",
"899 637 LINE",
"899 771 LINE",
"771 771 LINE",
"771 899 LINE",
"253 899 LINE",
"253 771 LINE",
"125 771 LINE",
"125 125 LINE",
"253 125 LINE",
"253 -3 LINE",
"771 -3 LINE",
"771 125 LINE",
"899 125 LINE",
"899 515 LINE",
"509 515 LINE"
);
}
);
};
components = (
{
name = pixel.4;
transform = "{1, 0, 0, 1, 256, 0}";
},
{
name = pixel.2;
transform = "{1, 0, 0, 1, 128, 128}";
},
{
name = pixel.2;
transform = "{1, 0, 0, 1, 640, 128}";
},
{
name = pixel.2;
transform = "{1, 0, 0, 1, 128, 256}";
},
{
name = pixel.2;
transform = "{1, 0, 0, 1, 640, 256}";
},
{
name = pixel.2;
transform = "{1, 0, 0, 1, 128, 384}";
},
{
name = pixel.3;
transform = "{1, 0, 0, 1, 512, 384}";
},
{
name = pixel.2;
transform = "{1, 0, 0, 1, 128, 512}";
},
{
name = pixel.2;
transform = "{1, 0, 0, 1, 128, 640}";
},
{
name = pixel.2;
transform = "{1, 0, 0, 1, 640, 640}";
},
{
name = pixel.4;
transform = "{1, 0, 0, 1, 256, 768}";
}
);
layerId = "A1CF3A9E-1F49-4701-AF3E-F0E694793914";
width = 1024;
},
{
background = {
paths = (
{
closed = 1;
nodes = (
"509 381 LINE {name = hr00;}",
"637 381 LINE",
"637 131 LINE",
"387 131 LINE",
"387 765 LINE",
"637 765 LINE",
"637 637 LINE",
"899 637 LINE",
"899 771 LINE",
"771 771 LINE",
"771 899 LINE",
"253 899 LINE",
"253 771 LINE",
"125 771 LINE",
"125 125 LINE",
"253 125 LINE",
"253 -3 LINE",
"771 -3 LINE",
"771 125 LINE",
"899 125 LINE",
"899 515 LINE",
"509 515 LINE"
);
}
);
};
components = (
{
name = pixel.4;
transform = "{1, 0, 0, 1, 256, 0}";
},
{
name = pixel.2;
transform = "{1, 0, 0, 1, 128, 128}";
},
{
name = pixel.2;
transform = "{1, 0, 0, 1, 640, 128}";
},
{
name = pixel.2;
transform = "{1, 0, 0, 1, 128, 256}";
},
{
name = pixel.2;
transform = "{1, 0, 0, 1, 640, 256}";
},
{
name = pixel.2;
transform = "{1, 0, 0, 1, 128, 384}";
},
{
name = pixel.3;
transform = "{1, 0, 0, 1, 512, 384}";
},
{
name = pixel.2;
transform = "{1, 0, 0, 1, 128, 512}";
},
{
name = pixel.2;
transform = "{1, 0, 0, 1, 128, 640}";
},
{
name = pixel.2;
transform = "{1, 0, 0, 1, 640, 640}";
},
{
name = pixel.4;
transform = "{1, 0, 0, 1, 256, 768}";
}
);
layerId = "93054D9F-9072-4363-B5A9-8BAB03B66C21";
width = 1024;
},
{
background = {
paths = (
{
closed = 1;
nodes = (
"509 381 LINE {name = hr00;}",
"637 381 LINE",
"637 131 LINE",
"387 131 LINE",
"387 765 LINE",
"637 765 LINE",
"637 637 LINE",
"899 637 LINE",
"899 771 LINE",
"771 771 LINE",
"771 899 LINE",
"253 899 LINE",
"253 771 LINE",
"125 771 LINE",
"125 125 LINE",
"253 125 LINE",
"253 -3 LINE",
"771 -3 LINE",
"771 125 LINE",
"899 125 LINE",
"899 515 LINE",
"509 515 LINE"
);
}
);
};
components = (
{
name = pixel.4;
transform = "{1, 0, 0, 1, 256, 0}";
},
{
name = pixel.2;
transform = "{1, 0, 0, 1, 128, 128}";
},
{
name = pixel.2;
transform = "{1, 0, 0, 1, 640, 128}";
},
{
name = pixel.2;
transform = "{1, 0, 0, 1, 128, 256}";
},
{
name = pixel.2;
transform = "{1, 0, 0, 1, 640, 256}";
},
{
name = pixel.2;
transform = "{1, 0, 0, 1, 128, 384}";
},
{
name = pixel.3;
transform = "{1, 0, 0, 1, 512, 384}";
},
{
name = pixel.2;
transform = "{1, 0, 0, 1, 128, 512}";
},
{
name = pixel.2;
transform = "{1, 0, 0, 1, 128, 640}";
},
{
name = pixel.2;
transform = "{1, 0, 0, 1, 640, 640}";
},
{
name = pixel.4;
transform = "{1, 0, 0, 1, 256, 768}";
}
);
layerId = "B2CED426-8D3E-4D4E-926E-917DB7E3651C";
width = 1024;
}
);
unicode = 0047;
userData = {
com.typemytype.robofont.mark = (
1,
0.6,
0.6,
1
);
};
},
{
color = 4;
glyphname = H;
layers = (
{
background = {
paths = (
{
closed = 1;
nodes = (
"387 381 LINE {name = hr00;}",
"637 381 LINE",
"637 -3 LINE",
"899 -3 LINE",
"899 899 LINE",
"637 899 LINE",
"637 515 LINE",
"387 515 LINE",
"387 899 LINE",
"125 899 LINE",
"125 -3 LINE",
"387 -3 LINE"
);
}
);
};
components = (
{
name = pixel.2;
transform = "{1, 0, 0, 1, 128, 0}";
},
{
name = pixel.2;
transform = "{1, 0, 0, 1, 640, 0}";
},
{
name = pixel.2;
transform = "{1, 0, 0, 1, 128, 128}";
},
{
name = pixel.2;
transform = "{1, 0, 0, 1, 640, 128}";
},
{
name = pixel.2;
transform = "{1, 0, 0, 1, 128, 256}";
},
{
name = pixel.2;
transform = "{1, 0, 0, 1, 640, 256}";
},
{
name = pixel.6;
transform = "{1, 0, 0, 1, 128, 384}";
},
{
name = pixel.2;
transform = "{1, 0, 0, 1, 128, 512}";
},
{
name = pixel.2;
transform = "{1, 0, 0, 1, 640, 512}";
},
{
name = pixel.2;
transform = "{1, 0, 0, 1, 128, 640}";
},
{
name = pixel.2;
transform = "{1, 0, 0, 1, 640, 640}";
},
{
name = pixel.2;
transform = "{1, 0, 0, 1, 128, 768}";
},
{
name = pixel.2;
transform = "{1, 0, 0, 1, 640, 768}";
}
);
layerId = "511DE76B-C93C-4D1E-A4F3-1BF977EE06C9";
width = 1024;
},
{
background = {
paths = (
{
closed = 1;
nodes = (
"387 381 LINE {name = hr00;}",
"637 381 LINE",
"637 -3 LINE",
"899 -3 LINE",
"899 899 LINE",
"637 899 LINE",
"637 515 LINE",
"387 515 LINE",
"387 899 LINE",
"125 899 LINE",
"125 -3 LINE",
"387 -3 LINE"
);
}
);
};
components = (
{
name = pixel.2;
transform = "{1, 0, 0, 1, 128, 0}";
},
{
name = pixel.2;
transform = "{1, 0, 0, 1, 640, 0}";
},
{
name = pixel.2;
transform = "{1, 0, 0, 1, 128, 128}";
},
{
name = pixel.2;
transform = "{1, 0, 0, 1, 640, 128}";
},
{
name = pixel.2;
transform = "{1, 0, 0, 1, 128, 256}";
},
{
name = pixel.2;
transform = "{1, 0, 0, 1, 640, 256}";
},
{
name = pixel.6;
transform = "{1, 0, 0, 1, 128, 384}";
},
{
name = pixel.2;
transform = "{1, 0, 0, 1, 128, 512}";
},
{
name = pixel.2;
transform = "{1, 0, 0, 1, 640, 512}";
},
{
name = pixel.2;
transform = "{1, 0, 0, 1, 128, 640}";
},
{
name = pixel.2;
transform = "{1, 0, 0, 1, 640, 640}";
},
{
name = pixel.2;
transform = "{1, 0, 0, 1, 128, 768}";
},
{
name = pixel.2;
transform = "{1, 0, 0, 1, 640, 768}";
}
);
layerId = "A1CF3A9E-1F49-4701-AF3E-F0E694793914";
width = 1024;
},
{
background = {
paths = (
{
closed = 1;
nodes = (
"387 381 LINE {name = hr00;}",
"637 381 LINE",
"637 -3 LINE",
"899 -3 LINE",
"899 899 LINE",
"637 899 LINE",
"637 515 LINE",
"387 515 LINE",
"387 899 LINE",
"125 899 LINE",
"125 -3 LINE",
"387 -3 LINE"
);
}
);
};
components = (
{
name = pixel.2;
transform = "{1, 0, 0, 1, 128, 0}";
},
{
name = pixel.2;
transform = "{1, 0, 0, 1, 640, 0}";
},
{
name = pixel.2;
transform = "{1, 0, 0, 1, 128, 128}";
},
{
name = pixel.2;
transform = "{1, 0, 0, 1, 640, 128}";
},
{
name = pixel.2;
transform = "{1, 0, 0, 1, 128, 256}";
},
{
name = pixel.2;
transform = "{1, 0, 0, 1, 640, 256}";
},
{
name = pixel.6;
transform = "{1, 0, 0, 1, 128, 384}";
},
{
name = pixel.2;
transform = "{1, 0, 0, 1, 128, 512}";
},
{
name = pixel.2;
transform = "{1, 0, 0, 1, 640, 512}";
},
{
name = pixel.2;
transform = "{1, 0, 0, 1, 128, 640}";
},
{
name = pixel.2;
transform = "{1, 0, 0, 1, 640, 640}";
},
{
name = pixel.2;
transform = "{1, 0, 0, 1, 128, 768}";
},
{
name = pixel.2;
transform = "{1, 0, 0, 1, 640, 768}";
}
);
layerId = "93054D9F-9072-4363-B5A9-8BAB03B66C21";
width = 1024;
},
{
background = {
paths = (
{
closed = 1;
nodes = (
"387 381 LINE {name = hr00;}",
"637 381 LINE",
"637 -3 LINE",
"899 -3 LINE",
"899 899 LINE",
"637 899 LINE",
"637 515 LINE",
"387 515 LINE",
"387 899 LINE",
"125 899 LINE",
"125 -3 LINE",
"387 -3 LINE"
);
}
);
};
components = (
{
name = pixel.2;
transform = "{1, 0, 0, 1, 128, 0}";
},
{
name = pixel.2;
transform = "{1, 0, 0, 1, 640, 0}";
},
{
name = pixel.2;
transform = "{1, 0, 0, 1, 128, 128}";
},
{
name = pixel.2;
transform = "{1, 0, 0, 1, 640, 128}";
},
{
name = pixel.2;
transform = "{1, 0, 0, 1, 128, 256}";
},
{
name = pixel.2;
transform = "{1, 0, 0, 1, 640, 256}";
},
{
name = pixel.6;
transform = "{1, 0, 0, 1, 128, 384}";
},
{
name = pixel.2;
transform = "{1, 0, 0, 1, 128, 512}";
},
{
name = pixel.2;
transform = "{1, 0, 0, 1, 640, 512}";
},
{
name = pixel.2;
transform = "{1, 0, 0, 1, 128, 640}";
},
{
name = pixel.2;
transform = "{1, 0, 0, 1, 640, 640}";
},
{
name = pixel.2;
transform = "{1, 0, 0, 1, 128, 768}";
},
{
name = pixel.2;
transform = "{1, 0, 0, 1, 640, 768}";
}
);
layerId = "B2CED426-8D3E-4D4E-926E-917DB7E3651C";
width = 1024;
}
);
unicode = 0048;
userData = {
com.typemytype.robofont.mark = (
1,
0.6,
0.6,
1
);
};
},
{
color = 4;
glyphname = I;
layers = (
{
background = {
paths = (
{
closed = 1;
nodes = (
"253 765 LINE {name = hr00;}",
"381 765 LINE",
"381 131 LINE",
"253 131 LINE",
"253 -3 LINE",
"771 -3 LINE",
"771 131 LINE",
"643 131 LINE",
"643 765 LINE",
"771 765 LINE",
"771 899 LINE",
"253 899 LINE"
);
}
);
};
components = (
{
name = pixel.4;
transform = "{1, 0, 0, 1, 256, 0}";
},
{
name = pixel.2;
transform = "{1, 0, 0, 1, 384, 128}";
},
{
name = pixel.2;
transform = "{1, 0, 0, 1, 384, 256}";
},
{
name = pixel.2;
transform = "{1, 0, 0, 1, 384, 384}";
},
{
name = pixel.2;
transform = "{1, 0, 0, 1, 384, 512}";
},
{
name = pixel.2;
transform = "{1, 0, 0, 1, 384, 640}";
},
{
name = pixel.4;
transform = "{1, 0, 0, 1, 256, 768}";
}
);
layerId = "511DE76B-C93C-4D1E-A4F3-1BF977EE06C9";
width = 1024;
},
{
background = {
paths = (
{
closed = 1;
nodes = (
"253 765 LINE {name = hr00;}",
"381 765 LINE",
"381 131 LINE",
"253 131 LINE",
"253 -3 LINE",
"771 -3 LINE",
"771 131 LINE",
"643 131 LINE",
"643 765 LINE",
"771 765 LINE",
"771 899 LINE",
"253 899 LINE"
);
}
);
};
components = (
{
name = pixel.4;
transform = "{1, 0, 0, 1, 256, 0}";
},
{
name = pixel.2;
transform = "{1, 0, 0, 1, 384, 128}";
},
{
name = pixel.2;
transform = "{1, 0, 0, 1, 384, 256}";
},
{
name = pixel.2;
transform = "{1, 0, 0, 1, 384, 384}";
},
{
name = pixel.2;
transform = "{1, 0, 0, 1, 384, 512}";
},
{
name = pixel.2;
transform = "{1, 0, 0, 1, 384, 640}";
},
{
name = pixel.4;
transform = "{1, 0, 0, 1, 256, 768}";
}
);
layerId = "A1CF3A9E-1F49-4701-AF3E-F0E694793914";
width = 1024;
},
{
background = {
paths = (
{
closed = 1;
nodes = (
"253 765 LINE {name = hr00;}",
"381 765 LINE",
"381 131 LINE",
"253 131 LINE",
"253 -3 LINE",
"771 -3 LINE",
"771 131 LINE",
"643 131 LINE",
"643 765 LINE",
"771 765 LINE",
"771 899 LINE",
"253 899 LINE"
);
}
);
};
components = (
{
name = pixel.4;
transform = "{1, 0, 0, 1, 256, 0}";
},
{
name = pixel.2;
transform = "{1, 0, 0, 1, 384, 128}";
},
{
name = pixel.2;
transform = "{1, 0, 0, 1, 384, 256}";
},
{
name = pixel.2;
transform = "{1, 0, 0, 1, 384, 384}";
},
{
name = pixel.2;
transform = "{1, 0, 0, 1, 384, 512}";
},
{
name = pixel.2;
transform = "{1, 0, 0, 1, 384, 640}";
},
{
name = pixel.4;
transform = "{1, 0, 0, 1, 256, 768}";
}
);
layerId = "93054D9F-9072-4363-B5A9-8BAB03B66C21";
width = 1024;
},
{
background = {
paths = (
{
closed = 1;
nodes = (
"253 765 LINE {name = hr00;}",
"381 765 LINE",
"381 131 LINE",
"253 131 LINE",
"253 -3 LINE",
"771 -3 LINE",
"771 131 LINE",
"643 131 LINE",
"643 765 LINE",
"771 765 LINE",
"771 899 LINE",
"253 899 LINE"
);
}
);
};
components = (
{
name = pixel.4;
transform = "{1, 0, 0, 1, 256, 0}";
},
{
name = pixel.2;
transform = "{1, 0, 0, 1, 384, 128}";
},
{
name = pixel.2;
transform = "{1, 0, 0, 1, 384, 256}";
},
{
name = pixel.2;
transform = "{1, 0, 0, 1, 384, 384}";
},
{
name = pixel.2;
transform = "{1, 0, 0, 1, 384, 512}";
},
{
name = pixel.2;
transform = "{1, 0, 0, 1, 384, 640}";
},
{
name = pixel.4;
transform = "{1, 0, 0, 1, 256, 768}";
}
);
layerId = "B2CED426-8D3E-4D4E-926E-917DB7E3651C";
width = 1024;
}
);
unicode = 0049;
userData = {
com.typemytype.robofont.mark = (
1,
0.6,
0.6,
1
);
};
},
{
color = 6;
glyphname = Iacute;
layers = (
{
background = {
paths = (
{
closed = 1;
nodes = (
"253 381 LINE {name = hr00;}",
"381 381 LINE",
"381 131 LINE",
"253 131 LINE",
"253 -3 LINE",
"771 -3 LINE",
"771 131 LINE",
"643 131 LINE",
"643 381 LINE",
"771 381 LINE",
"771 515 LINE",
"253 515 LINE"
);
},
{
closed = 1;
nodes = (
"771 899 LINE",
"509 899 LINE",
"509 771 LINE",
"381 771 LINE",
"381 637 LINE",
"643 637 LINE",
"643 765 LINE",
"771 765 LINE"
);
}
);
};
components = (
{
name = I.case;
},
{
name = acute;
}
);
layerId = "511DE76B-C93C-4D1E-A4F3-1BF977EE06C9";
width = 1024;
},
{
background = {
paths = (
{
closed = 1;
nodes = (
"253 381 LINE {name = hr00;}",
"381 381 LINE",
"381 131 LINE",
"253 131 LINE",
"253 -3 LINE",
"771 -3 LINE",
"771 131 LINE",
"643 131 LINE",
"643 381 LINE",
"771 381 LINE",
"771 515 LINE",
"253 515 LINE"
);
},
{
closed = 1;
nodes = (
"771 899 LINE",
"509 899 LINE",
"509 771 LINE",
"381 771 LINE",
"381 637 LINE",
"643 637 LINE",
"643 765 LINE",
"771 765 LINE"
);
}
);
};
components = (
{
name = I.case;
},
{
name = acute;
}
);
layerId = "A1CF3A9E-1F49-4701-AF3E-F0E694793914";
width = 1024;
},
{
background = {
paths = (
{
closed = 1;
nodes = (
"253 381 LINE {name = hr00;}",
"381 381 LINE",
"381 131 LINE",
"253 131 LINE",
"253 -3 LINE",
"771 -3 LINE",
"771 131 LINE",
"643 131 LINE",
"643 381 LINE",
"771 381 LINE",
"771 515 LINE",
"253 515 LINE"
);
},
{
closed = 1;
nodes = (
"771 899 LINE",
"509 899 LINE",
"509 771 LINE",
"381 771 LINE",
"381 637 LINE",
"643 637 LINE",
"643 765 LINE",
"771 765 LINE"
);
}
);
};
components = (
{
name = I.case;
},
{
name = acute;
}
);
layerId = "93054D9F-9072-4363-B5A9-8BAB03B66C21";
width = 1024;
},
{
background = {
paths = (
{
closed = 1;
nodes = (
"253 381 LINE {name = hr00;}",
"381 381 LINE",
"381 131 LINE",
"253 131 LINE",
"253 -3 LINE",
"771 -3 LINE",
"771 131 LINE",
"643 131 LINE",
"643 381 LINE",
"771 381 LINE",
"771 515 LINE",
"253 515 LINE"
);
},
{
closed = 1;
nodes = (
"771 899 LINE",
"509 899 LINE",
"509 771 LINE",
"381 771 LINE",
"381 637 LINE",
"643 637 LINE",
"643 765 LINE",
"771 765 LINE"
);
}
);
};
components = (
{
name = I.case;
},
{
name = acute;
}
);
layerId = "B2CED426-8D3E-4D4E-926E-917DB7E3651C";
width = 1024;
}
);
unicode = 00CD;
userData = {
com.typemytype.robofont.mark = (
0.967,
0.6,
1,
1
);
};
},
{
color = 6;
glyphname = Icircumflex;
layers = (
{
background = {
paths = (
{
closed = 1;
nodes = (
"253 381 LINE {name = hr00;}",
"381 381 LINE",
"381 131 LINE",
"253 131 LINE",
"253 -3 LINE",
"771 -3 LINE",
"771 131 LINE",
"643 131 LINE",
"643 381 LINE",
"771 381 LINE",
"771 515 LINE",
"253 515 LINE"
);
},
{
closed = 1;
nodes = (
"637 637 LINE",
"899 637 LINE",
"899 771 LINE",
"771 771 LINE",
"771 899 LINE",
"253 899 LINE",
"253 771 LINE",
"125 771 LINE",
"125 637 LINE",
"387 637 LINE",
"387 765 LINE",
"637 765 LINE"
);
}
);
};
components = (
{
name = I.case;
},
{
name = circumflex;
}
);
layerId = "511DE76B-C93C-4D1E-A4F3-1BF977EE06C9";
width = 1024;
},
{
background = {
paths = (
{
closed = 1;
nodes = (
"253 381 LINE {name = hr00;}",
"381 381 LINE",
"381 131 LINE",
"253 131 LINE",
"253 -3 LINE",
"771 -3 LINE",
"771 131 LINE",
"643 131 LINE",
"643 381 LINE",
"771 381 LINE",
"771 515 LINE",
"253 515 LINE"
);
},
{
closed = 1;
nodes = (
"637 637 LINE",
"899 637 LINE",
"899 771 LINE",
"771 771 LINE",
"771 899 LINE",
"253 899 LINE",
"253 771 LINE",
"125 771 LINE",
"125 637 LINE",
"387 637 LINE",
"387 765 LINE",
"637 765 LINE"
);
}
);
};
components = (
{
name = I.case;
},
{
name = circumflex;
}
);
layerId = "A1CF3A9E-1F49-4701-AF3E-F0E694793914";
width = 1024;
},
{
background = {
paths = (
{
closed = 1;
nodes = (
"253 381 LINE {name = hr00;}",
"381 381 LINE",
"381 131 LINE",
"253 131 LINE",
"253 -3 LINE",
"771 -3 LINE",
"771 131 LINE",
"643 131 LINE",
"643 381 LINE",
"771 381 LINE",
"771 515 LINE",
"253 515 LINE"
);
},
{
closed = 1;
nodes = (
"637 637 LINE",
"899 637 LINE",
"899 771 LINE",
"771 771 LINE",
"771 899 LINE",
"253 899 LINE",
"253 771 LINE",
"125 771 LINE",
"125 637 LINE",
"387 637 LINE",
"387 765 LINE",
"637 765 LINE"
);
}
);
};
components = (
{
name = I.case;
},
{
name = circumflex;
}
);
layerId = "93054D9F-9072-4363-B5A9-8BAB03B66C21";
width = 1024;
},
{
background = {
paths = (
{
closed = 1;
nodes = (
"253 381 LINE {name = hr00;}",
"381 381 LINE",
"381 131 LINE",
"253 131 LINE",
"253 -3 LINE",
"771 -3 LINE",
"771 131 LINE",
"643 131 LINE",
"643 381 LINE",
"771 381 LINE",
"771 515 LINE",
"253 515 LINE"
);
},
{
closed = 1;
nodes = (
"637 637 LINE",
"899 637 LINE",
"899 771 LINE",
"771 771 LINE",
"771 899 LINE",
"253 899 LINE",
"253 771 LINE",
"125 771 LINE",
"125 637 LINE",
"387 637 LINE",
"387 765 LINE",
"637 765 LINE"
);
}
);
};
components = (
{
name = I.case;
},
{
name = circumflex;
}
);
layerId = "B2CED426-8D3E-4D4E-926E-917DB7E3651C";
width = 1024;
}
);
unicode = 00CE;
userData = {
com.typemytype.robofont.mark = (
0.967,
0.6,
1,
1
);
};
},
{
color = 6;
glyphname = Idieresis;
layers = (
{
background = {
paths = (
{
closed = 1;
nodes = (
"253 509 LINE {name = hr00;}",
"381 509 LINE",
"381 131 LINE",
"253 131 LINE",
"253 -3 LINE",
"771 -3 LINE",
"771 131 LINE",
"643 131 LINE",
"643 509 LINE",
"771 509 LINE",
"771 643 LINE",
"253 643 LINE"
);
},
{
closed = 1;
nodes = (
"637 765 LINE",
"899 765 LINE",
"899 899 LINE",
"637 899 LINE"
);
},
{
closed = 1;
nodes = (
"125 765 LINE",
"387 765 LINE",
"387 899 LINE",
"125 899 LINE"
);
}
);
};
components = (
{
name = I.case.2;
},
{
name = dieresis;
}
);
layerId = "511DE76B-C93C-4D1E-A4F3-1BF977EE06C9";
width = 1024;
},
{
background = {
paths = (
{
closed = 1;
nodes = (
"253 509 LINE {name = hr00;}",
"381 509 LINE",
"381 131 LINE",
"253 131 LINE",
"253 -3 LINE",
"771 -3 LINE",
"771 131 LINE",
"643 131 LINE",
"643 509 LINE",
"771 509 LINE",
"771 643 LINE",
"253 643 LINE"
);
},
{
closed = 1;
nodes = (
"637 765 LINE",
"899 765 LINE",
"899 899 LINE",
"637 899 LINE"
);
},
{
closed = 1;
nodes = (
"125 765 LINE",
"387 765 LINE",
"387 899 LINE",
"125 899 LINE"
);
}
);
};
components = (
{
name = I.case.2;
},
{
name = dieresis;
}
);
layerId = "A1CF3A9E-1F49-4701-AF3E-F0E694793914";
width = 1024;
},
{
background = {
paths = (
{
closed = 1;
nodes = (
"253 509 LINE {name = hr00;}",
"381 509 LINE",
"381 131 LINE",
"253 131 LINE",
"253 -3 LINE",
"771 -3 LINE",
"771 131 LINE",
"643 131 LINE",
"643 509 LINE",
"771 509 LINE",
"771 643 LINE",
"253 643 LINE"
);
},
{
closed = 1;
nodes = (
"637 765 LINE",
"899 765 LINE",
"899 899 LINE",
"637 899 LINE"
);
},
{
closed = 1;
nodes = (
"125 765 LINE",
"387 765 LINE",
"387 899 LINE",
"125 899 LINE"
);
}
);
};
components = (
{
name = I.case.2;
},
{
name = dieresis;
}
);
layerId = "93054D9F-9072-4363-B5A9-8BAB03B66C21";
width = 1024;
},
{
background = {
paths = (
{
closed = 1;
nodes = (
"253 509 LINE {name = hr00;}",
"381 509 LINE",
"381 131 LINE",
"253 131 LINE",
"253 -3 LINE",
"771 -3 LINE",
"771 131 LINE",
"643 131 LINE",
"643 509 LINE",
"771 509 LINE",
"771 643 LINE",
"253 643 LINE"
);
},
{
closed = 1;
nodes = (
"637 765 LINE",
"899 765 LINE",
"899 899 LINE",
"637 899 LINE"
);
},
{
closed = 1;
nodes = (
"125 765 LINE",
"387 765 LINE",
"387 899 LINE",
"125 899 LINE"
);
}
);
};
components = (
{
name = I.case.2;
},
{
name = dieresis;
}
);
layerId = "B2CED426-8D3E-4D4E-926E-917DB7E3651C";
width = 1024;
}
);
unicode = 00CF;
userData = {
com.typemytype.robofont.mark = (
0.967,
0.6,
1,
1
);
};
},
{
color = 6;
glyphname = Igrave;
layers = (
{
background = {
paths = (
{
closed = 1;
nodes = (
"253 381 LINE {name = hr00;}",
"381 381 LINE",
"381 131 LINE",
"253 131 LINE",
"253 -3 LINE",
"771 -3 LINE",
"771 131 LINE",
"643 131 LINE",
"643 381 LINE",
"771 381 LINE",
"771 515 LINE",
"253 515 LINE"
);
},
{
closed = 1;
nodes = (
"253 765 LINE",
"381 765 LINE",
"381 637 LINE",
"643 637 LINE",
"643 771 LINE",
"515 771 LINE",
"515 899 LINE",
"253 899 LINE"
);
}
);
};
components = (
{
name = I.case;
},
{
name = grave;
}
);
layerId = "511DE76B-C93C-4D1E-A4F3-1BF977EE06C9";
width = 1024;
},
{
background = {
paths = (
{
closed = 1;
nodes = (
"253 381 LINE {name = hr00;}",
"381 381 LINE",
"381 131 LINE",
"253 131 LINE",
"253 -3 LINE",
"771 -3 LINE",
"771 131 LINE",
"643 131 LINE",
"643 381 LINE",
"771 381 LINE",
"771 515 LINE",
"253 515 LINE"
);
},
{
closed = 1;
nodes = (
"253 765 LINE",
"381 765 LINE",
"381 637 LINE",
"643 637 LINE",
"643 771 LINE",
"515 771 LINE",
"515 899 LINE",
"253 899 LINE"
);
}
);
};
components = (
{
name = I.case;
},
{
name = grave;
}
);
layerId = "A1CF3A9E-1F49-4701-AF3E-F0E694793914";
width = 1024;
},
{
background = {
paths = (
{
closed = 1;
nodes = (
"253 381 LINE {name = hr00;}",
"381 381 LINE",
"381 131 LINE",
"253 131 LINE",
"253 -3 LINE",
"771 -3 LINE",
"771 131 LINE",
"643 131 LINE",
"643 381 LINE",
"771 381 LINE",
"771 515 LINE",
"253 515 LINE"
);
},
{
closed = 1;
nodes = (
"253 765 LINE",
"381 765 LINE",
"381 637 LINE",
"643 637 LINE",
"643 771 LINE",
"515 771 LINE",
"515 899 LINE",
"253 899 LINE"
);
}
);
};
components = (
{
name = I.case;
},
{
name = grave;
}
);
layerId = "93054D9F-9072-4363-B5A9-8BAB03B66C21";
width = 1024;
},
{
background = {
paths = (
{
closed = 1;
nodes = (
"253 381 LINE {name = hr00;}",
"381 381 LINE",
"381 131 LINE",
"253 131 LINE",
"253 -3 LINE",
"771 -3 LINE",
"771 131 LINE",
"643 131 LINE",
"643 381 LINE",
"771 381 LINE",
"771 515 LINE",
"253 515 LINE"
);
},
{
closed = 1;
nodes = (
"253 765 LINE",
"381 765 LINE",
"381 637 LINE",
"643 637 LINE",
"643 771 LINE",
"515 771 LINE",
"515 899 LINE",
"253 899 LINE"
);
}
);
};
components = (
{
name = I.case;
},
{
name = grave;
}
);
layerId = "B2CED426-8D3E-4D4E-926E-917DB7E3651C";
width = 1024;
}
);
unicode = 00CC;
userData = {
com.typemytype.robofont.mark = (
0.967,
0.6,
1,
1
);
};
},
{
color = 4;
glyphname = J;
layers = (
{
background = {
paths = (
{
closed = 1;
nodes = (
"381 765 LINE {name = hr00;}",
"509 765 LINE",
"509 131 LINE",
"387 131 LINE",
"387 259 LINE",
"125 259 LINE",
"125 125 LINE",
"253 125 LINE",
"253 -3 LINE",
"643 -3 LINE",
"643 125 LINE",
"771 125 LINE",
"771 765 LINE",
"899 765 LINE",
"899 899 LINE",
"381 899 LINE"
);
}
);
};
components = (
{
name = pixel.3;
transform = "{1, 0, 0, 1, 256, 0}";
},
{
name = pixel.2;
transform = "{1, 0, 0, 1, 128, 128}";
},
{
name = pixel.2;
transform = "{1, 0, 0, 1, 512, 128}";
},
{
name = pixel.2;
transform = "{1, 0, 0, 1, 512, 256}";
},
{
name = pixel.2;
transform = "{1, 0, 0, 1, 512, 384}";
},
{
name = pixel.2;
transform = "{1, 0, 0, 1, 512, 512}";
},
{
name = pixel.2;
transform = "{1, 0, 0, 1, 512, 640}";
},
{
name = pixel.4;
transform = "{1, 0, 0, 1, 384, 768}";
}
);
layerId = "511DE76B-C93C-4D1E-A4F3-1BF977EE06C9";
width = 1024;
},
{
background = {
paths = (
{
closed = 1;
nodes = (
"381 765 LINE {name = hr00;}",
"509 765 LINE",
"509 131 LINE",
"387 131 LINE",
"387 259 LINE",
"125 259 LINE",
"125 125 LINE",
"253 125 LINE",
"253 -3 LINE",
"643 -3 LINE",
"643 125 LINE",
"771 125 LINE",
"771 765 LINE",
"899 765 LINE",
"899 899 LINE",
"381 899 LINE"
);
}
);
};
components = (
{
name = pixel.3;
transform = "{1, 0, 0, 1, 256, 0}";
},
{
name = pixel.2;
transform = "{1, 0, 0, 1, 128, 128}";
},
{
name = pixel.2;
transform = "{1, 0, 0, 1, 512, 128}";
},
{
name = pixel.2;
transform = "{1, 0, 0, 1, 512, 256}";
},
{
name = pixel.2;
transform = "{1, 0, 0, 1, 512, 384}";
},
{
name = pixel.2;
transform = "{1, 0, 0, 1, 512, 512}";
},
{
name = pixel.2;
transform = "{1, 0, 0, 1, 512, 640}";
},
{
name = pixel.4;
transform = "{1, 0, 0, 1, 384, 768}";
}
);
layerId = "A1CF3A9E-1F49-4701-AF3E-F0E694793914";
width = 1024;
},
{
background = {
paths = (
{
closed = 1;
nodes = (
"381 765 LINE {name = hr00;}",
"509 765 LINE",
"509 131 LINE",
"387 131 LINE",
"387 259 LINE",
"125 259 LINE",
"125 125 LINE",
"253 125 LINE",
"253 -3 LINE",
"643 -3 LINE",
"643 125 LINE",
"771 125 LINE",
"771 765 LINE",
"899 765 LINE",
"899 899 LINE",
"381 899 LINE"
);
}
);
};
components = (
{
name = pixel.3;
transform = "{1, 0, 0, 1, 256, 0}";
},
{
name = pixel.2;
transform = "{1, 0, 0, 1, 128, 128}";
},
{
name = pixel.2;
transform = "{1, 0, 0, 1, 512, 128}";
},
{
name = pixel.2;
transform = "{1, 0, 0, 1, 512, 256}";
},
{
name = pixel.2;
transform = "{1, 0, 0, 1, 512, 384}";
},
{
name = pixel.2;
transform = "{1, 0, 0, 1, 512, 512}";
},
{
name = pixel.2;
transform = "{1, 0, 0, 1, 512, 640}";
},
{
name = pixel.4;
transform = "{1, 0, 0, 1, 384, 768}";
}
);
layerId = "93054D9F-9072-4363-B5A9-8BAB03B66C21";
width = 1024;
},
{
background = {
paths = (
{
closed = 1;
nodes = (
"381 765 LINE {name = hr00;}",
"509 765 LINE",
"509 131 LINE",
"387 131 LINE",
"387 259 LINE",
"125 259 LINE",
"125 125 LINE",
"253 125 LINE",
"253 -3 LINE",
"643 -3 LINE",
"643 125 LINE",
"771 125 LINE",
"771 765 LINE",
"899 765 LINE",
"899 899 LINE",
"381 899 LINE"
);
}
);
};
components = (
{
name = pixel.3;
transform = "{1, 0, 0, 1, 256, 0}";
},
{
name = pixel.2;
transform = "{1, 0, 0, 1, 128, 128}";
},
{
name = pixel.2;
transform = "{1, 0, 0, 1, 512, 128}";
},
{
name = pixel.2;
transform = "{1, 0, 0, 1, 512, 256}";
},
{
name = pixel.2;
transform = "{1, 0, 0, 1, 512, 384}";
},
{
name = pixel.2;
transform = "{1, 0, 0, 1, 512, 512}";
},
{
name = pixel.2;
transform = "{1, 0, 0, 1, 512, 640}";
},
{
name = pixel.4;
transform = "{1, 0, 0, 1, 384, 768}";
}
);
layerId = "B2CED426-8D3E-4D4E-926E-917DB7E3651C";
width = 1024;
}
);
unicode = 004A;
userData = {
com.typemytype.robofont.mark = (
1,
0.6,
0.6,
1
);
};
},
{
color = 4;
glyphname = K;
layers = (
{
background = {
paths = (
{
closed = 1;
nodes = (
"509 125 LINE {name = hr00;}",
"637 125 LINE",
"637 -3 LINE",
"899 -3 LINE",
"899 131 LINE",
"771 131 LINE",
"771 259 LINE",
"643 259 LINE",
"643 387 LINE",
"515 387 LINE",
"515 509 LINE",
"643 509 LINE",
"643 637 LINE",
"771 637 LINE",
"771 765 LINE",
"899 765 LINE",
"899 899 LINE",
"637 899 LINE",
"637 771 LINE",
"509 771 LINE",
"509 643 LINE",
"387 643 LINE",
"387 899 LINE",
"125 899 LINE",
"125 -3 LINE",
"387 -3 LINE",
"387 253 LINE",
"509 253 LINE"
);
}
);
};
components = (
{
name = pixel.2;
transform = "{1, 0, 0, 1, 128, 0}";
},
{
name = pixel.2;
transform = "{1, 0, 0, 1, 640, 0}";
},
{
name = pixel.2;
transform = "{1, 0, 0, 1, 128, 128}";
},
{
name = pixel.2;
transform = "{1, 0, 0, 1, 512, 128}";
},
{
name = pixel.4;
transform = "{1, 0, 0, 1, 128, 256}";
},
{
name = pixel.3;
transform = "{1, 0, 0, 1, 128, 384}";
},
{
name = pixel.4;
transform = "{1, 0, 0, 1, 128, 512}";
},
{
name = pixel.2;
transform = "{1, 0, 0, 1, 128, 640}";
},
{
name = pixel.2;
transform = "{1, 0, 0, 1, 512, 640}";
},
{
name = pixel.2;
transform = "{1, 0, 0, 1, 128, 768}";
},
{
name = pixel.2;
transform = "{1, 0, 0, 1, 640, 768}";
}
);
layerId = "511DE76B-C93C-4D1E-A4F3-1BF977EE06C9";
width = 1024;
},
{
background = {
paths = (
{
closed = 1;
nodes = (
"509 125 LINE {name = hr00;}",
"637 125 LINE",
"637 -3 LINE",
"899 -3 LINE",
"899 131 LINE",
"771 131 LINE",
"771 259 LINE",
"643 259 LINE",
"643 387 LINE",
"515 387 LINE",
"515 509 LINE",
"643 509 LINE",
"643 637 LINE",
"771 637 LINE",
"771 765 LINE",
"899 765 LINE",
"899 899 LINE",
"637 899 LINE",
"637 771 LINE",
"509 771 LINE",
"509 643 LINE",
"387 643 LINE",
"387 899 LINE",
"125 899 LINE",
"125 -3 LINE",
"387 -3 LINE",
"387 253 LINE",
"509 253 LINE"
);
}
);
};
components = (
{
name = pixel.2;
transform = "{1, 0, 0, 1, 128, 0}";
},
{
name = pixel.2;
transform = "{1, 0, 0, 1, 640, 0}";
},
{
name = pixel.2;
transform = "{1, 0, 0, 1, 128, 128}";
},
{
name = pixel.2;
transform = "{1, 0, 0, 1, 512, 128}";
},
{
name = pixel.4;
transform = "{1, 0, 0, 1, 128, 256}";
},
{
name = pixel.3;
transform = "{1, 0, 0, 1, 128, 384}";
},
{
name = pixel.4;
transform = "{1, 0, 0, 1, 128, 512}";
},
{
name = pixel.2;
transform = "{1, 0, 0, 1, 128, 640}";
},
{
name = pixel.2;
transform = "{1, 0, 0, 1, 512, 640}";
},
{
name = pixel.2;
transform = "{1, 0, 0, 1, 128, 768}";
},
{
name = pixel.2;
transform = "{1, 0, 0, 1, 640, 768}";
}
);
layerId = "A1CF3A9E-1F49-4701-AF3E-F0E694793914";
width = 1024;
},
{
background = {
paths = (
{
closed = 1;
nodes = (
"509 125 LINE {name = hr00;}",
"637 125 LINE",
"637 -3 LINE",
"899 -3 LINE",
"899 131 LINE",
"771 131 LINE",
"771 259 LINE",
"643 259 LINE",
"643 387 LINE",
"515 387 LINE",
"515 509 LINE",
"643 509 LINE",
"643 637 LINE",
"771 637 LINE",
"771 765 LINE",
"899 765 LINE",
"899 899 LINE",
"637 899 LINE",
"637 771 LINE",
"509 771 LINE",
"509 643 LINE",
"387 643 LINE",
"387 899 LINE",
"125 899 LINE",
"125 -3 LINE",
"387 -3 LINE",
"387 253 LINE",
"509 253 LINE"
);
}
);
};
components = (
{
name = pixel.2;
transform = "{1, 0, 0, 1, 128, 0}";
},
{
name = pixel.2;
transform = "{1, 0, 0, 1, 640, 0}";
},
{
name = pixel.2;
transform = "{1, 0, 0, 1, 128, 128}";
},
{
name = pixel.2;
transform = "{1, 0, 0, 1, 512, 128}";
},
{
name = pixel.4;
transform = "{1, 0, 0, 1, 128, 256}";
},
{
name = pixel.3;
transform = "{1, 0, 0, 1, 128, 384}";
},
{
name = pixel.4;
transform = "{1, 0, 0, 1, 128, 512}";
},
{
name = pixel.2;
transform = "{1, 0, 0, 1, 128, 640}";
},
{
name = pixel.2;
transform = "{1, 0, 0, 1, 512, 640}";
},
{
name = pixel.2;
transform = "{1, 0, 0, 1, 128, 768}";
},
{
name = pixel.2;
transform = "{1, 0, 0, 1, 640, 768}";
}
);
layerId = "93054D9F-9072-4363-B5A9-8BAB03B66C21";
width = 1024;
},
{
background = {
paths = (
{
closed = 1;
nodes = (
"509 125 LINE {name = hr00;}",
"637 125 LINE",
"637 -3 LINE",
"899 -3 LINE",
"899 131 LINE",
"771 131 LINE",
"771 259 LINE",
"643 259 LINE",
"643 387 LINE",
"515 387 LINE",
"515 509 LINE",
"643 509 LINE",
"643 637 LINE",
"771 637 LINE",
"771 765 LINE",
"899 765 LINE",
"899 899 LINE",
"637 899 LINE",
"637 771 LINE",
"509 771 LINE",
"509 643 LINE",
"387 643 LINE",
"387 899 LINE",
"125 899 LINE",
"125 -3 LINE",
"387 -3 LINE",
"387 253 LINE",
"509 253 LINE"
);
}
);
};
components = (
{
name = pixel.2;
transform = "{1, 0, 0, 1, 128, 0}";
},
{
name = pixel.2;
transform = "{1, 0, 0, 1, 640, 0}";
},
{
name = pixel.2;
transform = "{1, 0, 0, 1, 128, 128}";
},
{
name = pixel.2;
transform = "{1, 0, 0, 1, 512, 128}";
},
{
name = pixel.4;
transform = "{1, 0, 0, 1, 128, 256}";
},
{
name = pixel.3;
transform = "{1, 0, 0, 1, 128, 384}";
},
{
name = pixel.4;
transform = "{1, 0, 0, 1, 128, 512}";
},
{
name = pixel.2;
transform = "{1, 0, 0, 1, 128, 640}";
},
{
name = pixel.2;
transform = "{1, 0, 0, 1, 512, 640}";
},
{
name = pixel.2;
transform = "{1, 0, 0, 1, 128, 768}";
},
{
name = pixel.2;
transform = "{1, 0, 0, 1, 640, 768}";
}
);
layerId = "B2CED426-8D3E-4D4E-926E-917DB7E3651C";
width = 1024;
}
);
unicode = 004B;
userData = {
com.typemytype.robofont.mark = (
1,
0.6,
0.6,
1
);
};
},
{
color = 4;
glyphname = L;
layers = (
{
background = {
paths = (
{
closed = 1;
nodes = (
"125 -3 LINE {name = hr00;}",
"899 -3 LINE",
"899 131 LINE",
"387 131 LINE",
"387 899 LINE",
"125 899 LINE"
);
}
);
};
components = (
{
name = pixel.6;
transform = "{1, 0, 0, 1, 128, 0}";
},
{
name = pixel.2;
transform = "{1, 0, 0, 1, 128, 128}";
},
{
name = pixel.2;
transform = "{1, 0, 0, 1, 128, 256}";
},
{
name = pixel.2;
transform = "{1, 0, 0, 1, 128, 384}";
},
{
name = pixel.2;
transform = "{1, 0, 0, 1, 128, 512}";
},
{
name = pixel.2;
transform = "{1, 0, 0, 1, 128, 640}";
},
{
name = pixel.2;
transform = "{1, 0, 0, 1, 128, 768}";
}
);
layerId = "511DE76B-C93C-4D1E-A4F3-1BF977EE06C9";
width = 1024;
},
{
background = {
paths = (
{
closed = 1;
nodes = (
"125 -3 LINE {name = hr00;}",
"899 -3 LINE",
"899 131 LINE",
"387 131 LINE",
"387 899 LINE",
"125 899 LINE"
);
}
);
};
components = (
{
name = pixel.6;
transform = "{1, 0, 0, 1, 128, 0}";
},
{
name = pixel.2;
transform = "{1, 0, 0, 1, 128, 128}";
},
{
name = pixel.2;
transform = "{1, 0, 0, 1, 128, 256}";
},
{
name = pixel.2;
transform = "{1, 0, 0, 1, 128, 384}";
},
{
name = pixel.2;
transform = "{1, 0, 0, 1, 128, 512}";
},
{
name = pixel.2;
transform = "{1, 0, 0, 1, 128, 640}";
},
{
name = pixel.2;
transform = "{1, 0, 0, 1, 128, 768}";
}
);
layerId = "A1CF3A9E-1F49-4701-AF3E-F0E694793914";
width = 1024;
},
{
background = {
paths = (
{
closed = 1;
nodes = (
"125 -3 LINE {name = hr00;}",
"899 -3 LINE",
"899 131 LINE",
"387 131 LINE",
"387 899 LINE",
"125 899 LINE"
);
}
);
};
components = (
{
name = pixel.6;
transform = "{1, 0, 0, 1, 128, 0}";
},
{
name = pixel.2;
transform = "{1, 0, 0, 1, 128, 128}";
},
{
name = pixel.2;
transform = "{1, 0, 0, 1, 128, 256}";
},
{
name = pixel.2;
transform = "{1, 0, 0, 1, 128, 384}";
},
{
name = pixel.2;
transform = "{1, 0, 0, 1, 128, 512}";
},
{
name = pixel.2;
transform = "{1, 0, 0, 1, 128, 640}";
},
{
name = pixel.2;
transform = "{1, 0, 0, 1, 128, 768}";
}
);
layerId = "93054D9F-9072-4363-B5A9-8BAB03B66C21";
width = 1024;
},
{
background = {
paths = (
{
closed = 1;
nodes = (
"125 -3 LINE {name = hr00;}",
"899 -3 LINE",
"899 131 LINE",
"387 131 LINE",
"387 899 LINE",
"125 899 LINE"
);
}
);
};
components = (
{
name = pixel.6;
transform = "{1, 0, 0, 1, 128, 0}";
},
{
name = pixel.2;
transform = "{1, 0, 0, 1, 128, 128}";
},
{
name = pixel.2;
transform = "{1, 0, 0, 1, 128, 256}";
},
{
name = pixel.2;
transform = "{1, 0, 0, 1, 128, 384}";
},
{
name = pixel.2;
transform = "{1, 0, 0, 1, 128, 512}";
},
{
name = pixel.2;
transform = "{1, 0, 0, 1, 128, 640}";
},
{
name = pixel.2;
transform = "{1, 0, 0, 1, 128, 768}";
}
);
layerId = "B2CED426-8D3E-4D4E-926E-917DB7E3651C";
width = 1024;
}
);
unicode = 004C;
userData = {
com.typemytype.robofont.mark = (
1,
0.6,
0.6,
1
);
};
},
{
color = 4;
glyphname = M;
layers = (
{
background = {
paths = (
{
closed = 1;
nodes = (
"765 -3 LINE {name = hr00;}",
"1027 -3 LINE",
"1027 899 LINE",
"765 899 LINE",
"765 771 LINE",
"637 771 LINE",
"637 643 LINE",
"515 643 LINE",
"515 771 LINE",
"387 771 LINE",
"387 899 LINE",
"125 899 LINE",
"125 -3 LINE",
"387 -3 LINE",
"387 509 LINE",
"509 509 LINE",
"509 381 LINE",
"643 381 LINE",
"643 509 LINE",
"765 509 LINE"
);
}
);
};
components = (
{
name = pixel.2;
transform = "{1, 0, 0, 1, 128, 0}";
},
{
name = pixel.2;
transform = "{1, 0, 0, 1, 768, 0}";
},
{
name = pixel.2;
transform = "{1, 0, 0, 1, 128, 128}";
},
{
name = pixel.2;
transform = "{1, 0, 0, 1, 768, 128}";
},
{
name = pixel.2;
transform = "{1, 0, 0, 1, 128, 256}";
},
{
name = pixel.2;
transform = "{1, 0, 0, 1, 768, 256}";
},
{
name = pixel.2;
transform = "{1, 0, 0, 1, 128, 384}";
},
{
name = pixel.1;
transform = "{1, 0, 0, 1, 512, 384}";
},
{
name = pixel.2;
transform = "{1, 0, 0, 1, 768, 384}";
},
{
name = pixel.7;
transform = "{1, 0, 0, 1, 128, 512}";
},
{
name = pixel.3;
transform = "{1, 0, 0, 1, 128, 640}";
},
{
name = pixel.3;
transform = "{1, 0, 0, 1, 640, 640}";
},
{
name = pixel.2;
transform = "{1, 0, 0, 1, 128, 768}";
},
{
name = pixel.2;
transform = "{1, 0, 0, 1, 768, 768}";
}
);
layerId = "511DE76B-C93C-4D1E-A4F3-1BF977EE06C9";
width = 1024;
},
{
background = {
paths = (
{
closed = 1;
nodes = (
"765 -3 LINE {name = hr00;}",
"1027 -3 LINE",
"1027 899 LINE",
"765 899 LINE",
"765 771 LINE",
"637 771 LINE",
"637 643 LINE",
"515 643 LINE",
"515 771 LINE",
"387 771 LINE",
"387 899 LINE",
"125 899 LINE",
"125 -3 LINE",
"387 -3 LINE",
"387 509 LINE",
"509 509 LINE",
"509 381 LINE",
"643 381 LINE",
"643 509 LINE",
"765 509 LINE"
);
}
);
};
components = (
{
name = pixel.2;
transform = "{1, 0, 0, 1, 128, 0}";
},
{
name = pixel.2;
transform = "{1, 0, 0, 1, 768, 0}";
},
{
name = pixel.2;
transform = "{1, 0, 0, 1, 128, 128}";
},
{
name = pixel.2;
transform = "{1, 0, 0, 1, 768, 128}";
},
{
name = pixel.2;
transform = "{1, 0, 0, 1, 128, 256}";
},
{
name = pixel.2;
transform = "{1, 0, 0, 1, 768, 256}";
},
{
name = pixel.2;
transform = "{1, 0, 0, 1, 128, 384}";
},
{
name = pixel.1;
transform = "{1, 0, 0, 1, 512, 384}";
},
{
name = pixel.2;
transform = "{1, 0, 0, 1, 768, 384}";
},
{
name = pixel.7;
transform = "{1, 0, 0, 1, 128, 512}";
},
{
name = pixel.3;
transform = "{1, 0, 0, 1, 128, 640}";
},
{
name = pixel.3;
transform = "{1, 0, 0, 1, 640, 640}";
},
{
name = pixel.2;
transform = "{1, 0, 0, 1, 128, 768}";
},
{
name = pixel.2;
transform = "{1, 0, 0, 1, 768, 768}";
}
);
layerId = "A1CF3A9E-1F49-4701-AF3E-F0E694793914";
width = 1024;
},
{
background = {
paths = (
{
closed = 1;
nodes = (
"765 -3 LINE {name = hr00;}",
"1027 -3 LINE",
"1027 899 LINE",
"765 899 LINE",
"765 771 LINE",
"637 771 LINE",
"637 643 LINE",
"515 643 LINE",
"515 771 LINE",
"387 771 LINE",
"387 899 LINE",
"125 899 LINE",
"125 -3 LINE",
"387 -3 LINE",
"387 509 LINE",
"509 509 LINE",
"509 381 LINE",
"643 381 LINE",
"643 509 LINE",
"765 509 LINE"
);
}
);
};
components = (
{
name = pixel.2;
transform = "{1, 0, 0, 1, 128, 0}";
},
{
name = pixel.2;
transform = "{1, 0, 0, 1, 768, 0}";
},
{
name = pixel.2;
transform = "{1, 0, 0, 1, 128, 128}";
},
{
name = pixel.2;
transform = "{1, 0, 0, 1, 768, 128}";
},
{
name = pixel.2;
transform = "{1, 0, 0, 1, 128, 256}";
},
{
name = pixel.2;
transform = "{1, 0, 0, 1, 768, 256}";
},
{
name = pixel.2;
transform = "{1, 0, 0, 1, 128, 384}";
},
{
name = pixel.1;
transform = "{1, 0, 0, 1, 512, 384}";
},
{
name = pixel.2;
transform = "{1, 0, 0, 1, 768, 384}";
},
{
name = pixel.7;
transform = "{1, 0, 0, 1, 128, 512}";
},
{
name = pixel.3;
transform = "{1, 0, 0, 1, 128, 640}";
},
{
name = pixel.3;
transform = "{1, 0, 0, 1, 640, 640}";
},
{
name = pixel.2;
transform = "{1, 0, 0, 1, 128, 768}";
},
{
name = pixel.2;
transform = "{1, 0, 0, 1, 768, 768}";
}
);
layerId = "93054D9F-9072-4363-B5A9-8BAB03B66C21";
width = 1024;
},
{
background = {
paths = (
{
closed = 1;
nodes = (
"765 -3 LINE {name = hr00;}",
"1027 -3 LINE",
"1027 899 LINE",
"765 899 LINE",
"765 771 LINE",
"637 771 LINE",
"637 643 LINE",
"515 643 LINE",
"515 771 LINE",
"387 771 LINE",
"387 899 LINE",
"125 899 LINE",
"125 -3 LINE",
"387 -3 LINE",
"387 509 LINE",
"509 509 LINE",
"509 381 LINE",
"643 381 LINE",
"643 509 LINE",
"765 509 LINE"
);
}
);
};
components = (
{
name = pixel.2;
transform = "{1, 0, 0, 1, 128, 0}";
},
{
name = pixel.2;
transform = "{1, 0, 0, 1, 768, 0}";
},
{
name = pixel.2;
transform = "{1, 0, 0, 1, 128, 128}";
},
{
name = pixel.2;
transform = "{1, 0, 0, 1, 768, 128}";
},
{
name = pixel.2;
transform = "{1, 0, 0, 1, 128, 256}";
},
{
name = pixel.2;
transform = "{1, 0, 0, 1, 768, 256}";
},
{
name = pixel.2;
transform = "{1, 0, 0, 1, 128, 384}";
},
{
name = pixel.1;
transform = "{1, 0, 0, 1, 512, 384}";
},
{
name = pixel.2;
transform = "{1, 0, 0, 1, 768, 384}";
},
{
name = pixel.7;
transform = "{1, 0, 0, 1, 128, 512}";
},
{
name = pixel.3;
transform = "{1, 0, 0, 1, 128, 640}";
},
{
name = pixel.3;
transform = "{1, 0, 0, 1, 640, 640}";
},
{
name = pixel.2;
transform = "{1, 0, 0, 1, 128, 768}";
},
{
name = pixel.2;
transform = "{1, 0, 0, 1, 768, 768}";
}
);
layerId = "B2CED426-8D3E-4D4E-926E-917DB7E3651C";
width = 1024;
}
);
unicode = 004D;
userData = {
com.typemytype.robofont.mark = (
1,
0.6,
0.6,
1
);
};
},
{
color = 4;
glyphname = N;
layers = (
{
background = {
paths = (
{
closed = 1;
nodes = (
"637 -3 LINE {name = hr00;}",
"899 -3 LINE",
"899 899 LINE",
"637 899 LINE",
"637 643 LINE",
"515 643 LINE",
"515 771 LINE",
"387 771 LINE",
"387 899 LINE",
"125 899 LINE",
"125 -3 LINE",
"387 -3 LINE",
"387 509 LINE",
"509 509 LINE",
"509 381 LINE",
"637 381 LINE"
);
}
);
};
components = (
{
name = pixel.2;
transform = "{1, 0, 0, 1, 128, 0}";
},
{
name = pixel.2;
transform = "{1, 0, 0, 1, 640, 0}";
},
{
name = pixel.2;
transform = "{1, 0, 0, 1, 128, 128}";
},
{
name = pixel.2;
transform = "{1, 0, 0, 1, 640, 128}";
},
{
name = pixel.2;
transform = "{1, 0, 0, 1, 128, 256}";
},
{
name = pixel.2;
transform = "{1, 0, 0, 1, 640, 256}";
},
{
name = pixel.2;
transform = "{1, 0, 0, 1, 128, 384}";
},
{
name = pixel.3;
transform = "{1, 0, 0, 1, 512, 384}";
},
{
name = pixel.6;
transform = "{1, 0, 0, 1, 128, 512}";
},
{
name = pixel.3;
transform = "{1, 0, 0, 1, 128, 640}";
},
{
name = pixel.2;
transform = "{1, 0, 0, 1, 640, 640}";
},
{
name = pixel.2;
transform = "{1, 0, 0, 1, 128, 768}";
},
{
name = pixel.2;
transform = "{1, 0, 0, 1, 640, 768}";
}
);
layerId = "511DE76B-C93C-4D1E-A4F3-1BF977EE06C9";
width = 1024;
},
{
background = {
paths = (
{
closed = 1;
nodes = (
"637 -3 LINE {name = hr00;}",
"899 -3 LINE",
"899 899 LINE",
"637 899 LINE",
"637 643 LINE",
"515 643 LINE",
"515 771 LINE",
"387 771 LINE",
"387 899 LINE",
"125 899 LINE",
"125 -3 LINE",
"387 -3 LINE",
"387 509 LINE",
"509 509 LINE",
"509 381 LINE",
"637 381 LINE"
);
}
);
};
components = (
{
name = pixel.2;
transform = "{1, 0, 0, 1, 128, 0}";
},
{
name = pixel.2;
transform = "{1, 0, 0, 1, 640, 0}";
},
{
name = pixel.2;
transform = "{1, 0, 0, 1, 128, 128}";
},
{
name = pixel.2;
transform = "{1, 0, 0, 1, 640, 128}";
},
{
name = pixel.2;
transform = "{1, 0, 0, 1, 128, 256}";
},
{
name = pixel.2;
transform = "{1, 0, 0, 1, 640, 256}";
},
{
name = pixel.2;
transform = "{1, 0, 0, 1, 128, 384}";
},
{
name = pixel.3;
transform = "{1, 0, 0, 1, 512, 384}";
},
{
name = pixel.6;
transform = "{1, 0, 0, 1, 128, 512}";
},
{
name = pixel.3;
transform = "{1, 0, 0, 1, 128, 640}";
},
{
name = pixel.2;
transform = "{1, 0, 0, 1, 640, 640}";
},
{
name = pixel.2;
transform = "{1, 0, 0, 1, 128, 768}";
},
{
name = pixel.2;
transform = "{1, 0, 0, 1, 640, 768}";
}
);
layerId = "A1CF3A9E-1F49-4701-AF3E-F0E694793914";
width = 1024;
},
{
background = {
paths = (
{
closed = 1;
nodes = (
"637 -3 LINE {name = hr00;}",
"899 -3 LINE",
"899 899 LINE",
"637 899 LINE",
"637 643 LINE",
"515 643 LINE",
"515 771 LINE",
"387 771 LINE",
"387 899 LINE",
"125 899 LINE",
"125 -3 LINE",
"387 -3 LINE",
"387 509 LINE",
"509 509 LINE",
"509 381 LINE",
"637 381 LINE"
);
}
);
};
components = (
{
name = pixel.2;
transform = "{1, 0, 0, 1, 128, 0}";
},
{
name = pixel.2;
transform = "{1, 0, 0, 1, 640, 0}";
},
{
name = pixel.2;
transform = "{1, 0, 0, 1, 128, 128}";
},
{
name = pixel.2;
transform = "{1, 0, 0, 1, 640, 128}";
},
{
name = pixel.2;
transform = "{1, 0, 0, 1, 128, 256}";
},
{
name = pixel.2;
transform = "{1, 0, 0, 1, 640, 256}";
},
{
name = pixel.2;
transform = "{1, 0, 0, 1, 128, 384}";
},
{
name = pixel.3;
transform = "{1, 0, 0, 1, 512, 384}";
},
{
name = pixel.6;
transform = "{1, 0, 0, 1, 128, 512}";
},
{
name = pixel.3;
transform = "{1, 0, 0, 1, 128, 640}";
},
{
name = pixel.2;
transform = "{1, 0, 0, 1, 640, 640}";
},
{
name = pixel.2;
transform = "{1, 0, 0, 1, 128, 768}";
},
{
name = pixel.2;
transform = "{1, 0, 0, 1, 640, 768}";
}
);
layerId = "93054D9F-9072-4363-B5A9-8BAB03B66C21";
width = 1024;
},
{
background = {
paths = (
{
closed = 1;
nodes = (
"637 -3 LINE {name = hr00;}",
"899 -3 LINE",
"899 899 LINE",
"637 899 LINE",
"637 643 LINE",
"515 643 LINE",
"515 771 LINE",
"387 771 LINE",
"387 899 LINE",
"125 899 LINE",
"125 -3 LINE",
"387 -3 LINE",
"387 509 LINE",
"509 509 LINE",
"509 381 LINE",
"637 381 LINE"
);
}
);
};
components = (
{
name = pixel.2;
transform = "{1, 0, 0, 1, 128, 0}";
},
{
name = pixel.2;
transform = "{1, 0, 0, 1, 640, 0}";
},
{
name = pixel.2;
transform = "{1, 0, 0, 1, 128, 128}";
},
{
name = pixel.2;
transform = "{1, 0, 0, 1, 640, 128}";
},
{
name = pixel.2;
transform = "{1, 0, 0, 1, 128, 256}";
},
{
name = pixel.2;
transform = "{1, 0, 0, 1, 640, 256}";
},
{
name = pixel.2;
transform = "{1, 0, 0, 1, 128, 384}";
},
{
name = pixel.3;
transform = "{1, 0, 0, 1, 512, 384}";
},
{
name = pixel.6;
transform = "{1, 0, 0, 1, 128, 512}";
},
{
name = pixel.3;
transform = "{1, 0, 0, 1, 128, 640}";
},
{
name = pixel.2;
transform = "{1, 0, 0, 1, 640, 640}";
},
{
name = pixel.2;
transform = "{1, 0, 0, 1, 128, 768}";
},
{
name = pixel.2;
transform = "{1, 0, 0, 1, 640, 768}";
}
);
layerId = "B2CED426-8D3E-4D4E-926E-917DB7E3651C";
width = 1024;
}
);
unicode = 004E;
userData = {
com.typemytype.robofont.mark = (
1,
0.6,
0.6,
1
);
};
},
{
color = 6;
glyphname = Ntilde;
layers = (
{
background = {
paths = (
{
closed = 1;
nodes = (
"765 771 LINE {name = hr00;}",
"643 771 LINE",
"643 899 LINE",
"253 899 LINE",
"253 771 LINE",
"125 771 LINE",
"125 -3 LINE",
"387 -3 LINE",
"387 253 LINE",
"509 253 LINE",
"509 125 LINE",
"637 125 LINE",
"637 -3 LINE",
"899 -3 LINE",
"899 765 LINE",
"1027 765 LINE",
"1027 899 LINE",
"765 899 LINE"
);
},
{
closed = 1;
nodes = (
"637 387 LINE",
"515 387 LINE",
"515 515 LINE",
"387 515 LINE",
"387 765 LINE",
"509 765 LINE",
"509 637 LINE",
"637 637 LINE"
);
}
);
};
components = (
{
name = N.case;
},
{
name = tilde;
}
);
layerId = "511DE76B-C93C-4D1E-A4F3-1BF977EE06C9";
width = 1024;
},
{
background = {
paths = (
{
closed = 1;
nodes = (
"765 771 LINE {name = hr00;}",
"643 771 LINE",
"643 899 LINE",
"253 899 LINE",
"253 771 LINE",
"125 771 LINE",
"125 -3 LINE",
"387 -3 LINE",
"387 253 LINE",
"509 253 LINE",
"509 125 LINE",
"637 125 LINE",
"637 -3 LINE",
"899 -3 LINE",
"899 765 LINE",
"1027 765 LINE",
"1027 899 LINE",
"765 899 LINE"
);
},
{
closed = 1;
nodes = (
"637 387 LINE",
"515 387 LINE",
"515 515 LINE",
"387 515 LINE",
"387 765 LINE",
"509 765 LINE",
"509 637 LINE",
"637 637 LINE"
);
}
);
};
components = (
{
name = N.case;
},
{
name = tilde;
}
);
layerId = "A1CF3A9E-1F49-4701-AF3E-F0E694793914";
width = 1024;
},
{
background = {
paths = (
{
closed = 1;
nodes = (
"765 771 LINE {name = hr00;}",
"643 771 LINE",
"643 899 LINE",
"253 899 LINE",
"253 771 LINE",
"125 771 LINE",
"125 -3 LINE",
"387 -3 LINE",
"387 253 LINE",
"509 253 LINE",
"509 125 LINE",
"637 125 LINE",
"637 -3 LINE",
"899 -3 LINE",
"899 765 LINE",
"1027 765 LINE",
"1027 899 LINE",
"765 899 LINE"
);
},
{
closed = 1;
nodes = (
"637 387 LINE",
"515 387 LINE",
"515 515 LINE",
"387 515 LINE",
"387 765 LINE",
"509 765 LINE",
"509 637 LINE",
"637 637 LINE"
);
}
);
};
components = (
{
name = N.case;
},
{
name = tilde;
}
);
layerId = "93054D9F-9072-4363-B5A9-8BAB03B66C21";
width = 1024;
},
{
background = {
paths = (
{
closed = 1;
nodes = (
"765 771 LINE {name = hr00;}",
"643 771 LINE",
"643 899 LINE",
"253 899 LINE",
"253 771 LINE",
"125 771 LINE",
"125 -3 LINE",
"387 -3 LINE",
"387 253 LINE",
"509 253 LINE",
"509 125 LINE",
"637 125 LINE",
"637 -3 LINE",
"899 -3 LINE",
"899 765 LINE",
"1027 765 LINE",
"1027 899 LINE",
"765 899 LINE"
);
},
{
closed = 1;
nodes = (
"637 387 LINE",
"515 387 LINE",
"515 515 LINE",
"387 515 LINE",
"387 765 LINE",
"509 765 LINE",
"509 637 LINE",
"637 637 LINE"
);
}
);
};
components = (
{
name = N.case;
},
{
name = tilde;
}
);
layerId = "B2CED426-8D3E-4D4E-926E-917DB7E3651C";
width = 1024;
}
);
unicode = 00D1;
userData = {
com.typemytype.robofont.mark = (
0.967,
0.6,
1,
1
);
};
},
{
color = 4;
glyphname = O;
layers = (
{
background = {
paths = (
{
closed = 1;
nodes = (
"253 -3 LINE {name = hr00;}",
"771 -3 LINE",
"771 125 LINE",
"899 125 LINE",
"899 771 LINE",
"771 771 LINE",
"771 899 LINE",
"253 899 LINE",
"253 771 LINE",
"125 771 LINE",
"125 125 LINE",
"253 125 LINE"
);
},
{
closed = 1;
nodes = (
"637 131 LINE",
"387 131 LINE",
"387 765 LINE",
"637 765 LINE"
);
}
);
};
components = (
{
name = pixel.4;
transform = "{1, 0, 0, 1, 256, 0}";
},
{
name = pixel.2;
transform = "{1, 0, 0, 1, 128, 128}";
},
{
name = pixel.2;
transform = "{1, 0, 0, 1, 640, 128}";
},
{
name = pixel.2;
transform = "{1, 0, 0, 1, 128, 256}";
},
{
name = pixel.2;
transform = "{1, 0, 0, 1, 640, 256}";
},
{
name = pixel.2;
transform = "{1, 0, 0, 1, 128, 384}";
},
{
name = pixel.2;
transform = "{1, 0, 0, 1, 640, 384}";
},
{
name = pixel.2;
transform = "{1, 0, 0, 1, 128, 512}";
},
{
name = pixel.2;
transform = "{1, 0, 0, 1, 640, 512}";
},
{
name = pixel.2;
transform = "{1, 0, 0, 1, 128, 640}";
},
{
name = pixel.2;
transform = "{1, 0, 0, 1, 640, 640}";
},
{
name = pixel.4;
transform = "{1, 0, 0, 1, 256, 768}";
}
);
layerId = "511DE76B-C93C-4D1E-A4F3-1BF977EE06C9";
width = 1024;
},
{
background = {
paths = (
{
closed = 1;
nodes = (
"253 -3 LINE {name = hr00;}",
"771 -3 LINE",
"771 125 LINE",
"899 125 LINE",
"899 771 LINE",
"771 771 LINE",
"771 899 LINE",
"253 899 LINE",
"253 771 LINE",
"125 771 LINE",
"125 125 LINE",
"253 125 LINE"
);
},
{
closed = 1;
nodes = (
"637 131 LINE",
"387 131 LINE",
"387 765 LINE",
"637 765 LINE"
);
}
);
};
components = (
{
name = pixel.4;
transform = "{1, 0, 0, 1, 256, 0}";
},
{
name = pixel.2;
transform = "{1, 0, 0, 1, 128, 128}";
},
{
name = pixel.2;
transform = "{1, 0, 0, 1, 640, 128}";
},
{
name = pixel.2;
transform = "{1, 0, 0, 1, 128, 256}";
},
{
name = pixel.2;
transform = "{1, 0, 0, 1, 640, 256}";
},
{
name = pixel.2;
transform = "{1, 0, 0, 1, 128, 384}";
},
{
name = pixel.2;
transform = "{1, 0, 0, 1, 640, 384}";
},
{
name = pixel.2;
transform = "{1, 0, 0, 1, 128, 512}";
},
{
name = pixel.2;
transform = "{1, 0, 0, 1, 640, 512}";
},
{
name = pixel.2;
transform = "{1, 0, 0, 1, 128, 640}";
},
{
name = pixel.2;
transform = "{1, 0, 0, 1, 640, 640}";
},
{
name = pixel.4;
transform = "{1, 0, 0, 1, 256, 768}";
}
);
layerId = "A1CF3A9E-1F49-4701-AF3E-F0E694793914";
width = 1024;
},
{
background = {
paths = (
{
closed = 1;
nodes = (
"253 -3 LINE {name = hr00;}",
"771 -3 LINE",
"771 125 LINE",
"899 125 LINE",
"899 771 LINE",
"771 771 LINE",
"771 899 LINE",
"253 899 LINE",
"253 771 LINE",
"125 771 LINE",
"125 125 LINE",
"253 125 LINE"
);
},
{
closed = 1;
nodes = (
"637 131 LINE",
"387 131 LINE",
"387 765 LINE",
"637 765 LINE"
);
}
);
};
components = (
{
name = pixel.4;
transform = "{1, 0, 0, 1, 256, 0}";
},
{
name = pixel.2;
transform = "{1, 0, 0, 1, 128, 128}";
},
{
name = pixel.2;
transform = "{1, 0, 0, 1, 640, 128}";
},
{
name = pixel.2;
transform = "{1, 0, 0, 1, 128, 256}";
},
{
name = pixel.2;
transform = "{1, 0, 0, 1, 640, 256}";
},
{
name = pixel.2;
transform = "{1, 0, 0, 1, 128, 384}";
},
{
name = pixel.2;
transform = "{1, 0, 0, 1, 640, 384}";
},
{
name = pixel.2;
transform = "{1, 0, 0, 1, 128, 512}";
},
{
name = pixel.2;
transform = "{1, 0, 0, 1, 640, 512}";
},
{
name = pixel.2;
transform = "{1, 0, 0, 1, 128, 640}";
},
{
name = pixel.2;
transform = "{1, 0, 0, 1, 640, 640}";
},
{
name = pixel.4;
transform = "{1, 0, 0, 1, 256, 768}";
}
);
layerId = "93054D9F-9072-4363-B5A9-8BAB03B66C21";
width = 1024;
},
{
background = {
paths = (
{
closed = 1;
nodes = (
"253 -3 LINE {name = hr00;}",
"771 -3 LINE",
"771 125 LINE",
"899 125 LINE",
"899 771 LINE",
"771 771 LINE",
"771 899 LINE",
"253 899 LINE",
"253 771 LINE",
"125 771 LINE",
"125 125 LINE",
"253 125 LINE"
);
},
{
closed = 1;
nodes = (
"637 131 LINE",
"387 131 LINE",
"387 765 LINE",
"637 765 LINE"
);
}
);
};
components = (
{
name = pixel.4;
transform = "{1, 0, 0, 1, 256, 0}";
},
{
name = pixel.2;
transform = "{1, 0, 0, 1, 128, 128}";
},
{
name = pixel.2;
transform = "{1, 0, 0, 1, 640, 128}";
},
{
name = pixel.2;
transform = "{1, 0, 0, 1, 128, 256}";
},
{
name = pixel.2;
transform = "{1, 0, 0, 1, 640, 256}";
},
{
name = pixel.2;
transform = "{1, 0, 0, 1, 128, 384}";
},
{
name = pixel.2;
transform = "{1, 0, 0, 1, 640, 384}";
},
{
name = pixel.2;
transform = "{1, 0, 0, 1, 128, 512}";
},
{
name = pixel.2;
transform = "{1, 0, 0, 1, 640, 512}";
},
{
name = pixel.2;
transform = "{1, 0, 0, 1, 128, 640}";
},
{
name = pixel.2;
transform = "{1, 0, 0, 1, 640, 640}";
},
{
name = pixel.4;
transform = "{1, 0, 0, 1, 256, 768}";
}
);
layerId = "B2CED426-8D3E-4D4E-926E-917DB7E3651C";
width = 1024;
}
);
unicode = 004F;
userData = {
com.typemytype.robofont.mark = (
1,
0.6,
0.6,
1
);
};
},
{
color = 6;
glyphname = Odieresis;
layers = (
{
background = {
paths = (
{
closed = 1;
nodes = (
"125 765 LINE {name = hr00;}",
"253 765 LINE",
"253 643 LINE",
"125 643 LINE",
"125 125 LINE",
"253 125 LINE",
"253 -3 LINE",
"771 -3 LINE",
"771 125 LINE",
"899 125 LINE",
"899 643 LINE",
"771 643 LINE",
"771 765 LINE",
"899 765 LINE",
"899 899 LINE",
"637 899 LINE",
"637 771 LINE",
"387 771 LINE",
"387 899 LINE",
"125 899 LINE"
);
},
{
closed = 1;
nodes = (
"637 131 LINE",
"387 131 LINE",
"387 637 LINE",
"637 637 LINE"
);
}
);
};
components = (
{
name = O.case;
},
{
name = dieresis;
}
);
layerId = "511DE76B-C93C-4D1E-A4F3-1BF977EE06C9";
width = 1024;
},
{
background = {
paths = (
{
closed = 1;
nodes = (
"125 765 LINE {name = hr00;}",
"253 765 LINE",
"253 643 LINE",
"125 643 LINE",
"125 125 LINE",
"253 125 LINE",
"253 -3 LINE",
"771 -3 LINE",
"771 125 LINE",
"899 125 LINE",
"899 643 LINE",
"771 643 LINE",
"771 765 LINE",
"899 765 LINE",
"899 899 LINE",
"637 899 LINE",
"637 771 LINE",
"387 771 LINE",
"387 899 LINE",
"125 899 LINE"
);
},
{
closed = 1;
nodes = (
"637 131 LINE",
"387 131 LINE",
"387 637 LINE",
"637 637 LINE"
);
}
);
};
components = (
{
name = O.case;
},
{
name = dieresis;
}
);
layerId = "A1CF3A9E-1F49-4701-AF3E-F0E694793914";
width = 1024;
},
{
background = {
paths = (
{
closed = 1;
nodes = (
"125 765 LINE {name = hr00;}",
"253 765 LINE",
"253 643 LINE",
"125 643 LINE",
"125 125 LINE",
"253 125 LINE",
"253 -3 LINE",
"771 -3 LINE",
"771 125 LINE",
"899 125 LINE",
"899 643 LINE",
"771 643 LINE",
"771 765 LINE",
"899 765 LINE",
"899 899 LINE",
"637 899 LINE",
"637 771 LINE",
"387 771 LINE",
"387 899 LINE",
"125 899 LINE"
);
},
{
closed = 1;
nodes = (
"637 131 LINE",
"387 131 LINE",
"387 637 LINE",
"637 637 LINE"
);
}
);
};
components = (
{
name = O.case;
},
{
name = dieresis;
}
);
layerId = "93054D9F-9072-4363-B5A9-8BAB03B66C21";
width = 1024;
},
{
background = {
paths = (
{
closed = 1;
nodes = (
"125 765 LINE {name = hr00;}",
"253 765 LINE",
"253 643 LINE",
"125 643 LINE",
"125 125 LINE",
"253 125 LINE",
"253 -3 LINE",
"771 -3 LINE",
"771 125 LINE",
"899 125 LINE",
"899 643 LINE",
"771 643 LINE",
"771 765 LINE",
"899 765 LINE",
"899 899 LINE",
"637 899 LINE",
"637 771 LINE",
"387 771 LINE",
"387 899 LINE",
"125 899 LINE"
);
},
{
closed = 1;
nodes = (
"637 131 LINE",
"387 131 LINE",
"387 637 LINE",
"637 637 LINE"
);
}
);
};
components = (
{
name = O.case;
},
{
name = dieresis;
}
);
layerId = "B2CED426-8D3E-4D4E-926E-917DB7E3651C";
width = 1024;
}
);
unicode = 00D6;
userData = {
com.typemytype.robofont.mark = (
0.967,
0.6,
1,
1
);
};
},
{
color = 4;
glyphname = Oslash;
layers = (
{
background = {
paths = (
{
closed = 1;
nodes = (
"125 -3 LINE {name = hr00;}",
"771 -3 LINE",
"771 125 LINE",
"899 125 LINE",
"899 899 LINE",
"253 899 LINE",
"253 771 LINE",
"125 771 LINE"
);
},
{
closed = 1;
nodes = (
"515 381 LINE",
"637 381 LINE",
"637 131 LINE",
"387 131 LINE",
"387 253 LINE",
"515 253 LINE"
);
},
{
closed = 1;
nodes = (
"509 515 LINE",
"387 515 LINE",
"387 765 LINE",
"637 765 LINE",
"637 643 LINE",
"509 643 LINE"
);
}
);
};
components = (
{
name = pixel.5;
transform = "{1, 0, 0, 1, 128, 0}";
},
{
name = pixel.2;
transform = "{1, 0, 0, 1, 128, 128}";
},
{
name = pixel.2;
transform = "{1, 0, 0, 1, 640, 128}";
},
{
name = pixel.3;
transform = "{1, 0, 0, 1, 128, 256}";
},
{
name = pixel.2;
transform = "{1, 0, 0, 1, 640, 256}";
},
{
name = pixel.6;
transform = "{1, 0, 0, 1, 128, 384}";
},
{
name = pixel.2;
transform = "{1, 0, 0, 1, 128, 512}";
},
{
name = pixel.3;
transform = "{1, 0, 0, 1, 512, 512}";
},
{
name = pixel.2;
transform = "{1, 0, 0, 1, 128, 640}";
},
{
name = pixel.2;
transform = "{1, 0, 0, 1, 640, 640}";
},
{
name = pixel.5;
transform = "{1, 0, 0, 1, 256, 768}";
}
);
layerId = "511DE76B-C93C-4D1E-A4F3-1BF977EE06C9";
width = 1024;
},
{
background = {
paths = (
{
closed = 1;
nodes = (
"125 -3 LINE {name = hr00;}",
"771 -3 LINE",
"771 125 LINE",
"899 125 LINE",
"899 899 LINE",
"253 899 LINE",
"253 771 LINE",
"125 771 LINE"
);
},
{
closed = 1;
nodes = (
"515 381 LINE",
"637 381 LINE",
"637 131 LINE",
"387 131 LINE",
"387 253 LINE",
"515 253 LINE"
);
},
{
closed = 1;
nodes = (
"509 515 LINE",
"387 515 LINE",
"387 765 LINE",
"637 765 LINE",
"637 643 LINE",
"509 643 LINE"
);
}
);
};
components = (
{
name = pixel.5;
transform = "{1, 0, 0, 1, 128, 0}";
},
{
name = pixel.2;
transform = "{1, 0, 0, 1, 128, 128}";
},
{
name = pixel.2;
transform = "{1, 0, 0, 1, 640, 128}";
},
{
name = pixel.3;
transform = "{1, 0, 0, 1, 128, 256}";
},
{
name = pixel.2;
transform = "{1, 0, 0, 1, 640, 256}";
},
{
name = pixel.6;
transform = "{1, 0, 0, 1, 128, 384}";
},
{
name = pixel.2;
transform = "{1, 0, 0, 1, 128, 512}";
},
{
name = pixel.3;
transform = "{1, 0, 0, 1, 512, 512}";
},
{
name = pixel.2;
transform = "{1, 0, 0, 1, 128, 640}";
},
{
name = pixel.2;
transform = "{1, 0, 0, 1, 640, 640}";
},
{
name = pixel.5;
transform = "{1, 0, 0, 1, 256, 768}";
}
);
layerId = "A1CF3A9E-1F49-4701-AF3E-F0E694793914";
width = 1024;
},
{
background = {
paths = (
{
closed = 1;
nodes = (
"125 -3 LINE {name = hr00;}",
"771 -3 LINE",
"771 125 LINE",
"899 125 LINE",
"899 899 LINE",
"253 899 LINE",
"253 771 LINE",
"125 771 LINE"
);
},
{
closed = 1;
nodes = (
"515 381 LINE",
"637 381 LINE",
"637 131 LINE",
"387 131 LINE",
"387 253 LINE",
"515 253 LINE"
);
},
{
closed = 1;
nodes = (
"509 515 LINE",
"387 515 LINE",
"387 765 LINE",
"637 765 LINE",
"637 643 LINE",
"509 643 LINE"
);
}
);
};
components = (
{
name = pixel.5;
transform = "{1, 0, 0, 1, 128, 0}";
},
{
name = pixel.2;
transform = "{1, 0, 0, 1, 128, 128}";
},
{
name = pixel.2;
transform = "{1, 0, 0, 1, 640, 128}";
},
{
name = pixel.3;
transform = "{1, 0, 0, 1, 128, 256}";
},
{
name = pixel.2;
transform = "{1, 0, 0, 1, 640, 256}";
},
{
name = pixel.6;
transform = "{1, 0, 0, 1, 128, 384}";
},
{
name = pixel.2;
transform = "{1, 0, 0, 1, 128, 512}";
},
{
name = pixel.3;
transform = "{1, 0, 0, 1, 512, 512}";
},
{
name = pixel.2;
transform = "{1, 0, 0, 1, 128, 640}";
},
{
name = pixel.2;
transform = "{1, 0, 0, 1, 640, 640}";
},
{
name = pixel.5;
transform = "{1, 0, 0, 1, 256, 768}";
}
);
layerId = "93054D9F-9072-4363-B5A9-8BAB03B66C21";
width = 1024;
},
{
background = {
paths = (
{
closed = 1;
nodes = (
"125 -3 LINE {name = hr00;}",
"771 -3 LINE",
"771 125 LINE",
"899 125 LINE",
"899 899 LINE",
"253 899 LINE",
"253 771 LINE",
"125 771 LINE"
);
},
{
closed = 1;
nodes = (
"515 381 LINE",
"637 381 LINE",
"637 131 LINE",
"387 131 LINE",
"387 253 LINE",
"515 253 LINE"
);
},
{
closed = 1;
nodes = (
"509 515 LINE",
"387 515 LINE",
"387 765 LINE",
"637 765 LINE",
"637 643 LINE",
"509 643 LINE"
);
}
);
};
components = (
{
name = pixel.5;
transform = "{1, 0, 0, 1, 128, 0}";
},
{
name = pixel.2;
transform = "{1, 0, 0, 1, 128, 128}";
},
{
name = pixel.2;
transform = "{1, 0, 0, 1, 640, 128}";
},
{
name = pixel.3;
transform = "{1, 0, 0, 1, 128, 256}";
},
{
name = pixel.2;
transform = "{1, 0, 0, 1, 640, 256}";
},
{
name = pixel.6;
transform = "{1, 0, 0, 1, 128, 384}";
},
{
name = pixel.2;
transform = "{1, 0, 0, 1, 128, 512}";
},
{
name = pixel.3;
transform = "{1, 0, 0, 1, 512, 512}";
},
{
name = pixel.2;
transform = "{1, 0, 0, 1, 128, 640}";
},
{
name = pixel.2;
transform = "{1, 0, 0, 1, 640, 640}";
},
{
name = pixel.5;
transform = "{1, 0, 0, 1, 256, 768}";
}
);
layerId = "B2CED426-8D3E-4D4E-926E-917DB7E3651C";
width = 1024;
}
);
unicode = 00D8;
userData = {
com.typemytype.robofont.mark = (
0.967,
0.6,
1,
1
);
};
},
{
color = 4;
glyphname = OE;
layers = (
{
background = {
paths = (
{
closed = 1;
nodes = (
"771 381 LINE {name = hr00;}",
"899 381 LINE",
"899 515 LINE",
"771 515 LINE",
"771 765 LINE",
"1027 765 LINE",
"1027 899 LINE",
"253 899 LINE",
"253 771 LINE",
"125 771 LINE",
"125 125 LINE",
"253 125 LINE",
"253 -3 LINE",
"1027 -3 LINE",
"1027 131 LINE",
"771 131 LINE"
);
},
{
closed = 1;
nodes = (
"509 131 LINE",
"387 131 LINE",
"387 765 LINE",
"509 765 LINE"
);
}
);
};
components = (
{
name = pixel.6;
transform = "{1, 0, 0, 1, 256, 0}";
},
{
name = pixel.2;
transform = "{1, 0, 0, 1, 128, 128}";
},
{
name = pixel.2;
transform = "{1, 0, 0, 1, 512, 128}";
},
{
name = pixel.2;
transform = "{1, 0, 0, 1, 128, 256}";
},
{
name = pixel.2;
transform = "{1, 0, 0, 1, 512, 256}";
},
{
name = pixel.2;
transform = "{1, 0, 0, 1, 128, 384}";
},
{
name = pixel.3;
transform = "{1, 0, 0, 1, 512, 384}";
},
{
name = pixel.2;
transform = "{1, 0, 0, 1, 128, 512}";
},
{
name = pixel.2;
transform = "{1, 0, 0, 1, 512, 512}";
},
{
name = pixel.2;
transform = "{1, 0, 0, 1, 128, 640}";
},
{
name = pixel.2;
transform = "{1, 0, 0, 1, 512, 640}";
},
{
name = pixel.6;
transform = "{1, 0, 0, 1, 256, 768}";
}
);
layerId = "511DE76B-C93C-4D1E-A4F3-1BF977EE06C9";
width = 1024;
},
{
background = {
paths = (
{
closed = 1;
nodes = (
"771 381 LINE {name = hr00;}",
"899 381 LINE",
"899 515 LINE",
"771 515 LINE",
"771 765 LINE",
"1027 765 LINE",
"1027 899 LINE",
"253 899 LINE",
"253 771 LINE",
"125 771 LINE",
"125 125 LINE",
"253 125 LINE",
"253 -3 LINE",
"1027 -3 LINE",
"1027 131 LINE",
"771 131 LINE"
);
},
{
closed = 1;
nodes = (
"509 131 LINE",
"387 131 LINE",
"387 765 LINE",
"509 765 LINE"
);
}
);
};
components = (
{
name = pixel.6;
transform = "{1, 0, 0, 1, 256, 0}";
},
{
name = pixel.2;
transform = "{1, 0, 0, 1, 128, 128}";
},
{
name = pixel.2;
transform = "{1, 0, 0, 1, 512, 128}";
},
{
name = pixel.2;
transform = "{1, 0, 0, 1, 128, 256}";
},
{
name = pixel.2;
transform = "{1, 0, 0, 1, 512, 256}";
},
{
name = pixel.2;
transform = "{1, 0, 0, 1, 128, 384}";
},
{
name = pixel.3;
transform = "{1, 0, 0, 1, 512, 384}";
},
{
name = pixel.2;
transform = "{1, 0, 0, 1, 128, 512}";
},
{
name = pixel.2;
transform = "{1, 0, 0, 1, 512, 512}";
},
{
name = pixel.2;
transform = "{1, 0, 0, 1, 128, 640}";
},
{
name = pixel.2;
transform = "{1, 0, 0, 1, 512, 640}";
},
{
name = pixel.6;
transform = "{1, 0, 0, 1, 256, 768}";
}
);
layerId = "A1CF3A9E-1F49-4701-AF3E-F0E694793914";
width = 1024;
},
{
background = {
paths = (
{
closed = 1;
nodes = (
"771 381 LINE {name = hr00;}",
"899 381 LINE",
"899 515 LINE",
"771 515 LINE",
"771 765 LINE",
"1027 765 LINE",
"1027 899 LINE",
"253 899 LINE",
"253 771 LINE",
"125 771 LINE",
"125 125 LINE",
"253 125 LINE",
"253 -3 LINE",
"1027 -3 LINE",
"1027 131 LINE",
"771 131 LINE"
);
},
{
closed = 1;
nodes = (
"509 131 LINE",
"387 131 LINE",
"387 765 LINE",
"509 765 LINE"
);
}
);
};
components = (
{
name = pixel.6;
transform = "{1, 0, 0, 1, 256, 0}";
},
{
name = pixel.2;
transform = "{1, 0, 0, 1, 128, 128}";
},
{
name = pixel.2;
transform = "{1, 0, 0, 1, 512, 128}";
},
{
name = pixel.2;
transform = "{1, 0, 0, 1, 128, 256}";
},
{
name = pixel.2;
transform = "{1, 0, 0, 1, 512, 256}";
},
{
name = pixel.2;
transform = "{1, 0, 0, 1, 128, 384}";
},
{
name = pixel.3;
transform = "{1, 0, 0, 1, 512, 384}";
},
{
name = pixel.2;
transform = "{1, 0, 0, 1, 128, 512}";
},
{
name = pixel.2;
transform = "{1, 0, 0, 1, 512, 512}";
},
{
name = pixel.2;
transform = "{1, 0, 0, 1, 128, 640}";
},
{
name = pixel.2;
transform = "{1, 0, 0, 1, 512, 640}";
},
{
name = pixel.6;
transform = "{1, 0, 0, 1, 256, 768}";
}
);
layerId = "93054D9F-9072-4363-B5A9-8BAB03B66C21";
width = 1024;
},
{
background = {
paths = (
{
closed = 1;
nodes = (
"771 381 LINE {name = hr00;}",
"899 381 LINE",
"899 515 LINE",
"771 515 LINE",
"771 765 LINE",
"1027 765 LINE",
"1027 899 LINE",
"253 899 LINE",
"253 771 LINE",
"125 771 LINE",
"125 125 LINE",
"253 125 LINE",
"253 -3 LINE",
"1027 -3 LINE",
"1027 131 LINE",
"771 131 LINE"
);
},
{
closed = 1;
nodes = (
"509 131 LINE",
"387 131 LINE",
"387 765 LINE",
"509 765 LINE"
);
}
);
};
components = (
{
name = pixel.6;
transform = "{1, 0, 0, 1, 256, 0}";
},
{
name = pixel.2;
transform = "{1, 0, 0, 1, 128, 128}";
},
{
name = pixel.2;
transform = "{1, 0, 0, 1, 512, 128}";
},
{
name = pixel.2;
transform = "{1, 0, 0, 1, 128, 256}";
},
{
name = pixel.2;
transform = "{1, 0, 0, 1, 512, 256}";
},
{
name = pixel.2;
transform = "{1, 0, 0, 1, 128, 384}";
},
{
name = pixel.3;
transform = "{1, 0, 0, 1, 512, 384}";
},
{
name = pixel.2;
transform = "{1, 0, 0, 1, 128, 512}";
},
{
name = pixel.2;
transform = "{1, 0, 0, 1, 512, 512}";
},
{
name = pixel.2;
transform = "{1, 0, 0, 1, 128, 640}";
},
{
name = pixel.2;
transform = "{1, 0, 0, 1, 512, 640}";
},
{
name = pixel.6;
transform = "{1, 0, 0, 1, 256, 768}";
}
);
layerId = "B2CED426-8D3E-4D4E-926E-917DB7E3651C";
width = 1024;
}
);
unicode = 0152;
userData = {
com.typemytype.robofont.mark = (
0.967,
0.6,
1,
1
);
};
},
{
color = 4;
glyphname = P;
layers = (
{
background = {
paths = (
{
closed = 1;
nodes = (
"387 381 LINE {name = hr00;}",
"771 381 LINE",
"771 509 LINE",
"899 509 LINE",
"899 771 LINE",
"771 771 LINE",
"771 899 LINE",
"125 899 LINE",
"125 -3 LINE",
"387 -3 LINE"
);
},
{
closed = 1;
nodes = (
"387 765 LINE",
"637 765 LINE",
"637 515 LINE",
"387 515 LINE"
);
}
);
};
components = (
{
name = pixel.2;
transform = "{1, 0, 0, 1, 128, 0}";
},
{
name = pixel.2;
transform = "{1, 0, 0, 1, 128, 128}";
},
{
name = pixel.2;
transform = "{1, 0, 0, 1, 128, 256}";
},
{
name = pixel.5;
transform = "{1, 0, 0, 1, 128, 384}";
},
{
name = pixel.2;
transform = "{1, 0, 0, 1, 128, 512}";
},
{
name = pixel.2;
transform = "{1, 0, 0, 1, 640, 512}";
},
{
name = pixel.2;
transform = "{1, 0, 0, 1, 128, 640}";
},
{
name = pixel.2;
transform = "{1, 0, 0, 1, 640, 640}";
},
{
name = pixel.5;
transform = "{1, 0, 0, 1, 128, 768}";
}
);
layerId = "511DE76B-C93C-4D1E-A4F3-1BF977EE06C9";
width = 1024;
},
{
background = {
paths = (
{
closed = 1;
nodes = (
"387 381 LINE {name = hr00;}",
"771 381 LINE",
"771 509 LINE",
"899 509 LINE",
"899 771 LINE",
"771 771 LINE",
"771 899 LINE",
"125 899 LINE",
"125 -3 LINE",
"387 -3 LINE"
);
},
{
closed = 1;
nodes = (
"387 765 LINE",
"637 765 LINE",
"637 515 LINE",
"387 515 LINE"
);
}
);
};
components = (
{
name = pixel.2;
transform = "{1, 0, 0, 1, 128, 0}";
},
{
name = pixel.2;
transform = "{1, 0, 0, 1, 128, 128}";
},
{
name = pixel.2;
transform = "{1, 0, 0, 1, 128, 256}";
},
{
name = pixel.5;
transform = "{1, 0, 0, 1, 128, 384}";
},
{
name = pixel.2;
transform = "{1, 0, 0, 1, 128, 512}";
},
{
name = pixel.2;
transform = "{1, 0, 0, 1, 640, 512}";
},
{
name = pixel.2;
transform = "{1, 0, 0, 1, 128, 640}";
},
{
name = pixel.2;
transform = "{1, 0, 0, 1, 640, 640}";
},
{
name = pixel.5;
transform = "{1, 0, 0, 1, 128, 768}";
}
);
layerId = "A1CF3A9E-1F49-4701-AF3E-F0E694793914";
width = 1024;
},
{
background = {
paths = (
{
closed = 1;
nodes = (
"387 381 LINE {name = hr00;}",
"771 381 LINE",
"771 509 LINE",
"899 509 LINE",
"899 771 LINE",
"771 771 LINE",
"771 899 LINE",
"125 899 LINE",
"125 -3 LINE",
"387 -3 LINE"
);
},
{
closed = 1;
nodes = (
"387 765 LINE",
"637 765 LINE",
"637 515 LINE",
"387 515 LINE"
);
}
);
};
components = (
{
name = pixel.2;
transform = "{1, 0, 0, 1, 128, 0}";
},
{
name = pixel.2;
transform = "{1, 0, 0, 1, 128, 128}";
},
{
name = pixel.2;
transform = "{1, 0, 0, 1, 128, 256}";
},
{
name = pixel.5;
transform = "{1, 0, 0, 1, 128, 384}";
},
{
name = pixel.2;
transform = "{1, 0, 0, 1, 128, 512}";
},
{
name = pixel.2;
transform = "{1, 0, 0, 1, 640, 512}";
},
{
name = pixel.2;
transform = "{1, 0, 0, 1, 128, 640}";
},
{
name = pixel.2;
transform = "{1, 0, 0, 1, 640, 640}";
},
{
name = pixel.5;
transform = "{1, 0, 0, 1, 128, 768}";
}
);
layerId = "93054D9F-9072-4363-B5A9-8BAB03B66C21";
width = 1024;
},
{
background = {
paths = (
{
closed = 1;
nodes = (
"387 381 LINE {name = hr00;}",
"771 381 LINE",
"771 509 LINE",
"899 509 LINE",
"899 771 LINE",
"771 771 LINE",
"771 899 LINE",
"125 899 LINE",
"125 -3 LINE",
"387 -3 LINE"
);
},
{
closed = 1;
nodes = (
"387 765 LINE",
"637 765 LINE",
"637 515 LINE",
"387 515 LINE"
);
}
);
};
components = (
{
name = pixel.2;
transform = "{1, 0, 0, 1, 128, 0}";
},
{
name = pixel.2;
transform = "{1, 0, 0, 1, 128, 128}";
},
{
name = pixel.2;
transform = "{1, 0, 0, 1, 128, 256}";
},
{
name = pixel.5;
transform = "{1, 0, 0, 1, 128, 384}";
},
{
name = pixel.2;
transform = "{1, 0, 0, 1, 128, 512}";
},
{
name = pixel.2;
transform = "{1, 0, 0, 1, 640, 512}";
},
{
name = pixel.2;
transform = "{1, 0, 0, 1, 128, 640}";
},
{
name = pixel.2;
transform = "{1, 0, 0, 1, 640, 640}";
},
{
name = pixel.5;
transform = "{1, 0, 0, 1, 128, 768}";
}
);
layerId = "B2CED426-8D3E-4D4E-926E-917DB7E3651C";
width = 1024;
}
);
unicode = 0050;
userData = {
com.typemytype.robofont.mark = (
1,
0.6,
0.6,
1
);
};
},
{
color = 4;
glyphname = Thorn;
layers = (
{
background = {
paths = (
{
closed = 1;
nodes = (
"387 125 LINE {name = hr00;}",
"771 125 LINE",
"771 253 LINE",
"899 253 LINE",
"899 643 LINE",
"771 643 LINE",
"771 771 LINE",
"387 771 LINE",
"387 899 LINE",
"125 899 LINE",
"125 -3 LINE",
"387 -3 LINE"
);
},
{
closed = 1;
nodes = (
"387 637 LINE",
"637 637 LINE",
"637 259 LINE",
"387 259 LINE"
);
}
);
};
components = (
{
name = pixel.2;
transform = "{1, 0, 0, 1, 128, 0}";
},
{
name = pixel.5;
transform = "{1, 0, 0, 1, 128, 128}";
},
{
name = pixel.2;
transform = "{1, 0, 0, 1, 128, 256}";
},
{
name = pixel.2;
transform = "{1, 0, 0, 1, 640, 256}";
},
{
name = pixel.2;
transform = "{1, 0, 0, 1, 128, 384}";
},
{
name = pixel.2;
transform = "{1, 0, 0, 1, 640, 384}";
},
{
name = pixel.2;
transform = "{1, 0, 0, 1, 128, 512}";
},
{
name = pixel.2;
transform = "{1, 0, 0, 1, 640, 512}";
},
{
name = pixel.5;
transform = "{1, 0, 0, 1, 128, 640}";
},
{
name = pixel.2;
transform = "{1, 0, 0, 1, 128, 768}";
}
);
layerId = "511DE76B-C93C-4D1E-A4F3-1BF977EE06C9";
width = 1024;
},
{
background = {
paths = (
{
closed = 1;
nodes = (
"387 125 LINE {name = hr00;}",
"771 125 LINE",
"771 253 LINE",
"899 253 LINE",
"899 643 LINE",
"771 643 LINE",
"771 771 LINE",
"387 771 LINE",
"387 899 LINE",
"125 899 LINE",
"125 -3 LINE",
"387 -3 LINE"
);
},
{
closed = 1;
nodes = (
"387 637 LINE",
"637 637 LINE",
"637 259 LINE",
"387 259 LINE"
);
}
);
};
components = (
{
name = pixel.2;
transform = "{1, 0, 0, 1, 128, 0}";
},
{
name = pixel.5;
transform = "{1, 0, 0, 1, 128, 128}";
},
{
name = pixel.2;
transform = "{1, 0, 0, 1, 128, 256}";
},
{
name = pixel.2;
transform = "{1, 0, 0, 1, 640, 256}";
},
{
name = pixel.2;
transform = "{1, 0, 0, 1, 128, 384}";
},
{
name = pixel.2;
transform = "{1, 0, 0, 1, 640, 384}";
},
{
name = pixel.2;
transform = "{1, 0, 0, 1, 128, 512}";
},
{
name = pixel.2;
transform = "{1, 0, 0, 1, 640, 512}";
},
{
name = pixel.5;
transform = "{1, 0, 0, 1, 128, 640}";
},
{
name = pixel.2;
transform = "{1, 0, 0, 1, 128, 768}";
}
);
layerId = "A1CF3A9E-1F49-4701-AF3E-F0E694793914";
width = 1024;
},
{
background = {
paths = (
{
closed = 1;
nodes = (
"387 125 LINE {name = hr00;}",
"771 125 LINE",
"771 253 LINE",
"899 253 LINE",
"899 643 LINE",
"771 643 LINE",
"771 771 LINE",
"387 771 LINE",
"387 899 LINE",
"125 899 LINE",
"125 -3 LINE",
"387 -3 LINE"
);
},
{
closed = 1;
nodes = (
"387 637 LINE",
"637 637 LINE",
"637 259 LINE",
"387 259 LINE"
);
}
);
};
components = (
{
name = pixel.2;
transform = "{1, 0, 0, 1, 128, 0}";
},
{
name = pixel.5;
transform = "{1, 0, 0, 1, 128, 128}";
},
{
name = pixel.2;
transform = "{1, 0, 0, 1, 128, 256}";
},
{
name = pixel.2;
transform = "{1, 0, 0, 1, 640, 256}";
},
{
name = pixel.2;
transform = "{1, 0, 0, 1, 128, 384}";
},
{
name = pixel.2;
transform = "{1, 0, 0, 1, 640, 384}";
},
{
name = pixel.2;
transform = "{1, 0, 0, 1, 128, 512}";
},
{
name = pixel.2;
transform = "{1, 0, 0, 1, 640, 512}";
},
{
name = pixel.5;
transform = "{1, 0, 0, 1, 128, 640}";
},
{
name = pixel.2;
transform = "{1, 0, 0, 1, 128, 768}";
}
);
layerId = "93054D9F-9072-4363-B5A9-8BAB03B66C21";
width = 1024;
},
{
background = {
paths = (
{
closed = 1;
nodes = (
"387 125 LINE {name = hr00;}",
"771 125 LINE",
"771 253 LINE",
"899 253 LINE",
"899 643 LINE",
"771 643 LINE",
"771 771 LINE",
"387 771 LINE",
"387 899 LINE",
"125 899 LINE",
"125 -3 LINE",
"387 -3 LINE"
);
},
{
closed = 1;
nodes = (
"387 637 LINE",
"637 637 LINE",
"637 259 LINE",
"387 259 LINE"
);
}
);
};
components = (
{
name = pixel.2;
transform = "{1, 0, 0, 1, 128, 0}";
},
{
name = pixel.5;
transform = "{1, 0, 0, 1, 128, 128}";
},
{
name = pixel.2;
transform = "{1, 0, 0, 1, 128, 256}";
},
{
name = pixel.2;
transform = "{1, 0, 0, 1, 640, 256}";
},
{
name = pixel.2;
transform = "{1, 0, 0, 1, 128, 384}";
},
{
name = pixel.2;
transform = "{1, 0, 0, 1, 640, 384}";
},
{
name = pixel.2;
transform = "{1, 0, 0, 1, 128, 512}";
},
{
name = pixel.2;
transform = "{1, 0, 0, 1, 640, 512}";
},
{
name = pixel.5;
transform = "{1, 0, 0, 1, 128, 640}";
},
{
name = pixel.2;
transform = "{1, 0, 0, 1, 128, 768}";
}
);
layerId = "B2CED426-8D3E-4D4E-926E-917DB7E3651C";
width = 1024;
}
);
unicode = 00DE;
userData = {
com.typemytype.robofont.mark = (
0.967,
0.6,
1,
1
);
};
},
{
color = 4;
glyphname = Q;
layers = (
{
background = {
paths = (
{
closed = 1;
nodes = (
"253 125 LINE {name = hr00;}",
"509 125 LINE",
"509 -3 LINE",
"899 -3 LINE",
"899 131 LINE",
"771 131 LINE",
"771 253 LINE",
"899 253 LINE",
"899 771 LINE",
"771 771 LINE",
"771 899 LINE",
"253 899 LINE",
"253 771 LINE",
"125 771 LINE",
"125 253 LINE",
"253 253 LINE"
);
},
{
closed = 1;
nodes = (
"637 259 LINE",
"387 259 LINE",
"387 765 LINE",
"637 765 LINE"
);
}
);
};
components = (
{
name = pixel.3;
transform = "{1, 0, 0, 1, 512, 0}";
},
{
name = pixel.4;
transform = "{1, 0, 0, 1, 256, 128}";
},
{
name = pixel.2;
transform = "{1, 0, 0, 1, 128, 256}";
},
{
name = pixel.2;
transform = "{1, 0, 0, 1, 640, 256}";
},
{
name = pixel.2;
transform = "{1, 0, 0, 1, 128, 384}";
},
{
name = pixel.2;
transform = "{1, 0, 0, 1, 640, 384}";
},
{
name = pixel.2;
transform = "{1, 0, 0, 1, 128, 512}";
},
{
name = pixel.2;
transform = "{1, 0, 0, 1, 640, 512}";
},
{
name = pixel.2;
transform = "{1, 0, 0, 1, 128, 640}";
},
{
name = pixel.2;
transform = "{1, 0, 0, 1, 640, 640}";
},
{
name = pixel.4;
transform = "{1, 0, 0, 1, 256, 768}";
}
);
layerId = "511DE76B-C93C-4D1E-A4F3-1BF977EE06C9";
width = 1024;
},
{
background = {
paths = (
{
closed = 1;
nodes = (
"253 125 LINE {name = hr00;}",
"509 125 LINE",
"509 -3 LINE",
"899 -3 LINE",
"899 131 LINE",
"771 131 LINE",
"771 253 LINE",
"899 253 LINE",
"899 771 LINE",
"771 771 LINE",
"771 899 LINE",
"253 899 LINE",
"253 771 LINE",
"125 771 LINE",
"125 253 LINE",
"253 253 LINE"
);
},
{
closed = 1;
nodes = (
"637 259 LINE",
"387 259 LINE",
"387 765 LINE",
"637 765 LINE"
);
}
);
};
components = (
{
name = pixel.3;
transform = "{1, 0, 0, 1, 512, 0}";
},
{
name = pixel.4;
transform = "{1, 0, 0, 1, 256, 128}";
},
{
name = pixel.2;
transform = "{1, 0, 0, 1, 128, 256}";
},
{
name = pixel.2;
transform = "{1, 0, 0, 1, 640, 256}";
},
{
name = pixel.2;
transform = "{1, 0, 0, 1, 128, 384}";
},
{
name = pixel.2;
transform = "{1, 0, 0, 1, 640, 384}";
},
{
name = pixel.2;
transform = "{1, 0, 0, 1, 128, 512}";
},
{
name = pixel.2;
transform = "{1, 0, 0, 1, 640, 512}";
},
{
name = pixel.2;
transform = "{1, 0, 0, 1, 128, 640}";
},
{
name = pixel.2;
transform = "{1, 0, 0, 1, 640, 640}";
},
{
name = pixel.4;
transform = "{1, 0, 0, 1, 256, 768}";
}
);
layerId = "A1CF3A9E-1F49-4701-AF3E-F0E694793914";
width = 1024;
},
{
background = {
paths = (
{
closed = 1;
nodes = (
"253 125 LINE {name = hr00;}",
"509 125 LINE",
"509 -3 LINE",
"899 -3 LINE",
"899 131 LINE",
"771 131 LINE",
"771 253 LINE",
"899 253 LINE",
"899 771 LINE",
"771 771 LINE",
"771 899 LINE",
"253 899 LINE",
"253 771 LINE",
"125 771 LINE",
"125 253 LINE",
"253 253 LINE"
);
},
{
closed = 1;
nodes = (
"637 259 LINE",
"387 259 LINE",
"387 765 LINE",
"637 765 LINE"
);
}
);
};
components = (
{
name = pixel.3;
transform = "{1, 0, 0, 1, 512, 0}";
},
{
name = pixel.4;
transform = "{1, 0, 0, 1, 256, 128}";
},
{
name = pixel.2;
transform = "{1, 0, 0, 1, 128, 256}";
},
{
name = pixel.2;
transform = "{1, 0, 0, 1, 640, 256}";
},
{
name = pixel.2;
transform = "{1, 0, 0, 1, 128, 384}";
},
{
name = pixel.2;
transform = "{1, 0, 0, 1, 640, 384}";
},
{
name = pixel.2;
transform = "{1, 0, 0, 1, 128, 512}";
},
{
name = pixel.2;
transform = "{1, 0, 0, 1, 640, 512}";
},
{
name = pixel.2;
transform = "{1, 0, 0, 1, 128, 640}";
},
{
name = pixel.2;
transform = "{1, 0, 0, 1, 640, 640}";
},
{
name = pixel.4;
transform = "{1, 0, 0, 1, 256, 768}";
}
);
layerId = "93054D9F-9072-4363-B5A9-8BAB03B66C21";
width = 1024;
},
{
background = {
paths = (
{
closed = 1;
nodes = (
"253 125 LINE {name = hr00;}",
"509 125 LINE",
"509 -3 LINE",
"899 -3 LINE",
"899 131 LINE",
"771 131 LINE",
"771 253 LINE",
"899 253 LINE",
"899 771 LINE",
"771 771 LINE",
"771 899 LINE",
"253 899 LINE",
"253 771 LINE",
"125 771 LINE",
"125 253 LINE",
"253 253 LINE"
);
},
{
closed = 1;
nodes = (
"637 259 LINE",
"387 259 LINE",
"387 765 LINE",
"637 765 LINE"
);
}
);
};
components = (
{
name = pixel.3;
transform = "{1, 0, 0, 1, 512, 0}";
},
{
name = pixel.4;
transform = "{1, 0, 0, 1, 256, 128}";
},
{
name = pixel.2;
transform = "{1, 0, 0, 1, 128, 256}";
},
{
name = pixel.2;
transform = "{1, 0, 0, 1, 640, 256}";
},
{
name = pixel.2;
transform = "{1, 0, 0, 1, 128, 384}";
},
{
name = pixel.2;
transform = "{1, 0, 0, 1, 640, 384}";
},
{
name = pixel.2;
transform = "{1, 0, 0, 1, 128, 512}";
},
{
name = pixel.2;
transform = "{1, 0, 0, 1, 640, 512}";
},
{
name = pixel.2;
transform = "{1, 0, 0, 1, 128, 640}";
},
{
name = pixel.2;
transform = "{1, 0, 0, 1, 640, 640}";
},
{
name = pixel.4;
transform = "{1, 0, 0, 1, 256, 768}";
}
);
layerId = "B2CED426-8D3E-4D4E-926E-917DB7E3651C";
width = 1024;
}
);
unicode = 0051;
userData = {
com.typemytype.robofont.mark = (
1,
0.6,
0.6,
1
);
};
},
{
color = 4;
glyphname = R;
layers = (
{
background = {
paths = (
{
closed = 1;
nodes = (
"387 253 LINE {name = hr00;}",
"509 253 LINE",
"509 125 LINE",
"637 125 LINE",
"637 -3 LINE",
"899 -3 LINE",
"899 131 LINE",
"771 131 LINE",
"771 259 LINE",
"643 259 LINE",
"643 381 LINE",
"771 381 LINE",
"771 509 LINE",
"899 509 LINE",
"899 771 LINE",
"771 771 LINE",
"771 899 LINE",
"125 899 LINE",
"125 -3 LINE",
"387 -3 LINE"
);
},
{
closed = 1;
nodes = (
"387 765 LINE",
"637 765 LINE",
"637 515 LINE",
"387 515 LINE"
);
}
);
};
components = (
{
name = pixel.2;
transform = "{1, 0, 0, 1, 128, 0}";
},
{
name = pixel.2;
transform = "{1, 0, 0, 1, 640, 0}";
},
{
name = pixel.2;
transform = "{1, 0, 0, 1, 128, 128}";
},
{
name = pixel.2;
transform = "{1, 0, 0, 1, 512, 128}";
},
{
name = pixel.4;
transform = "{1, 0, 0, 1, 128, 256}";
},
{
name = pixel.5;
transform = "{1, 0, 0, 1, 128, 384}";
},
{
name = pixel.2;
transform = "{1, 0, 0, 1, 128, 512}";
},
{
name = pixel.2;
transform = "{1, 0, 0, 1, 640, 512}";
},
{
name = pixel.2;
transform = "{1, 0, 0, 1, 128, 640}";
},
{
name = pixel.2;
transform = "{1, 0, 0, 1, 640, 640}";
},
{
name = pixel.5;
transform = "{1, 0, 0, 1, 128, 768}";
}
);
layerId = "511DE76B-C93C-4D1E-A4F3-1BF977EE06C9";
width = 1024;
},
{
background = {
paths = (
{
closed = 1;
nodes = (
"387 253 LINE {name = hr00;}",
"509 253 LINE",
"509 125 LINE",
"637 125 LINE",
"637 -3 LINE",
"899 -3 LINE",
"899 131 LINE",
"771 131 LINE",
"771 259 LINE",
"643 259 LINE",
"643 381 LINE",
"771 381 LINE",
"771 509 LINE",
"899 509 LINE",
"899 771 LINE",
"771 771 LINE",
"771 899 LINE",
"125 899 LINE",
"125 -3 LINE",
"387 -3 LINE"
);
},
{
closed = 1;
nodes = (
"387 765 LINE",
"637 765 LINE",
"637 515 LINE",
"387 515 LINE"
);
}
);
};
components = (
{
name = pixel.2;
transform = "{1, 0, 0, 1, 128, 0}";
},
{
name = pixel.2;
transform = "{1, 0, 0, 1, 640, 0}";
},
{
name = pixel.2;
transform = "{1, 0, 0, 1, 128, 128}";
},
{
name = pixel.2;
transform = "{1, 0, 0, 1, 512, 128}";
},
{
name = pixel.4;
transform = "{1, 0, 0, 1, 128, 256}";
},
{
name = pixel.5;
transform = "{1, 0, 0, 1, 128, 384}";
},
{
name = pixel.2;
transform = "{1, 0, 0, 1, 128, 512}";
},
{
name = pixel.2;
transform = "{1, 0, 0, 1, 640, 512}";
},
{
name = pixel.2;
transform = "{1, 0, 0, 1, 128, 640}";
},
{
name = pixel.2;
transform = "{1, 0, 0, 1, 640, 640}";
},
{
name = pixel.5;
transform = "{1, 0, 0, 1, 128, 768}";
}
);
layerId = "A1CF3A9E-1F49-4701-AF3E-F0E694793914";
width = 1024;
},
{
background = {
paths = (
{
closed = 1;
nodes = (
"387 253 LINE {name = hr00;}",
"509 253 LINE",
"509 125 LINE",
"637 125 LINE",
"637 -3 LINE",
"899 -3 LINE",
"899 131 LINE",
"771 131 LINE",
"771 259 LINE",
"643 259 LINE",
"643 381 LINE",
"771 381 LINE",
"771 509 LINE",
"899 509 LINE",
"899 771 LINE",
"771 771 LINE",
"771 899 LINE",
"125 899 LINE",
"125 -3 LINE",
"387 -3 LINE"
);
},
{
closed = 1;
nodes = (
"387 765 LINE",
"637 765 LINE",
"637 515 LINE",
"387 515 LINE"
);
}
);
};
components = (
{
name = pixel.2;
transform = "{1, 0, 0, 1, 128, 0}";
},
{
name = pixel.2;
transform = "{1, 0, 0, 1, 640, 0}";
},
{
name = pixel.2;
transform = "{1, 0, 0, 1, 128, 128}";
},
{
name = pixel.2;
transform = "{1, 0, 0, 1, 512, 128}";
},
{
name = pixel.4;
transform = "{1, 0, 0, 1, 128, 256}";
},
{
name = pixel.5;
transform = "{1, 0, 0, 1, 128, 384}";
},
{
name = pixel.2;
transform = "{1, 0, 0, 1, 128, 512}";
},
{
name = pixel.2;
transform = "{1, 0, 0, 1, 640, 512}";
},
{
name = pixel.2;
transform = "{1, 0, 0, 1, 128, 640}";
},
{
name = pixel.2;
transform = "{1, 0, 0, 1, 640, 640}";
},
{
name = pixel.5;
transform = "{1, 0, 0, 1, 128, 768}";
}
);
layerId = "93054D9F-9072-4363-B5A9-8BAB03B66C21";
width = 1024;
},
{
background = {
paths = (
{
closed = 1;
nodes = (
"387 253 LINE {name = hr00;}",
"509 253 LINE",
"509 125 LINE",
"637 125 LINE",
"637 -3 LINE",
"899 -3 LINE",
"899 131 LINE",
"771 131 LINE",
"771 259 LINE",
"643 259 LINE",
"643 381 LINE",
"771 381 LINE",
"771 509 LINE",
"899 509 LINE",
"899 771 LINE",
"771 771 LINE",
"771 899 LINE",
"125 899 LINE",
"125 -3 LINE",
"387 -3 LINE"
);
},
{
closed = 1;
nodes = (
"387 765 LINE",
"637 765 LINE",
"637 515 LINE",
"387 515 LINE"
);
}
);
};
components = (
{
name = pixel.2;
transform = "{1, 0, 0, 1, 128, 0}";
},
{
name = pixel.2;
transform = "{1, 0, 0, 1, 640, 0}";
},
{
name = pixel.2;
transform = "{1, 0, 0, 1, 128, 128}";
},
{
name = pixel.2;
transform = "{1, 0, 0, 1, 512, 128}";
},
{
name = pixel.4;
transform = "{1, 0, 0, 1, 128, 256}";
},
{
name = pixel.5;
transform = "{1, 0, 0, 1, 128, 384}";
},
{
name = pixel.2;
transform = "{1, 0, 0, 1, 128, 512}";
},
{
name = pixel.2;
transform = "{1, 0, 0, 1, 640, 512}";
},
{
name = pixel.2;
transform = "{1, 0, 0, 1, 128, 640}";
},
{
name = pixel.2;
transform = "{1, 0, 0, 1, 640, 640}";
},
{
name = pixel.5;
transform = "{1, 0, 0, 1, 128, 768}";
}
);
layerId = "B2CED426-8D3E-4D4E-926E-917DB7E3651C";
width = 1024;
}
);
unicode = 0052;
userData = {
com.typemytype.robofont.mark = (
1,
0.6,
0.6,
1
);
};
},
{
color = 4;
glyphname = S;
layers = (
{
background = {
paths = (
{
closed = 1;
nodes = (
"125 125 LINE {name = hr00;}",
"253 125 LINE",
"253 -3 LINE",
"771 -3 LINE",
"771 125 LINE",
"899 125 LINE",
"899 387 LINE",
"771 387 LINE",
"771 515 LINE",
"387 515 LINE",
"387 765 LINE",
"637 765 LINE",
"637 637 LINE",
"899 637 LINE",
"899 771 LINE",
"771 771 LINE",
"771 899 LINE",
"253 899 LINE",
"253 771 LINE",
"125 771 LINE",
"125 509 LINE",
"253 509 LINE",
"253 381 LINE",
"637 381 LINE",
"637 131 LINE",
"387 131 LINE",
"387 259 LINE",
"125 259 LINE"
);
}
);
};
components = (
{
name = pixel.4;
transform = "{1, 0, 0, 1, 256, 0}";
},
{
name = pixel.2;
transform = "{1, 0, 0, 1, 128, 128}";
},
{
name = pixel.2;
transform = "{1, 0, 0, 1, 640, 128}";
},
{
name = pixel.2;
transform = "{1, 0, 0, 1, 640, 256}";
},
{
name = pixel.4;
transform = "{1, 0, 0, 1, 256, 384}";
},
{
name = pixel.2;
transform = "{1, 0, 0, 1, 128, 512}";
},
{
name = pixel.2;
transform = "{1, 0, 0, 1, 128, 640}";
},
{
name = pixel.2;
transform = "{1, 0, 0, 1, 640, 640}";
},
{
name = pixel.4;
transform = "{1, 0, 0, 1, 256, 768}";
}
);
layerId = "511DE76B-C93C-4D1E-A4F3-1BF977EE06C9";
width = 1024;
},
{
background = {
paths = (
{
closed = 1;
nodes = (
"125 125 LINE {name = hr00;}",
"253 125 LINE",
"253 -3 LINE",
"771 -3 LINE",
"771 125 LINE",
"899 125 LINE",
"899 387 LINE",
"771 387 LINE",
"771 515 LINE",
"387 515 LINE",
"387 765 LINE",
"637 765 LINE",
"637 637 LINE",
"899 637 LINE",
"899 771 LINE",
"771 771 LINE",
"771 899 LINE",
"253 899 LINE",
"253 771 LINE",
"125 771 LINE",
"125 509 LINE",
"253 509 LINE",
"253 381 LINE",
"637 381 LINE",
"637 131 LINE",
"387 131 LINE",
"387 259 LINE",
"125 259 LINE"
);
}
);
};
components = (
{
name = pixel.4;
transform = "{1, 0, 0, 1, 256, 0}";
},
{
name = pixel.2;
transform = "{1, 0, 0, 1, 128, 128}";
},
{
name = pixel.2;
transform = "{1, 0, 0, 1, 640, 128}";
},
{
name = pixel.2;
transform = "{1, 0, 0, 1, 640, 256}";
},
{
name = pixel.4;
transform = "{1, 0, 0, 1, 256, 384}";
},
{
name = pixel.2;
transform = "{1, 0, 0, 1, 128, 512}";
},
{
name = pixel.2;
transform = "{1, 0, 0, 1, 128, 640}";
},
{
name = pixel.2;
transform = "{1, 0, 0, 1, 640, 640}";
},
{
name = pixel.4;
transform = "{1, 0, 0, 1, 256, 768}";
}
);
layerId = "A1CF3A9E-1F49-4701-AF3E-F0E694793914";
width = 1024;
},
{
background = {
paths = (
{
closed = 1;
nodes = (
"125 125 LINE {name = hr00;}",
"253 125 LINE",
"253 -3 LINE",
"771 -3 LINE",
"771 125 LINE",
"899 125 LINE",
"899 387 LINE",
"771 387 LINE",
"771 515 LINE",
"387 515 LINE",
"387 765 LINE",
"637 765 LINE",
"637 637 LINE",
"899 637 LINE",
"899 771 LINE",
"771 771 LINE",
"771 899 LINE",
"253 899 LINE",
"253 771 LINE",
"125 771 LINE",
"125 509 LINE",
"253 509 LINE",
"253 381 LINE",
"637 381 LINE",
"637 131 LINE",
"387 131 LINE",
"387 259 LINE",
"125 259 LINE"
);
}
);
};
components = (
{
name = pixel.4;
transform = "{1, 0, 0, 1, 256, 0}";
},
{
name = pixel.2;
transform = "{1, 0, 0, 1, 128, 128}";
},
{
name = pixel.2;
transform = "{1, 0, 0, 1, 640, 128}";
},
{
name = pixel.2;
transform = "{1, 0, 0, 1, 640, 256}";
},
{
name = pixel.4;
transform = "{1, 0, 0, 1, 256, 384}";
},
{
name = pixel.2;
transform = "{1, 0, 0, 1, 128, 512}";
},
{
name = pixel.2;
transform = "{1, 0, 0, 1, 128, 640}";
},
{
name = pixel.2;
transform = "{1, 0, 0, 1, 640, 640}";
},
{
name = pixel.4;
transform = "{1, 0, 0, 1, 256, 768}";
}
);
layerId = "93054D9F-9072-4363-B5A9-8BAB03B66C21";
width = 1024;
},
{
background = {
paths = (
{
closed = 1;
nodes = (
"125 125 LINE {name = hr00;}",
"253 125 LINE",
"253 -3 LINE",
"771 -3 LINE",
"771 125 LINE",
"899 125 LINE",
"899 387 LINE",
"771 387 LINE",
"771 515 LINE",
"387 515 LINE",
"387 765 LINE",
"637 765 LINE",
"637 637 LINE",
"899 637 LINE",
"899 771 LINE",
"771 771 LINE",
"771 899 LINE",
"253 899 LINE",
"253 771 LINE",
"125 771 LINE",
"125 509 LINE",
"253 509 LINE",
"253 381 LINE",
"637 381 LINE",
"637 131 LINE",
"387 131 LINE",
"387 259 LINE",
"125 259 LINE"
);
}
);
};
components = (
{
name = pixel.4;
transform = "{1, 0, 0, 1, 256, 0}";
},
{
name = pixel.2;
transform = "{1, 0, 0, 1, 128, 128}";
},
{
name = pixel.2;
transform = "{1, 0, 0, 1, 640, 128}";
},
{
name = pixel.2;
transform = "{1, 0, 0, 1, 640, 256}";
},
{
name = pixel.4;
transform = "{1, 0, 0, 1, 256, 384}";
},
{
name = pixel.2;
transform = "{1, 0, 0, 1, 128, 512}";
},
{
name = pixel.2;
transform = "{1, 0, 0, 1, 128, 640}";
},
{
name = pixel.2;
transform = "{1, 0, 0, 1, 640, 640}";
},
{
name = pixel.4;
transform = "{1, 0, 0, 1, 256, 768}";
}
);
layerId = "B2CED426-8D3E-4D4E-926E-917DB7E3651C";
width = 1024;
}
);
unicode = 0053;
userData = {
com.typemytype.robofont.mark = (
1,
0.6,
0.6,
1
);
};
},
{
color = 4;
glyphname = T;
layers = (
{
background = {
paths = (
{
closed = 1;
nodes = (
"125 765 LINE {name = hr00;}",
"381 765 LINE",
"381 -3 LINE",
"643 -3 LINE",
"643 765 LINE",
"899 765 LINE",
"899 899 LINE",
"125 899 LINE"
);
}
);
};
components = (
{
name = pixel.2;
transform = "{1, 0, 0, 1, 384, 0}";
},
{
name = pixel.2;
transform = "{1, 0, 0, 1, 384, 128}";
},
{
name = pixel.2;
transform = "{1, 0, 0, 1, 384, 256}";
},
{
name = pixel.2;
transform = "{1, 0, 0, 1, 384, 384}";
},
{
name = pixel.2;
transform = "{1, 0, 0, 1, 384, 512}";
},
{
name = pixel.2;
transform = "{1, 0, 0, 1, 384, 640}";
},
{
name = pixel.6;
transform = "{1, 0, 0, 1, 128, 768}";
}
);
layerId = "511DE76B-C93C-4D1E-A4F3-1BF977EE06C9";
width = 1024;
},
{
background = {
paths = (
{
closed = 1;
nodes = (
"125 765 LINE {name = hr00;}",
"381 765 LINE",
"381 -3 LINE",
"643 -3 LINE",
"643 765 LINE",
"899 765 LINE",
"899 899 LINE",
"125 899 LINE"
);
}
);
};
components = (
{
name = pixel.2;
transform = "{1, 0, 0, 1, 384, 0}";
},
{
name = pixel.2;
transform = "{1, 0, 0, 1, 384, 128}";
},
{
name = pixel.2;
transform = "{1, 0, 0, 1, 384, 256}";
},
{
name = pixel.2;
transform = "{1, 0, 0, 1, 384, 384}";
},
{
name = pixel.2;
transform = "{1, 0, 0, 1, 384, 512}";
},
{
name = pixel.2;
transform = "{1, 0, 0, 1, 384, 640}";
},
{
name = pixel.6;
transform = "{1, 0, 0, 1, 128, 768}";
}
);
layerId = "A1CF3A9E-1F49-4701-AF3E-F0E694793914";
width = 1024;
},
{
background = {
paths = (
{
closed = 1;
nodes = (
"125 765 LINE {name = hr00;}",
"381 765 LINE",
"381 -3 LINE",
"643 -3 LINE",
"643 765 LINE",
"899 765 LINE",
"899 899 LINE",
"125 899 LINE"
);
}
);
};
components = (
{
name = pixel.2;
transform = "{1, 0, 0, 1, 384, 0}";
},
{
name = pixel.2;
transform = "{1, 0, 0, 1, 384, 128}";
},
{
name = pixel.2;
transform = "{1, 0, 0, 1, 384, 256}";
},
{
name = pixel.2;
transform = "{1, 0, 0, 1, 384, 384}";
},
{
name = pixel.2;
transform = "{1, 0, 0, 1, 384, 512}";
},
{
name = pixel.2;
transform = "{1, 0, 0, 1, 384, 640}";
},
{
name = pixel.6;
transform = "{1, 0, 0, 1, 128, 768}";
}
);
layerId = "93054D9F-9072-4363-B5A9-8BAB03B66C21";
width = 1024;
},
{
background = {
paths = (
{
closed = 1;
nodes = (
"125 765 LINE {name = hr00;}",
"381 765 LINE",
"381 -3 LINE",
"643 -3 LINE",
"643 765 LINE",
"899 765 LINE",
"899 899 LINE",
"125 899 LINE"
);
}
);
};
components = (
{
name = pixel.2;
transform = "{1, 0, 0, 1, 384, 0}";
},
{
name = pixel.2;
transform = "{1, 0, 0, 1, 384, 128}";
},
{
name = pixel.2;
transform = "{1, 0, 0, 1, 384, 256}";
},
{
name = pixel.2;
transform = "{1, 0, 0, 1, 384, 384}";
},
{
name = pixel.2;
transform = "{1, 0, 0, 1, 384, 512}";
},
{
name = pixel.2;
transform = "{1, 0, 0, 1, 384, 640}";
},
{
name = pixel.6;
transform = "{1, 0, 0, 1, 128, 768}";
}
);
layerId = "B2CED426-8D3E-4D4E-926E-917DB7E3651C";
width = 1024;
}
);
unicode = 0054;
userData = {
com.typemytype.robofont.mark = (
1,
0.6,
0.6,
1
);
};
},
{
color = 4;
glyphname = U;
layers = (
{
background = {
paths = (
{
closed = 1;
nodes = (
"125 125 LINE {name = hr00;}",
"253 125 LINE",
"253 -3 LINE",
"771 -3 LINE",
"771 125 LINE",
"899 125 LINE",
"899 899 LINE",
"637 899 LINE",
"637 131 LINE",
"387 131 LINE",
"387 899 LINE",
"125 899 LINE"
);
}
);
};
components = (
{
name = pixel.4;
transform = "{1, 0, 0, 1, 256, 0}";
},
{
name = pixel.2;
transform = "{1, 0, 0, 1, 128, 128}";
},
{
name = pixel.2;
transform = "{1, 0, 0, 1, 640, 128}";
},
{
name = pixel.2;
transform = "{1, 0, 0, 1, 128, 256}";
},
{
name = pixel.2;
transform = "{1, 0, 0, 1, 640, 256}";
},
{
name = pixel.2;
transform = "{1, 0, 0, 1, 128, 384}";
},
{
name = pixel.2;
transform = "{1, 0, 0, 1, 640, 384}";
},
{
name = pixel.2;
transform = "{1, 0, 0, 1, 128, 512}";
},
{
name = pixel.2;
transform = "{1, 0, 0, 1, 640, 512}";
},
{
name = pixel.2;
transform = "{1, 0, 0, 1, 128, 640}";
},
{
name = pixel.2;
transform = "{1, 0, 0, 1, 640, 640}";
},
{
name = pixel.2;
transform = "{1, 0, 0, 1, 128, 768}";
},
{
name = pixel.2;
transform = "{1, 0, 0, 1, 640, 768}";
}
);
layerId = "511DE76B-C93C-4D1E-A4F3-1BF977EE06C9";
width = 1024;
},
{
background = {
paths = (
{
closed = 1;
nodes = (
"125 125 LINE {name = hr00;}",
"253 125 LINE",
"253 -3 LINE",
"771 -3 LINE",
"771 125 LINE",
"899 125 LINE",
"899 899 LINE",
"637 899 LINE",
"637 131 LINE",
"387 131 LINE",
"387 899 LINE",
"125 899 LINE"
);
}
);
};
components = (
{
name = pixel.4;
transform = "{1, 0, 0, 1, 256, 0}";
},
{
name = pixel.2;
transform = "{1, 0, 0, 1, 128, 128}";
},
{
name = pixel.2;
transform = "{1, 0, 0, 1, 640, 128}";
},
{
name = pixel.2;
transform = "{1, 0, 0, 1, 128, 256}";
},
{
name = pixel.2;
transform = "{1, 0, 0, 1, 640, 256}";
},
{
name = pixel.2;
transform = "{1, 0, 0, 1, 128, 384}";
},
{
name = pixel.2;
transform = "{1, 0, 0, 1, 640, 384}";
},
{
name = pixel.2;
transform = "{1, 0, 0, 1, 128, 512}";
},
{
name = pixel.2;
transform = "{1, 0, 0, 1, 640, 512}";
},
{
name = pixel.2;
transform = "{1, 0, 0, 1, 128, 640}";
},
{
name = pixel.2;
transform = "{1, 0, 0, 1, 640, 640}";
},
{
name = pixel.2;
transform = "{1, 0, 0, 1, 128, 768}";
},
{
name = pixel.2;
transform = "{1, 0, 0, 1, 640, 768}";
}
);
layerId = "A1CF3A9E-1F49-4701-AF3E-F0E694793914";
width = 1024;
},
{
background = {
paths = (
{
closed = 1;
nodes = (
"125 125 LINE {name = hr00;}",
"253 125 LINE",
"253 -3 LINE",
"771 -3 LINE",
"771 125 LINE",
"899 125 LINE",
"899 899 LINE",
"637 899 LINE",
"637 131 LINE",
"387 131 LINE",
"387 899 LINE",
"125 899 LINE"
);
}
);
};
components = (
{
name = pixel.4;
transform = "{1, 0, 0, 1, 256, 0}";
},
{
name = pixel.2;
transform = "{1, 0, 0, 1, 128, 128}";
},
{
name = pixel.2;
transform = "{1, 0, 0, 1, 640, 128}";
},
{
name = pixel.2;
transform = "{1, 0, 0, 1, 128, 256}";
},
{
name = pixel.2;
transform = "{1, 0, 0, 1, 640, 256}";
},
{
name = pixel.2;
transform = "{1, 0, 0, 1, 128, 384}";
},
{
name = pixel.2;
transform = "{1, 0, 0, 1, 640, 384}";
},
{
name = pixel.2;
transform = "{1, 0, 0, 1, 128, 512}";
},
{
name = pixel.2;
transform = "{1, 0, 0, 1, 640, 512}";
},
{
name = pixel.2;
transform = "{1, 0, 0, 1, 128, 640}";
},
{
name = pixel.2;
transform = "{1, 0, 0, 1, 640, 640}";
},
{
name = pixel.2;
transform = "{1, 0, 0, 1, 128, 768}";
},
{
name = pixel.2;
transform = "{1, 0, 0, 1, 640, 768}";
}
);
layerId = "93054D9F-9072-4363-B5A9-8BAB03B66C21";
width = 1024;
},
{
background = {
paths = (
{
closed = 1;
nodes = (
"125 125 LINE {name = hr00;}",
"253 125 LINE",
"253 -3 LINE",
"771 -3 LINE",
"771 125 LINE",
"899 125 LINE",
"899 899 LINE",
"637 899 LINE",
"637 131 LINE",
"387 131 LINE",
"387 899 LINE",
"125 899 LINE"
);
}
);
};
components = (
{
name = pixel.4;
transform = "{1, 0, 0, 1, 256, 0}";
},
{
name = pixel.2;
transform = "{1, 0, 0, 1, 128, 128}";
},
{
name = pixel.2;
transform = "{1, 0, 0, 1, 640, 128}";
},
{
name = pixel.2;
transform = "{1, 0, 0, 1, 128, 256}";
},
{
name = pixel.2;
transform = "{1, 0, 0, 1, 640, 256}";
},
{
name = pixel.2;
transform = "{1, 0, 0, 1, 128, 384}";
},
{
name = pixel.2;
transform = "{1, 0, 0, 1, 640, 384}";
},
{
name = pixel.2;
transform = "{1, 0, 0, 1, 128, 512}";
},
{
name = pixel.2;
transform = "{1, 0, 0, 1, 640, 512}";
},
{
name = pixel.2;
transform = "{1, 0, 0, 1, 128, 640}";
},
{
name = pixel.2;
transform = "{1, 0, 0, 1, 640, 640}";
},
{
name = pixel.2;
transform = "{1, 0, 0, 1, 128, 768}";
},
{
name = pixel.2;
transform = "{1, 0, 0, 1, 640, 768}";
}
);
layerId = "B2CED426-8D3E-4D4E-926E-917DB7E3651C";
width = 1024;
}
);
unicode = 0055;
userData = {
com.typemytype.robofont.mark = (
1,
0.6,
0.6,
1
);
};
},
{
color = 4;
glyphname = Uacute;
layers = (
{
background = {
paths = (
{
closed = 1;
nodes = (
"771 899 LINE {name = hr00;}",
"509 899 LINE",
"509 771 LINE",
"381 771 LINE",
"381 643 LINE",
"125 643 LINE",
"125 125 LINE",
"253 125 LINE",
"253 -3 LINE",
"771 -3 LINE",
"771 125 LINE",
"899 125 LINE",
"899 643 LINE",
"643 643 LINE",
"643 765 LINE",
"771 765 LINE"
);
},
{
closed = 1;
nodes = (
"387 131 LINE",
"387 637 LINE",
"637 637 LINE",
"637 131 LINE"
);
}
);
};
components = (
{
name = U.case.2;
},
{
name = acute;
}
);
layerId = "511DE76B-C93C-4D1E-A4F3-1BF977EE06C9";
width = 1024;
},
{
background = {
paths = (
{
closed = 1;
nodes = (
"771 899 LINE {name = hr00;}",
"509 899 LINE",
"509 771 LINE",
"381 771 LINE",
"381 643 LINE",
"125 643 LINE",
"125 125 LINE",
"253 125 LINE",
"253 -3 LINE",
"771 -3 LINE",
"771 125 LINE",
"899 125 LINE",
"899 643 LINE",
"643 643 LINE",
"643 765 LINE",
"771 765 LINE"
);
},
{
closed = 1;
nodes = (
"387 131 LINE",
"387 637 LINE",
"637 637 LINE",
"637 131 LINE"
);
}
);
};
components = (
{
name = U.case.2;
},
{
name = acute;
}
);
layerId = "A1CF3A9E-1F49-4701-AF3E-F0E694793914";
width = 1024;
},
{
background = {
paths = (
{
closed = 1;
nodes = (
"771 899 LINE {name = hr00;}",
"509 899 LINE",
"509 771 LINE",
"381 771 LINE",
"381 643 LINE",
"125 643 LINE",
"125 125 LINE",
"253 125 LINE",
"253 -3 LINE",
"771 -3 LINE",
"771 125 LINE",
"899 125 LINE",
"899 643 LINE",
"643 643 LINE",
"643 765 LINE",
"771 765 LINE"
);
},
{
closed = 1;
nodes = (
"387 131 LINE",
"387 637 LINE",
"637 637 LINE",
"637 131 LINE"
);
}
);
};
components = (
{
name = U.case.2;
},
{
name = acute;
}
);
layerId = "93054D9F-9072-4363-B5A9-8BAB03B66C21";
width = 1024;
},
{
background = {
paths = (
{
closed = 1;
nodes = (
"771 899 LINE {name = hr00;}",
"509 899 LINE",
"509 771 LINE",
"381 771 LINE",
"381 643 LINE",
"125 643 LINE",
"125 125 LINE",
"253 125 LINE",
"253 -3 LINE",
"771 -3 LINE",
"771 125 LINE",
"899 125 LINE",
"899 643 LINE",
"643 643 LINE",
"643 765 LINE",
"771 765 LINE"
);
},
{
closed = 1;
nodes = (
"387 131 LINE",
"387 637 LINE",
"637 637 LINE",
"637 131 LINE"
);
}
);
};
components = (
{
name = U.case.2;
},
{
name = acute;
}
);
layerId = "B2CED426-8D3E-4D4E-926E-917DB7E3651C";
width = 1024;
}
);
unicode = 00DA;
userData = {
com.typemytype.robofont.mark = (
0.967,
0.6,
1,
1
);
};
},
{
color = 4;
glyphname = Ucircumflex;
layers = (
{
background = {
paths = (
{
closed = 1;
nodes = (
"125 125 LINE {name = hr00;}",
"253 125 LINE",
"253 -3 LINE",
"771 -3 LINE",
"771 125 LINE",
"899 125 LINE",
"899 515 LINE",
"637 515 LINE",
"637 131 LINE",
"387 131 LINE",
"387 515 LINE",
"125 515 LINE"
);
},
{
closed = 1;
nodes = (
"637 637 LINE",
"899 637 LINE",
"899 771 LINE",
"771 771 LINE",
"771 899 LINE",
"253 899 LINE",
"253 771 LINE",
"125 771 LINE",
"125 637 LINE",
"387 637 LINE",
"387 765 LINE",
"637 765 LINE"
);
}
);
};
components = (
{
name = U.case;
},
{
name = circumflex;
}
);
layerId = "511DE76B-C93C-4D1E-A4F3-1BF977EE06C9";
width = 1024;
},
{
background = {
paths = (
{
closed = 1;
nodes = (
"125 125 LINE {name = hr00;}",
"253 125 LINE",
"253 -3 LINE",
"771 -3 LINE",
"771 125 LINE",
"899 125 LINE",
"899 515 LINE",
"637 515 LINE",
"637 131 LINE",
"387 131 LINE",
"387 515 LINE",
"125 515 LINE"
);
},
{
closed = 1;
nodes = (
"637 637 LINE",
"899 637 LINE",
"899 771 LINE",
"771 771 LINE",
"771 899 LINE",
"253 899 LINE",
"253 771 LINE",
"125 771 LINE",
"125 637 LINE",
"387 637 LINE",
"387 765 LINE",
"637 765 LINE"
);
}
);
};
components = (
{
name = U.case;
},
{
name = circumflex;
}
);
layerId = "A1CF3A9E-1F49-4701-AF3E-F0E694793914";
width = 1024;
},
{
background = {
paths = (
{
closed = 1;
nodes = (
"125 125 LINE {name = hr00;}",
"253 125 LINE",
"253 -3 LINE",
"771 -3 LINE",
"771 125 LINE",
"899 125 LINE",
"899 515 LINE",
"637 515 LINE",
"637 131 LINE",
"387 131 LINE",
"387 515 LINE",
"125 515 LINE"
);
},
{
closed = 1;
nodes = (
"637 637 LINE",
"899 637 LINE",
"899 771 LINE",
"771 771 LINE",
"771 899 LINE",
"253 899 LINE",
"253 771 LINE",
"125 771 LINE",
"125 637 LINE",
"387 637 LINE",
"387 765 LINE",
"637 765 LINE"
);
}
);
};
components = (
{
name = U.case;
},
{
name = circumflex;
}
);
layerId = "93054D9F-9072-4363-B5A9-8BAB03B66C21";
width = 1024;
},
{
background = {
paths = (
{
closed = 1;
nodes = (
"125 125 LINE {name = hr00;}",
"253 125 LINE",
"253 -3 LINE",
"771 -3 LINE",
"771 125 LINE",
"899 125 LINE",
"899 515 LINE",
"637 515 LINE",
"637 131 LINE",
"387 131 LINE",
"387 515 LINE",
"125 515 LINE"
);
},
{
closed = 1;
nodes = (
"637 637 LINE",
"899 637 LINE",
"899 771 LINE",
"771 771 LINE",
"771 899 LINE",
"253 899 LINE",
"253 771 LINE",
"125 771 LINE",
"125 637 LINE",
"387 637 LINE",
"387 765 LINE",
"637 765 LINE"
);
}
);
};
components = (
{
name = U.case;
},
{
name = circumflex;
}
);
layerId = "B2CED426-8D3E-4D4E-926E-917DB7E3651C";
width = 1024;
}
);
unicode = 00DB;
userData = {
com.typemytype.robofont.mark = (
0.967,
0.6,
1,
1
);
};
},
{
color = 4;
glyphname = Udieresis;
layers = (
{
background = {
paths = (
{
closed = 1;
nodes = (
"125 125 LINE {name = hr00;}",
"253 125 LINE",
"253 -3 LINE",
"771 -3 LINE",
"771 125 LINE",
"899 125 LINE",
"899 643 LINE",
"637 643 LINE",
"637 131 LINE",
"387 131 LINE",
"387 643 LINE",
"125 643 LINE"
);
},
{
closed = 1;
nodes = (
"125 765 LINE",
"387 765 LINE",
"387 899 LINE",
"125 899 LINE"
);
},
{
closed = 1;
nodes = (
"637 765 LINE",
"899 765 LINE",
"899 899 LINE",
"637 899 LINE"
);
}
);
};
components = (
{
name = U.case.2;
},
{
name = dieresis;
}
);
layerId = "511DE76B-C93C-4D1E-A4F3-1BF977EE06C9";
width = 1024;
},
{
background = {
paths = (
{
closed = 1;
nodes = (
"125 125 LINE {name = hr00;}",
"253 125 LINE",
"253 -3 LINE",
"771 -3 LINE",
"771 125 LINE",
"899 125 LINE",
"899 643 LINE",
"637 643 LINE",
"637 131 LINE",
"387 131 LINE",
"387 643 LINE",
"125 643 LINE"
);
},
{
closed = 1;
nodes = (
"125 765 LINE",
"387 765 LINE",
"387 899 LINE",
"125 899 LINE"
);
},
{
closed = 1;
nodes = (
"637 765 LINE",
"899 765 LINE",
"899 899 LINE",
"637 899 LINE"
);
}
);
};
components = (
{
name = U.case.2;
},
{
name = dieresis;
}
);
layerId = "A1CF3A9E-1F49-4701-AF3E-F0E694793914";
width = 1024;
},
{
background = {
paths = (
{
closed = 1;
nodes = (
"125 125 LINE {name = hr00;}",
"253 125 LINE",
"253 -3 LINE",
"771 -3 LINE",
"771 125 LINE",
"899 125 LINE",
"899 643 LINE",
"637 643 LINE",
"637 131 LINE",
"387 131 LINE",
"387 643 LINE",
"125 643 LINE"
);
},
{
closed = 1;
nodes = (
"125 765 LINE",
"387 765 LINE",
"387 899 LINE",
"125 899 LINE"
);
},
{
closed = 1;
nodes = (
"637 765 LINE",
"899 765 LINE",
"899 899 LINE",
"637 899 LINE"
);
}
);
};
components = (
{
name = U.case.2;
},
{
name = dieresis;
}
);
layerId = "93054D9F-9072-4363-B5A9-8BAB03B66C21";
width = 1024;
},
{
background = {
paths = (
{
closed = 1;
nodes = (
"125 125 LINE {name = hr00;}",
"253 125 LINE",
"253 -3 LINE",
"771 -3 LINE",
"771 125 LINE",
"899 125 LINE",
"899 643 LINE",
"637 643 LINE",
"637 131 LINE",
"387 131 LINE",
"387 643 LINE",
"125 643 LINE"
);
},
{
closed = 1;
nodes = (
"125 765 LINE",
"387 765 LINE",
"387 899 LINE",
"125 899 LINE"
);
},
{
closed = 1;
nodes = (
"637 765 LINE",
"899 765 LINE",
"899 899 LINE",
"637 899 LINE"
);
}
);
};
components = (
{
name = U.case.2;
},
{
name = dieresis;
}
);
layerId = "B2CED426-8D3E-4D4E-926E-917DB7E3651C";
width = 1024;
}
);
unicode = 00DC;
userData = {
com.typemytype.robofont.mark = (
0.967,
0.6,
1,
1
);
};
},
{
color = 4;
glyphname = Ugrave;
layers = (
{
background = {
paths = (
{
closed = 1;
nodes = (
"253 765 LINE {name = hr00;}",
"381 765 LINE",
"381 643 LINE",
"125 643 LINE",
"125 125 LINE",
"253 125 LINE",
"253 -3 LINE",
"771 -3 LINE",
"771 125 LINE",
"899 125 LINE",
"899 643 LINE",
"643 643 LINE",
"643 771 LINE",
"515 771 LINE",
"515 899 LINE",
"253 899 LINE"
);
},
{
closed = 1;
nodes = (
"387 131 LINE",
"387 637 LINE",
"637 637 LINE",
"637 131 LINE"
);
}
);
};
components = (
{
name = U.case.2;
},
{
name = grave;
}
);
layerId = "511DE76B-C93C-4D1E-A4F3-1BF977EE06C9";
width = 1024;
},
{
background = {
paths = (
{
closed = 1;
nodes = (
"253 765 LINE {name = hr00;}",
"381 765 LINE",
"381 643 LINE",
"125 643 LINE",
"125 125 LINE",
"253 125 LINE",
"253 -3 LINE",
"771 -3 LINE",
"771 125 LINE",
"899 125 LINE",
"899 643 LINE",
"643 643 LINE",
"643 771 LINE",
"515 771 LINE",
"515 899 LINE",
"253 899 LINE"
);
},
{
closed = 1;
nodes = (
"387 131 LINE",
"387 637 LINE",
"637 637 LINE",
"637 131 LINE"
);
}
);
};
components = (
{
name = U.case.2;
},
{
name = grave;
}
);
layerId = "A1CF3A9E-1F49-4701-AF3E-F0E694793914";
width = 1024;
},
{
background = {
paths = (
{
closed = 1;
nodes = (
"253 765 LINE {name = hr00;}",
"381 765 LINE",
"381 643 LINE",
"125 643 LINE",
"125 125 LINE",
"253 125 LINE",
"253 -3 LINE",
"771 -3 LINE",
"771 125 LINE",
"899 125 LINE",
"899 643 LINE",
"643 643 LINE",
"643 771 LINE",
"515 771 LINE",
"515 899 LINE",
"253 899 LINE"
);
},
{
closed = 1;
nodes = (
"387 131 LINE",
"387 637 LINE",
"637 637 LINE",
"637 131 LINE"
);
}
);
};
components = (
{
name = U.case.2;
},
{
name = grave;
}
);
layerId = "93054D9F-9072-4363-B5A9-8BAB03B66C21";
width = 1024;
},
{
background = {
paths = (
{
closed = 1;
nodes = (
"253 765 LINE {name = hr00;}",
"381 765 LINE",
"381 643 LINE",
"125 643 LINE",
"125 125 LINE",
"253 125 LINE",
"253 -3 LINE",
"771 -3 LINE",
"771 125 LINE",
"899 125 LINE",
"899 643 LINE",
"643 643 LINE",
"643 771 LINE",
"515 771 LINE",
"515 899 LINE",
"253 899 LINE"
);
},
{
closed = 1;
nodes = (
"387 131 LINE",
"387 637 LINE",
"637 637 LINE",
"637 131 LINE"
);
}
);
};
components = (
{
name = U.case.2;
},
{
name = grave;
}
);
layerId = "B2CED426-8D3E-4D4E-926E-917DB7E3651C";
width = 1024;
}
);
unicode = 00D9;
userData = {
com.typemytype.robofont.mark = (
0.967,
0.6,
1,
1
);
};
},
{
color = 4;
glyphname = V;
layers = (
{
background = {
paths = (
{
closed = 1;
nodes = (
"637 259 LINE {name = hr00;}",
"387 259 LINE",
"387 899 LINE",
"125 899 LINE",
"125 253 LINE",
"253 253 LINE",
"253 125 LINE",
"381 125 LINE",
"381 -3 LINE",
"643 -3 LINE",
"643 125 LINE",
"771 125 LINE",
"771 253 LINE",
"899 253 LINE",
"899 899 LINE",
"637 899 LINE"
);
}
);
};
components = (
{
name = pixel.2;
transform = "{1, 0, 0, 1, 384, 0}";
},
{
name = pixel.4;
transform = "{1, 0, 0, 1, 256, 128}";
},
{
name = pixel.2;
transform = "{1, 0, 0, 1, 128, 256}";
},
{
name = pixel.2;
transform = "{1, 0, 0, 1, 640, 256}";
},
{
name = pixel.2;
transform = "{1, 0, 0, 1, 128, 384}";
},
{
name = pixel.2;
transform = "{1, 0, 0, 1, 640, 384}";
},
{
name = pixel.2;
transform = "{1, 0, 0, 1, 128, 512}";
},
{
name = pixel.2;
transform = "{1, 0, 0, 1, 640, 512}";
},
{
name = pixel.2;
transform = "{1, 0, 0, 1, 128, 640}";
},
{
name = pixel.2;
transform = "{1, 0, 0, 1, 640, 640}";
},
{
name = pixel.2;
transform = "{1, 0, 0, 1, 128, 768}";
},
{
name = pixel.2;
transform = "{1, 0, 0, 1, 640, 768}";
}
);
layerId = "511DE76B-C93C-4D1E-A4F3-1BF977EE06C9";
width = 1024;
},
{
background = {
paths = (
{
closed = 1;
nodes = (
"637 259 LINE {name = hr00;}",
"387 259 LINE",
"387 899 LINE",
"125 899 LINE",
"125 253 LINE",
"253 253 LINE",
"253 125 LINE",
"381 125 LINE",
"381 -3 LINE",
"643 -3 LINE",
"643 125 LINE",
"771 125 LINE",
"771 253 LINE",
"899 253 LINE",
"899 899 LINE",
"637 899 LINE"
);
}
);
};
components = (
{
name = pixel.2;
transform = "{1, 0, 0, 1, 384, 0}";
},
{
name = pixel.4;
transform = "{1, 0, 0, 1, 256, 128}";
},
{
name = pixel.2;
transform = "{1, 0, 0, 1, 128, 256}";
},
{
name = pixel.2;
transform = "{1, 0, 0, 1, 640, 256}";
},
{
name = pixel.2;
transform = "{1, 0, 0, 1, 128, 384}";
},
{
name = pixel.2;
transform = "{1, 0, 0, 1, 640, 384}";
},
{
name = pixel.2;
transform = "{1, 0, 0, 1, 128, 512}";
},
{
name = pixel.2;
transform = "{1, 0, 0, 1, 640, 512}";
},
{
name = pixel.2;
transform = "{1, 0, 0, 1, 128, 640}";
},
{
name = pixel.2;
transform = "{1, 0, 0, 1, 640, 640}";
},
{
name = pixel.2;
transform = "{1, 0, 0, 1, 128, 768}";
},
{
name = pixel.2;
transform = "{1, 0, 0, 1, 640, 768}";
}
);
layerId = "A1CF3A9E-1F49-4701-AF3E-F0E694793914";
width = 1024;
},
{
background = {
paths = (
{
closed = 1;
nodes = (
"637 259 LINE {name = hr00;}",
"387 259 LINE",
"387 899 LINE",
"125 899 LINE",
"125 253 LINE",
"253 253 LINE",
"253 125 LINE",
"381 125 LINE",
"381 -3 LINE",
"643 -3 LINE",
"643 125 LINE",
"771 125 LINE",
"771 253 LINE",
"899 253 LINE",
"899 899 LINE",
"637 899 LINE"
);
}
);
};
components = (
{
name = pixel.2;
transform = "{1, 0, 0, 1, 384, 0}";
},
{
name = pixel.4;
transform = "{1, 0, 0, 1, 256, 128}";
},
{
name = pixel.2;
transform = "{1, 0, 0, 1, 128, 256}";
},
{
name = pixel.2;
transform = "{1, 0, 0, 1, 640, 256}";
},
{
name = pixel.2;
transform = "{1, 0, 0, 1, 128, 384}";
},
{
name = pixel.2;
transform = "{1, 0, 0, 1, 640, 384}";
},
{
name = pixel.2;
transform = "{1, 0, 0, 1, 128, 512}";
},
{
name = pixel.2;
transform = "{1, 0, 0, 1, 640, 512}";
},
{
name = pixel.2;
transform = "{1, 0, 0, 1, 128, 640}";
},
{
name = pixel.2;
transform = "{1, 0, 0, 1, 640, 640}";
},
{
name = pixel.2;
transform = "{1, 0, 0, 1, 128, 768}";
},
{
name = pixel.2;
transform = "{1, 0, 0, 1, 640, 768}";
}
);
layerId = "93054D9F-9072-4363-B5A9-8BAB03B66C21";
width = 1024;
},
{
background = {
paths = (
{
closed = 1;
nodes = (
"637 259 LINE {name = hr00;}",
"387 259 LINE",
"387 899 LINE",
"125 899 LINE",
"125 253 LINE",
"253 253 LINE",
"253 125 LINE",
"381 125 LINE",
"381 -3 LINE",
"643 -3 LINE",
"643 125 LINE",
"771 125 LINE",
"771 253 LINE",
"899 253 LINE",
"899 899 LINE",
"637 899 LINE"
);
}
);
};
components = (
{
name = pixel.2;
transform = "{1, 0, 0, 1, 384, 0}";
},
{
name = pixel.4;
transform = "{1, 0, 0, 1, 256, 128}";
},
{
name = pixel.2;
transform = "{1, 0, 0, 1, 128, 256}";
},
{
name = pixel.2;
transform = "{1, 0, 0, 1, 640, 256}";
},
{
name = pixel.2;
transform = "{1, 0, 0, 1, 128, 384}";
},
{
name = pixel.2;
transform = "{1, 0, 0, 1, 640, 384}";
},
{
name = pixel.2;
transform = "{1, 0, 0, 1, 128, 512}";
},
{
name = pixel.2;
transform = "{1, 0, 0, 1, 640, 512}";
},
{
name = pixel.2;
transform = "{1, 0, 0, 1, 128, 640}";
},
{
name = pixel.2;
transform = "{1, 0, 0, 1, 640, 640}";
},
{
name = pixel.2;
transform = "{1, 0, 0, 1, 128, 768}";
},
{
name = pixel.2;
transform = "{1, 0, 0, 1, 640, 768}";
}
);
layerId = "B2CED426-8D3E-4D4E-926E-917DB7E3651C";
width = 1024;
}
);
unicode = 0056;
userData = {
com.typemytype.robofont.mark = (
1,
0.6,
0.6,
1
);
};
},
{
color = 4;
glyphname = W;
layers = (
{
background = {
paths = (
{
closed = 1;
nodes = (
"765 -3 LINE {name = hr00;}",
"1027 -3 LINE",
"1027 899 LINE",
"765 899 LINE",
"765 387 LINE",
"643 387 LINE",
"643 515 LINE",
"509 515 LINE",
"509 387 LINE",
"387 387 LINE",
"387 899 LINE",
"125 899 LINE",
"125 -3 LINE",
"387 -3 LINE",
"387 125 LINE",
"515 125 LINE",
"515 253 LINE",
"637 253 LINE",
"637 125 LINE",
"765 125 LINE"
);
}
);
};
components = (
{
name = pixel.2;
transform = "{1, 0, 0, 1, 128, 0}";
},
{
name = pixel.2;
transform = "{1, 0, 0, 1, 768, 0}";
},
{
name = pixel.3;
transform = "{1, 0, 0, 1, 128, 128}";
},
{
name = pixel.3;
transform = "{1, 0, 0, 1, 640, 128}";
},
{
name = pixel.7;
transform = "{1, 0, 0, 1, 128, 256}";
},
{
name = pixel.2;
transform = "{1, 0, 0, 1, 128, 384}";
},
{
name = pixel.1;
transform = "{1, 0, 0, 1, 512, 384}";
},
{
name = pixel.2;
transform = "{1, 0, 0, 1, 768, 384}";
},
{
name = pixel.2;
transform = "{1, 0, 0, 1, 128, 512}";
},
{
name = pixel.2;
transform = "{1, 0, 0, 1, 768, 512}";
},
{
name = pixel.2;
transform = "{1, 0, 0, 1, 128, 640}";
},
{
name = pixel.2;
transform = "{1, 0, 0, 1, 768, 640}";
},
{
name = pixel.2;
transform = "{1, 0, 0, 1, 128, 768}";
},
{
name = pixel.2;
transform = "{1, 0, 0, 1, 768, 768}";
}
);
layerId = "511DE76B-C93C-4D1E-A4F3-1BF977EE06C9";
width = 1024;
},
{
background = {
paths = (
{
closed = 1;
nodes = (
"765 -3 LINE {name = hr00;}",
"1027 -3 LINE",
"1027 899 LINE",
"765 899 LINE",
"765 387 LINE",
"643 387 LINE",
"643 515 LINE",
"509 515 LINE",
"509 387 LINE",
"387 387 LINE",
"387 899 LINE",
"125 899 LINE",
"125 -3 LINE",
"387 -3 LINE",
"387 125 LINE",
"515 125 LINE",
"515 253 LINE",
"637 253 LINE",
"637 125 LINE",
"765 125 LINE"
);
}
);
};
components = (
{
name = pixel.2;
transform = "{1, 0, 0, 1, 128, 0}";
},
{
name = pixel.2;
transform = "{1, 0, 0, 1, 768, 0}";
},
{
name = pixel.3;
transform = "{1, 0, 0, 1, 128, 128}";
},
{
name = pixel.3;
transform = "{1, 0, 0, 1, 640, 128}";
},
{
name = pixel.7;
transform = "{1, 0, 0, 1, 128, 256}";
},
{
name = pixel.2;
transform = "{1, 0, 0, 1, 128, 384}";
},
{
name = pixel.1;
transform = "{1, 0, 0, 1, 512, 384}";
},
{
name = pixel.2;
transform = "{1, 0, 0, 1, 768, 384}";
},
{
name = pixel.2;
transform = "{1, 0, 0, 1, 128, 512}";
},
{
name = pixel.2;
transform = "{1, 0, 0, 1, 768, 512}";
},
{
name = pixel.2;
transform = "{1, 0, 0, 1, 128, 640}";
},
{
name = pixel.2;
transform = "{1, 0, 0, 1, 768, 640}";
},
{
name = pixel.2;
transform = "{1, 0, 0, 1, 128, 768}";
},
{
name = pixel.2;
transform = "{1, 0, 0, 1, 768, 768}";
}
);
layerId = "A1CF3A9E-1F49-4701-AF3E-F0E694793914";
width = 1024;
},
{
background = {
paths = (
{
closed = 1;
nodes = (
"1088 387 LINE SMOOTH",
"1121.689 387 OFFCURVE",
"1149 414.311 OFFCURVE",
"1149 448 CURVE SMOOTH",
"1149 481.689 OFFCURVE",
"1121.689 509 OFFCURVE",
"1088 509 CURVE SMOOTH",
"64 509 LINE SMOOTH",
"30.311 509 OFFCURVE",
"3 481.689 OFFCURVE",
"3 448 CURVE SMOOTH",
"3 414.311 OFFCURVE",
"30.311 387 OFFCURVE",
"64 387 CURVE SMOOTH"
);
},
{
closed = 1;
nodes = (
"448 3 LINE SMOOTH",
"481.689 3 OFFCURVE",
"509 30.311 OFFCURVE",
"509 64 CURVE SMOOTH",
"509 97.689 OFFCURVE",
"481.689 125 OFFCURVE",
"448 125 CURVE SMOOTH",
"64 125 LINE SMOOTH",
"30.311 125 OFFCURVE",
"3 97.689 OFFCURVE",
"3 64 CURVE SMOOTH",
"3 30.311 OFFCURVE",
"30.311 3 OFFCURVE",
"64 3 CURVE SMOOTH"
);
},
{
closed = 1;
nodes = (
"1088 131 LINE SMOOTH",
"1121.689 131 OFFCURVE",
"1149 158.311 OFFCURVE",
"1149 192 CURVE SMOOTH",
"1149 225.689 OFFCURVE",
"1121.689 253 OFFCURVE",
"1088 253 CURVE SMOOTH",
"64 253 LINE SMOOTH",
"30.311 253 OFFCURVE",
"3 225.689 OFFCURVE",
"3 192 CURVE SMOOTH",
"3 158.311 OFFCURVE",
"30.311 131 OFFCURVE",
"64 131 CURVE SMOOTH"
);
},
{
closed = 1;
nodes = (
"448 515 LINE SMOOTH",
"481.689 515 OFFCURVE",
"509 542.311 OFFCURVE",
"509 576 CURVE SMOOTH",
"509 609.689 OFFCURVE",
"481.689 637 OFFCURVE",
"448 637 CURVE SMOOTH",
"64 637 LINE SMOOTH",
"30.311 637 OFFCURVE",
"3 609.689 OFFCURVE",
"3 576 CURVE SMOOTH",
"3 542.311 OFFCURVE",
"30.311 515 OFFCURVE",
"64 515 CURVE SMOOTH"
);
},
{
closed = 1;
nodes = (
"1088 259 LINE SMOOTH",
"1121.689 259 OFFCURVE",
"1149 286.311 OFFCURVE",
"1149 320 CURVE SMOOTH",
"1149 353.689 OFFCURVE",
"1121.689 381 OFFCURVE",
"1088 381 CURVE SMOOTH",
"64 381 LINE SMOOTH",
"30.311 381 OFFCURVE",
"3 353.689 OFFCURVE",
"3 320 CURVE SMOOTH",
"3 286.311 OFFCURVE",
"30.311 259 OFFCURVE",
"64 259 CURVE SMOOTH"
);
},
{
closed = 1;
nodes = (
"448 643 LINE SMOOTH",
"481.689 643 OFFCURVE",
"509 670.311 OFFCURVE",
"509 704 CURVE SMOOTH",
"509 737.689 OFFCURVE",
"481.689 765 OFFCURVE",
"448 765 CURVE SMOOTH",
"64 765 LINE SMOOTH",
"30.311 765 OFFCURVE",
"3 737.689 OFFCURVE",
"3 704 CURVE SMOOTH",
"3 670.311 OFFCURVE",
"30.311 643 OFFCURVE",
"64 643 CURVE SMOOTH"
);
},
{
closed = 1;
nodes = (
"1088 3 LINE SMOOTH",
"1121.689 3 OFFCURVE",
"1149 30.311 OFFCURVE",
"1149 64 CURVE SMOOTH",
"1149 97.689 OFFCURVE",
"1121.689 125 OFFCURVE",
"1088 125 CURVE SMOOTH",
"704 125 LINE SMOOTH",
"670.311 125 OFFCURVE",
"643 97.689 OFFCURVE",
"643 64 CURVE SMOOTH",
"643 30.311 OFFCURVE",
"670.311 3 OFFCURVE",
"704 3 CURVE SMOOTH"
);
},
{
closed = 1;
nodes = (
"448 771 LINE SMOOTH",
"481.689 771 OFFCURVE",
"509 798.311 OFFCURVE",
"509 832 CURVE SMOOTH",
"509 865.689 OFFCURVE",
"481.689 893 OFFCURVE",
"448 893 CURVE SMOOTH",
"64 893 LINE SMOOTH",
"30.311 893 OFFCURVE",
"3 865.689 OFFCURVE",
"3 832 CURVE SMOOTH",
"3 798.311 OFFCURVE",
"30.311 771 OFFCURVE",
"64 771 CURVE SMOOTH"
);
},
{
closed = 1;
nodes = (
"1088 515 LINE SMOOTH",
"1121.689 515 OFFCURVE",
"1149 542.311 OFFCURVE",
"1149 576 CURVE SMOOTH",
"1149 609.689 OFFCURVE",
"1121.689 637 OFFCURVE",
"1088 637 CURVE SMOOTH",
"704 637 LINE SMOOTH",
"670.311 637 OFFCURVE",
"643 609.689 OFFCURVE",
"643 576 CURVE SMOOTH",
"643 542.311 OFFCURVE",
"670.311 515 OFFCURVE",
"704 515 CURVE SMOOTH"
);
},
{
closed = 1;
nodes = (
"1088 643 LINE SMOOTH",
"1121.689 643 OFFCURVE",
"1149 670.311 OFFCURVE",
"1149 704 CURVE SMOOTH",
"1149 737.689 OFFCURVE",
"1121.689 765 OFFCURVE",
"1088 765 CURVE SMOOTH",
"704 765 LINE SMOOTH",
"670.311 765 OFFCURVE",
"643 737.689 OFFCURVE",
"643 704 CURVE SMOOTH",
"643 670.311 OFFCURVE",
"670.311 643 OFFCURVE",
"704 643 CURVE SMOOTH"
);
},
{
closed = 1;
nodes = (
"1088 771 LINE SMOOTH",
"1121.689 771 OFFCURVE",
"1149 798.311 OFFCURVE",
"1149 832 CURVE SMOOTH",
"1149 865.689 OFFCURVE",
"1121.689 893 OFFCURVE",
"1088 893 CURVE SMOOTH",
"704 893 LINE SMOOTH",
"670.311 893 OFFCURVE",
"643 865.689 OFFCURVE",
"643 832 CURVE SMOOTH",
"643 798.311 OFFCURVE",
"670.311 771 OFFCURVE",
"704 771 CURVE SMOOTH"
);
}
);
};
components = (
{
name = pixel.2;
transform = "{1, 0, 0, 1, 128, 0}";
},
{
name = pixel.2;
transform = "{1, 0, 0, 1, 768, 0}";
},
{
name = pixel.3;
transform = "{1, 0, 0, 1, 128, 128}";
},
{
name = pixel.3;
transform = "{1, 0, 0, 1, 640, 128}";
},
{
name = pixel.7;
transform = "{1, 0, 0, 1, 128, 256}";
},
{
name = pixel.2;
transform = "{1, 0, 0, 1, 128, 384}";
},
{
name = pixel.1;
transform = "{1, 0, 0, 1, 512, 384}";
},
{
name = pixel.2;
transform = "{1, 0, 0, 1, 768, 384}";
},
{
name = pixel.2;
transform = "{1, 0, 0, 1, 128, 512}";
},
{
name = pixel.2;
transform = "{1, 0, 0, 1, 768, 512}";
},
{
name = pixel.2;
transform = "{1, 0, 0, 1, 128, 640}";
},
{
name = pixel.2;
transform = "{1, 0, 0, 1, 768, 640}";
},
{
name = pixel.2;
transform = "{1, 0, 0, 1, 128, 768}";
},
{
name = pixel.2;
transform = "{1, 0, 0, 1, 768, 768}";
}
);
layerId = "93054D9F-9072-4363-B5A9-8BAB03B66C21";
width = 1024;
},
{
background = {
paths = (
{
closed = 1;
nodes = (
"1127 438 LINE SMOOTH",
"1132.523 438 OFFCURVE",
"1137 442.477 OFFCURVE",
"1137 448 CURVE SMOOTH",
"1137 453.523 OFFCURVE",
"1132.523 458 OFFCURVE",
"1127 458 CURVE SMOOTH",
"25 458 LINE SMOOTH",
"19.477 458 OFFCURVE",
"15 453.523 OFFCURVE",
"15 448 CURVE SMOOTH",
"15 442.477 OFFCURVE",
"19.477 438 OFFCURVE",
"25 438 CURVE SMOOTH"
);
},
{
closed = 1;
nodes = (
"487 54 LINE SMOOTH",
"492.523 54 OFFCURVE",
"497 58.477 OFFCURVE",
"497 64 CURVE SMOOTH",
"497 69.523 OFFCURVE",
"492.523 74 OFFCURVE",
"487 74 CURVE SMOOTH",
"25 74 LINE SMOOTH",
"19.477 74 OFFCURVE",
"15 69.523 OFFCURVE",
"15 64 CURVE SMOOTH",
"15 58.477 OFFCURVE",
"19.477 54 OFFCURVE",
"25 54 CURVE SMOOTH"
);
},
{
closed = 1;
nodes = (
"1127 182 LINE SMOOTH",
"1132.523 182 OFFCURVE",
"1137 186.477 OFFCURVE",
"1137 192 CURVE SMOOTH",
"1137 197.523 OFFCURVE",
"1132.523 202 OFFCURVE",
"1127 202 CURVE SMOOTH",
"25 202 LINE SMOOTH",
"19.477 202 OFFCURVE",
"15 197.523 OFFCURVE",
"15 192 CURVE SMOOTH",
"15 186.477 OFFCURVE",
"19.477 182 OFFCURVE",
"25 182 CURVE SMOOTH"
);
},
{
closed = 1;
nodes = (
"487 566 LINE SMOOTH",
"492.523 566 OFFCURVE",
"497 570.477 OFFCURVE",
"497 576 CURVE SMOOTH",
"497 581.523 OFFCURVE",
"492.523 586 OFFCURVE",
"487 586 CURVE SMOOTH",
"25 586 LINE SMOOTH",
"19.477 586 OFFCURVE",
"15 581.523 OFFCURVE",
"15 576 CURVE SMOOTH",
"15 570.477 OFFCURVE",
"19.477 566 OFFCURVE",
"25 566 CURVE SMOOTH"
);
},
{
closed = 1;
nodes = (
"1127 310 LINE SMOOTH",
"1132.523 310 OFFCURVE",
"1137 314.477 OFFCURVE",
"1137 320 CURVE SMOOTH",
"1137 325.523 OFFCURVE",
"1132.523 330 OFFCURVE",
"1127 330 CURVE SMOOTH",
"25 330 LINE SMOOTH",
"19.477 330 OFFCURVE",
"15 325.523 OFFCURVE",
"15 320 CURVE SMOOTH",
"15 314.477 OFFCURVE",
"19.477 310 OFFCURVE",
"25 310 CURVE SMOOTH"
);
},
{
closed = 1;
nodes = (
"487 694 LINE SMOOTH",
"492.523 694 OFFCURVE",
"497 698.477 OFFCURVE",
"497 704 CURVE SMOOTH",
"497 709.523 OFFCURVE",
"492.523 714 OFFCURVE",
"487 714 CURVE SMOOTH",
"25 714 LINE SMOOTH",
"19.477 714 OFFCURVE",
"15 709.523 OFFCURVE",
"15 704 CURVE SMOOTH",
"15 698.477 OFFCURVE",
"19.477 694 OFFCURVE",
"25 694 CURVE SMOOTH"
);
},
{
closed = 1;
nodes = (
"1127 54 LINE SMOOTH",
"1132.523 54 OFFCURVE",
"1137 58.477 OFFCURVE",
"1137 64 CURVE SMOOTH",
"1137 69.523 OFFCURVE",
"1132.523 74 OFFCURVE",
"1127 74 CURVE SMOOTH",
"665 74 LINE SMOOTH",
"659.477 74 OFFCURVE",
"655 69.523 OFFCURVE",
"655 64 CURVE SMOOTH",
"655 58.477 OFFCURVE",
"659.477 54 OFFCURVE",
"665 54 CURVE SMOOTH"
);
},
{
closed = 1;
nodes = (
"487 822 LINE SMOOTH",
"492.523 822 OFFCURVE",
"497 826.477 OFFCURVE",
"497 832 CURVE SMOOTH",
"497 837.523 OFFCURVE",
"492.523 842 OFFCURVE",
"487 842 CURVE SMOOTH",
"25 842 LINE SMOOTH",
"19.477 842 OFFCURVE",
"15 837.523 OFFCURVE",
"15 832 CURVE SMOOTH",
"15 826.477 OFFCURVE",
"19.477 822 OFFCURVE",
"25 822 CURVE SMOOTH"
);
},
{
closed = 1;
nodes = (
"1127 566 LINE SMOOTH",
"1132.523 566 OFFCURVE",
"1137 570.477 OFFCURVE",
"1137 576 CURVE SMOOTH",
"1137 581.523 OFFCURVE",
"1132.523 586 OFFCURVE",
"1127 586 CURVE SMOOTH",
"665 586 LINE SMOOTH",
"659.477 586 OFFCURVE",
"655 581.523 OFFCURVE",
"655 576 CURVE SMOOTH",
"655 570.477 OFFCURVE",
"659.477 566 OFFCURVE",
"665 566 CURVE SMOOTH"
);
},
{
closed = 1;
nodes = (
"1127 694 LINE SMOOTH",
"1132.523 694 OFFCURVE",
"1137 698.477 OFFCURVE",
"1137 704 CURVE SMOOTH",
"1137 709.523 OFFCURVE",
"1132.523 714 OFFCURVE",
"1127 714 CURVE SMOOTH",
"665 714 LINE SMOOTH",
"659.477 714 OFFCURVE",
"655 709.523 OFFCURVE",
"655 704 CURVE SMOOTH",
"655 698.477 OFFCURVE",
"659.477 694 OFFCURVE",
"665 694 CURVE SMOOTH"
);
},
{
closed = 1;
nodes = (
"1127 822 LINE SMOOTH",
"1132.523 822 OFFCURVE",
"1137 826.477 OFFCURVE",
"1137 832 CURVE SMOOTH",
"1137 837.523 OFFCURVE",
"1132.523 842 OFFCURVE",
"1127 842 CURVE SMOOTH",
"665 842 LINE SMOOTH",
"659.477 842 OFFCURVE",
"655 837.523 OFFCURVE",
"655 832 CURVE SMOOTH",
"655 826.477 OFFCURVE",
"659.477 822 OFFCURVE",
"665 822 CURVE SMOOTH"
);
}
);
};
components = (
{
name = pixel.2;
transform = "{1, 0, 0, 1, 128, 0}";
},
{
name = pixel.2;
transform = "{1, 0, 0, 1, 768, 0}";
},
{
name = pixel.3;
transform = "{1, 0, 0, 1, 128, 128}";
},
{
name = pixel.3;
transform = "{1, 0, 0, 1, 640, 128}";
},
{
name = pixel.7;
transform = "{1, 0, 0, 1, 128, 256}";
},
{
name = pixel.2;
transform = "{1, 0, 0, 1, 128, 384}";
},
{
name = pixel.1;
transform = "{1, 0, 0, 1, 512, 384}";
},
{
name = pixel.2;
transform = "{1, 0, 0, 1, 768, 384}";
},
{
name = pixel.2;
transform = "{1, 0, 0, 1, 128, 512}";
},
{
name = pixel.2;
transform = "{1, 0, 0, 1, 768, 512}";
},
{
name = pixel.2;
transform = "{1, 0, 0, 1, 128, 640}";
},
{
name = pixel.2;
transform = "{1, 0, 0, 1, 768, 640}";
},
{
name = pixel.2;
transform = "{1, 0, 0, 1, 128, 768}";
},
{
name = pixel.2;
transform = "{1, 0, 0, 1, 768, 768}";
}
);
layerId = "B2CED426-8D3E-4D4E-926E-917DB7E3651C";
width = 1024;
}
);
unicode = 0057;
userData = {
com.typemytype.robofont.mark = (
1,
0.6,
0.6,
1
);
};
},
{
color = 4;
glyphname = X;
layers = (
{
background = {
paths = (
{
closed = 1;
nodes = (
"381 387 LINE {name = hr00;}",
"253 387 LINE",
"253 259 LINE",
"125 259 LINE",
"125 -3 LINE",
"387 -3 LINE",
"387 253 LINE",
"637 253 LINE",
"637 -3 LINE",
"899 -3 LINE",
"899 259 LINE",
"771 259 LINE",
"771 387 LINE",
"643 387 LINE",
"643 509 LINE",
"771 509 LINE",
"771 637 LINE",
"899 637 LINE",
"899 899 LINE",
"637 899 LINE",
"637 643 LINE",
"387 643 LINE",
"387 899 LINE",
"125 899 LINE",
"125 637 LINE",
"253 637 LINE",
"253 509 LINE",
"381 509 LINE"
);
}
);
};
components = (
{
name = pixel.2;
transform = "{1, 0, 0, 1, 128, 0}";
},
{
name = pixel.2;
transform = "{1, 0, 0, 1, 640, 0}";
},
{
name = pixel.2;
transform = "{1, 0, 0, 1, 128, 128}";
},
{
name = pixel.2;
transform = "{1, 0, 0, 1, 640, 128}";
},
{
name = pixel.4;
transform = "{1, 0, 0, 1, 256, 256}";
},
{
name = pixel.2;
transform = "{1, 0, 0, 1, 384, 384}";
},
{
name = pixel.4;
transform = "{1, 0, 0, 1, 256, 512}";
},
{
name = pixel.2;
transform = "{1, 0, 0, 1, 128, 640}";
},
{
name = pixel.2;
transform = "{1, 0, 0, 1, 640, 640}";
},
{
name = pixel.2;
transform = "{1, 0, 0, 1, 128, 768}";
},
{
name = pixel.2;
transform = "{1, 0, 0, 1, 640, 768}";
}
);
layerId = "511DE76B-C93C-4D1E-A4F3-1BF977EE06C9";
width = 1024;
},
{
background = {
paths = (
{
closed = 1;
nodes = (
"381 387 LINE {name = hr00;}",
"253 387 LINE",
"253 259 LINE",
"125 259 LINE",
"125 -3 LINE",
"387 -3 LINE",
"387 253 LINE",
"637 253 LINE",
"637 -3 LINE",
"899 -3 LINE",
"899 259 LINE",
"771 259 LINE",
"771 387 LINE",
"643 387 LINE",
"643 509 LINE",
"771 509 LINE",
"771 637 LINE",
"899 637 LINE",
"899 899 LINE",
"637 899 LINE",
"637 643 LINE",
"387 643 LINE",
"387 899 LINE",
"125 899 LINE",
"125 637 LINE",
"253 637 LINE",
"253 509 LINE",
"381 509 LINE"
);
}
);
};
components = (
{
name = pixel.2;
transform = "{1, 0, 0, 1, 128, 0}";
},
{
name = pixel.2;
transform = "{1, 0, 0, 1, 640, 0}";
},
{
name = pixel.2;
transform = "{1, 0, 0, 1, 128, 128}";
},
{
name = pixel.2;
transform = "{1, 0, 0, 1, 640, 128}";
},
{
name = pixel.4;
transform = "{1, 0, 0, 1, 256, 256}";
},
{
name = pixel.2;
transform = "{1, 0, 0, 1, 384, 384}";
},
{
name = pixel.4;
transform = "{1, 0, 0, 1, 256, 512}";
},
{
name = pixel.2;
transform = "{1, 0, 0, 1, 128, 640}";
},
{
name = pixel.2;
transform = "{1, 0, 0, 1, 640, 640}";
},
{
name = pixel.2;
transform = "{1, 0, 0, 1, 128, 768}";
},
{
name = pixel.2;
transform = "{1, 0, 0, 1, 640, 768}";
}
);
layerId = "A1CF3A9E-1F49-4701-AF3E-F0E694793914";
width = 1024;
},
{
background = {
paths = (
{
closed = 1;
nodes = (
"381 387 LINE {name = hr00;}",
"253 387 LINE",
"253 259 LINE",
"125 259 LINE",
"125 -3 LINE",
"387 -3 LINE",
"387 253 LINE",
"637 253 LINE",
"637 -3 LINE",
"899 -3 LINE",
"899 259 LINE",
"771 259 LINE",
"771 387 LINE",
"643 387 LINE",
"643 509 LINE",
"771 509 LINE",
"771 637 LINE",
"899 637 LINE",
"899 899 LINE",
"637 899 LINE",
"637 643 LINE",
"387 643 LINE",
"387 899 LINE",
"125 899 LINE",
"125 637 LINE",
"253 637 LINE",
"253 509 LINE",
"381 509 LINE"
);
}
);
};
components = (
{
name = pixel.2;
transform = "{1, 0, 0, 1, 128, 0}";
},
{
name = pixel.2;
transform = "{1, 0, 0, 1, 640, 0}";
},
{
name = pixel.2;
transform = "{1, 0, 0, 1, 128, 128}";
},
{
name = pixel.2;
transform = "{1, 0, 0, 1, 640, 128}";
},
{
name = pixel.4;
transform = "{1, 0, 0, 1, 256, 256}";
},
{
name = pixel.2;
transform = "{1, 0, 0, 1, 384, 384}";
},
{
name = pixel.4;
transform = "{1, 0, 0, 1, 256, 512}";
},
{
name = pixel.2;
transform = "{1, 0, 0, 1, 128, 640}";
},
{
name = pixel.2;
transform = "{1, 0, 0, 1, 640, 640}";
},
{
name = pixel.2;
transform = "{1, 0, 0, 1, 128, 768}";
},
{
name = pixel.2;
transform = "{1, 0, 0, 1, 640, 768}";
}
);
layerId = "93054D9F-9072-4363-B5A9-8BAB03B66C21";
width = 1024;
},
{
background = {
paths = (
{
closed = 1;
nodes = (
"381 387 LINE {name = hr00;}",
"253 387 LINE",
"253 259 LINE",
"125 259 LINE",
"125 -3 LINE",
"387 -3 LINE",
"387 253 LINE",
"637 253 LINE",
"637 -3 LINE",
"899 -3 LINE",
"899 259 LINE",
"771 259 LINE",
"771 387 LINE",
"643 387 LINE",
"643 509 LINE",
"771 509 LINE",
"771 637 LINE",
"899 637 LINE",
"899 899 LINE",
"637 899 LINE",
"637 643 LINE",
"387 643 LINE",
"387 899 LINE",
"125 899 LINE",
"125 637 LINE",
"253 637 LINE",
"253 509 LINE",
"381 509 LINE"
);
}
);
};
components = (
{
name = pixel.2;
transform = "{1, 0, 0, 1, 128, 0}";
},
{
name = pixel.2;
transform = "{1, 0, 0, 1, 640, 0}";
},
{
name = pixel.2;
transform = "{1, 0, 0, 1, 128, 128}";
},
{
name = pixel.2;
transform = "{1, 0, 0, 1, 640, 128}";
},
{
name = pixel.4;
transform = "{1, 0, 0, 1, 256, 256}";
},
{
name = pixel.2;
transform = "{1, 0, 0, 1, 384, 384}";
},
{
name = pixel.4;
transform = "{1, 0, 0, 1, 256, 512}";
},
{
name = pixel.2;
transform = "{1, 0, 0, 1, 128, 640}";
},
{
name = pixel.2;
transform = "{1, 0, 0, 1, 640, 640}";
},
{
name = pixel.2;
transform = "{1, 0, 0, 1, 128, 768}";
},
{
name = pixel.2;
transform = "{1, 0, 0, 1, 640, 768}";
}
);
layerId = "B2CED426-8D3E-4D4E-926E-917DB7E3651C";
width = 1024;
}
);
unicode = 0058;
userData = {
com.typemytype.robofont.mark = (
1,
0.6,
0.6,
1
);
};
},
{
color = 4;
glyphname = Y;
layers = (
{
background = {
paths = (
{
closed = 1;
nodes = (
"381 -3 LINE",
"643 -3 LINE",
"643 381 LINE",
"771 381 LINE",
"771 509 LINE",
"899 509 LINE {name = hr01;}",
"899 899 LINE",
"637 899 LINE",
"637 515 LINE",
"387 515 LINE",
"387 899 LINE",
"125 899 LINE",
"125 509 LINE",
"253 509 LINE",
"253 381 LINE",
"381 381 LINE {name = hr02;}"
);
}
);
};
components = (
{
name = pixel.2;
transform = "{1, 0, 0, 1, 384, 0}";
},
{
name = pixel.2;
transform = "{1, 0, 0, 1, 384, 128}";
},
{
name = pixel.2;
transform = "{1, 0, 0, 1, 384, 256}";
},
{
name = pixel.4;
transform = "{1, 0, 0, 1, 256, 384}";
},
{
name = pixel.2;
transform = "{1, 0, 0, 1, 128, 512}";
},
{
name = pixel.2;
transform = "{1, 0, 0, 1, 640, 512}";
},
{
name = pixel.2;
transform = "{1, 0, 0, 1, 128, 640}";
},
{
name = pixel.2;
transform = "{1, 0, 0, 1, 640, 640}";
},
{
name = pixel.2;
transform = "{1, 0, 0, 1, 128, 768}";
},
{
name = pixel.2;
transform = "{1, 0, 0, 1, 640, 768}";
}
);
layerId = "511DE76B-C93C-4D1E-A4F3-1BF977EE06C9";
width = 1024;
},
{
background = {
paths = (
{
closed = 1;
nodes = (
"381 -3 LINE",
"643 -3 LINE",
"643 381 LINE",
"771 381 LINE",
"771 509 LINE",
"899 509 LINE {name = hr01;}",
"899 899 LINE",
"637 899 LINE",
"637 515 LINE",
"387 515 LINE",
"387 899 LINE",
"125 899 LINE",
"125 509 LINE",
"253 509 LINE",
"253 381 LINE",
"381 381 LINE {name = hr02;}"
);
}
);
};
components = (
{
name = pixel.2;
transform = "{1, 0, 0, 1, 384, 0}";
},
{
name = pixel.2;
transform = "{1, 0, 0, 1, 384, 128}";
},
{
name = pixel.2;
transform = "{1, 0, 0, 1, 384, 256}";
},
{
name = pixel.4;
transform = "{1, 0, 0, 1, 256, 384}";
},
{
name = pixel.2;
transform = "{1, 0, 0, 1, 128, 512}";
},
{
name = pixel.2;
transform = "{1, 0, 0, 1, 640, 512}";
},
{
name = pixel.2;
transform = "{1, 0, 0, 1, 128, 640}";
},
{
name = pixel.2;
transform = "{1, 0, 0, 1, 640, 640}";
},
{
name = pixel.2;
transform = "{1, 0, 0, 1, 128, 768}";
},
{
name = pixel.2;
transform = "{1, 0, 0, 1, 640, 768}";
}
);
layerId = "A1CF3A9E-1F49-4701-AF3E-F0E694793914";
width = 1024;
},
{
background = {
paths = (
{
closed = 1;
nodes = (
"381 -3 LINE",
"643 -3 LINE",
"643 381 LINE",
"771 381 LINE",
"771 509 LINE",
"899 509 LINE {name = hr01;}",
"899 899 LINE",
"637 899 LINE",
"637 515 LINE",
"387 515 LINE",
"387 899 LINE",
"125 899 LINE",
"125 509 LINE",
"253 509 LINE",
"253 381 LINE",
"381 381 LINE {name = hr02;}"
);
}
);
};
components = (
{
name = pixel.2;
transform = "{1, 0, 0, 1, 384, 0}";
},
{
name = pixel.2;
transform = "{1, 0, 0, 1, 384, 128}";
},
{
name = pixel.2;
transform = "{1, 0, 0, 1, 384, 256}";
},
{
name = pixel.4;
transform = "{1, 0, 0, 1, 256, 384}";
},
{
name = pixel.2;
transform = "{1, 0, 0, 1, 128, 512}";
},
{
name = pixel.2;
transform = "{1, 0, 0, 1, 640, 512}";
},
{
name = pixel.2;
transform = "{1, 0, 0, 1, 128, 640}";
},
{
name = pixel.2;
transform = "{1, 0, 0, 1, 640, 640}";
},
{
name = pixel.2;
transform = "{1, 0, 0, 1, 128, 768}";
},
{
name = pixel.2;
transform = "{1, 0, 0, 1, 640, 768}";
}
);
layerId = "93054D9F-9072-4363-B5A9-8BAB03B66C21";
width = 1024;
},
{
background = {
paths = (
{
closed = 1;
nodes = (
"381 -3 LINE",
"643 -3 LINE",
"643 381 LINE",
"771 381 LINE",
"771 509 LINE",
"899 509 LINE {name = hr01;}",
"899 899 LINE",
"637 899 LINE",
"637 515 LINE",
"387 515 LINE",
"387 899 LINE",
"125 899 LINE",
"125 509 LINE",
"253 509 LINE",
"253 381 LINE",
"381 381 LINE {name = hr02;}"
);
}
);
};
components = (
{
name = pixel.2;
transform = "{1, 0, 0, 1, 384, 0}";
},
{
name = pixel.2;
transform = "{1, 0, 0, 1, 384, 128}";
},
{
name = pixel.2;
transform = "{1, 0, 0, 1, 384, 256}";
},
{
name = pixel.4;
transform = "{1, 0, 0, 1, 256, 384}";
},
{
name = pixel.2;
transform = "{1, 0, 0, 1, 128, 512}";
},
{
name = pixel.2;
transform = "{1, 0, 0, 1, 640, 512}";
},
{
name = pixel.2;
transform = "{1, 0, 0, 1, 128, 640}";
},
{
name = pixel.2;
transform = "{1, 0, 0, 1, 640, 640}";
},
{
name = pixel.2;
transform = "{1, 0, 0, 1, 128, 768}";
},
{
name = pixel.2;
transform = "{1, 0, 0, 1, 640, 768}";
}
);
layerId = "B2CED426-8D3E-4D4E-926E-917DB7E3651C";
width = 1024;
}
);
unicode = 0059;
userData = {
com.typemytype.robofont.mark = (
1,
0.6,
0.6,
1
);
};
},
